/* XPM */
static char *__alpha[] = {
/* columns rows colors chars-per-pixel */
"20 26 103 2 ",
"   c #000000",
".  c #010101",
"X  c #020202",
"o  c #030303",
"O  c #050505",
"+  c #060606",
"@  c #070707",
"#  c #090909",
"$  c #0B0B0B",
"%  c #0E0E0E",
"&  c #0f0f0f",
"*  c #101010",
"=  c #111111",
"-  c #131313",
";  c #141414",
":  c #151515",
">  c #171717",
",  c #181818",
"<  c #191919",
"1  c #1B1B1B",
"2  c #1D1D1D",
"3  c #1E1E1E",
"4  c #202020",
"5  c #232323",
"6  c #252525",
"7  c #2b2b2b",
"8  c #2C2C2C",
"9  c #393939",
"0  c #3C3C3C",
"q  c #3d3d3d",
"w  c #424242",
"e  c #434343",
"r  c #444444",
"t  c #464646",
"y  c #494949",
"u  c #4B4B4B",
"i  c #4C4C4C",
"p  c #555555",
"a  c #5A5A5A",
"s  c #626262",
"d  c #6D6D6D",
"f  c #6e6e6e",
"g  c #767676",
"h  c #787878",
"j  c #7a7a7a",
"k  c #7B7B7B",
"l  c #7d7d7d",
"z  c #7E7E7E",
"x  c #7f7f7f",
"c  c #808080",
"v  c #868686",
"b  c #898989",
"n  c #8B8B8B",
"m  c #8c8c8c",
"M  c #919191",
"N  c #949494",
"B  c #969696",
"V  c #989898",
"C  c #999999",
"Z  c #9e9e9e",
"A  c #9F9F9F",
"S  c #A0A0A0",
"D  c #b0b0b0",
"F  c #b3b3b3",
"G  c #b5b5b5",
"H  c #B6B6B6",
"J  c #B7B7B7",
"K  c #b8b8b8",
"L  c #bababa",
"P  c #bfbfbf",
"I  c #C1C1C1",
"U  c #C3C3C3",
"Y  c #c4c4c4",
"T  c #c7c7c7",
"R  c #C8C8C8",
"E  c #c9c9c9",
"W  c #CACACA",
"Q  c #CBCBCB",
"!  c #CECECE",
"~  c #D0D0D0",
"^  c #d1d1d1",
"/  c #D2D2D2",
"(  c #D5D5D5",
")  c #d6d6d6",
"_  c #D7D7D7",
"`  c #DADADA",
"'  c #dbdbdb",
"]  c #DDDDDD",
"[  c #e0e0e0",
"{  c #e3e3e3",
"}  c #E9E9E9",
"|  c #ebebeb",
" . c #F1F1F1",
".. c #f2f2f2",
"X. c #F4F4F4",
"o. c #F6F6F6",
"O. c #f7f7f7",
"+. c #F8F8F8",
"@. c #FBFBFB",
"#. c #fcfcfc",
"$. c #FDFDFD",
"%. c #FEFEFE",
"&. c #ffffff",
/* pixels */
"                                        ",
"                @ > < &                 ",
"            < d F / ( E C r #           ",
"          w E &.&.&.&.&.&. .m =         ",
"        w [ &.&.&.&.&.&.&.&.&.M #       ",
"      2 E &.&.&.&.&.&.&.&.&.&.X.a       ",
"      z &.&.&.&.&.` E | &.&.&.&.T =     ",
"    2 ( &.&.&.&.M 2 & w ` &.&.&.X.i     ",
"    p +.&.&.&.P >       g &.&.&.&.b     ",
"    m &.&.&.&.s         9  .&.&.&.F @   ",
"  @ D &.&.&.| 7         4 [ &.&.&.E &   ",
"  # I &.&.&.( >         < ( &.&.&.Q >   ",
"  & T &.&.&./ >         > ( &.&.&.Q >   ",
"  & I &.&.&.( <         2 ` &.&.&.T &   ",
"  # K &.&.&.{ 4         7 | &.&.&.K #   ",
"    A &.&.&.X.0         y +.&.&.&.A     ",
"    k &.&.&.&.f         v &.&.&.&.k     ",
"    y X.&.&.&.I >     6 ( &.&.&.X.r     ",
"    < / &.&.&.&.S r y G &.&.&.&./ >     ",
"      c &.&.&.&.&.X.+.&.&.&.&.&.z       ",
"      4 Q &.&.&.&.&.&.&.&.&.&.Q 2       ",
"        r [ &.&.&.&.&.&.&.&.] r         ",
"          0 K +.&.&.&.&.X.G 9           ",
"            = y z C B k r &             ",
"                                        ",
"                                        "
};
