/* XPM */
static char *_[] = {
/* columns rows colors chars-per-pixel */
"20 26 57 1 ",
"  c black",
". c #040404",
"X c gray4",
"o c gray5",
"O c gray7",
"+ c gray9",
"@ c #191919",
"# c #1D1D1D",
"$ c #222222",
"% c gray15",
"& c #282828",
"* c #2C2C2C",
"= c #313131",
"- c gray21",
"; c #3A3A3A",
": c #464646",
"> c #494949",
", c gray29",
"< c gray34",
"1 c gray35",
"2 c #5B5B5B",
"3 c #626262",
"4 c gray40",
"5 c gray42",
"6 c gray43",
"7 c gray46",
"8 c gray48",
"9 c #7C7C7C",
"0 c gray52",
"q c #868686",
"w c #8D8D8D",
"e c #939393",
"r c gray59",
"t c #989898",
"y c #A2A2A2",
"u c #A7A7A7",
"i c gray67",
"p c gray68",
"a c #B2B2B2",
"s c #B4B4B4",
"d c gray73",
"f c #BCBCBC",
"g c #C3C3C3",
"h c #C6C6C6",
"j c gray80",
"k c #D2D2D2",
"l c #D5D5D5",
"z c gray85",
"x c #DFDFDF",
"c c gray89",
"v c #E7E7E7",
"b c #E9E9E9",
"n c #EFEFEF",
"m c gray94",
"M c gray96",
"N c gray98",
"B c white",
/* pixels */
"BBBBBBBBBBBBBBBBBBBB",
"BBBBBB        BBBBBB",
"BBBB     ..     BBBB",
"BBB    *8ypr<O   BBB",
"BB   .5cBBBBNa&   BB",
"BB   5MBcitfMBd@   B",
"B   -cBf=. o4nB8   B",
"B  .tBz*    .wBl#  B",
"B  %cB7      ;mN>   ",
"   <Bb*   B  +kBq   ",
"   9BgO  BB  XdBt   ",
"   eBi.  BB  .pBu.  ",
"   tBu.  BB  .pBy   ",
"   rBp.  BB  XsBt   ",
"   qBfX  BB  ohBq   ",
"   5Bl@  BB  $xB5   ",
"   :Nn-      >NM:   ",
"B  $zB8     .rBl#  B",
"B   rBz*    :bBe   B",
"B   ;vBg>##2lBv-   B",
"BB   6MBmzcNBn5   BB",
"BB   X2kNBBMj2X   BB",
"BBB    #>43:@    BBB",
"BBBB            BBBB",
"BBBBBBBB    BBBBBBBB",
"BBBBBBBBBBBBBBBBBBBB"
};
