/* XPM */
static char *__alpha[] = {
/* columns rows colors chars-per-pixel */
"12 26 95 2 ",
"   c black",
".  c #010101",
"X  c #020202",
"o  c gray1",
"O  c gray2",
"+  c #060606",
"@  c gray3",
"#  c #090909",
"$  c gray4",
"%  c #0B0B0B",
"&  c #0E0E0E",
"*  c gray6",
"=  c #101010",
"-  c #111111",
";  c gray8",
":  c #151515",
">  c #161616",
",  c #181818",
"<  c gray10",
"1  c #1B1B1B",
"2  c gray12",
"3  c gray14",
"4  c #252525",
"5  c #272727",
"6  c gray16",
"7  c #2A2A2A",
"8  c #323232",
"9  c gray20",
"0  c #393939",
"q  c #3C3C3C",
"w  c #3F3F3F",
"e  c gray25",
"r  c gray27",
"t  c #464646",
"y  c gray28",
"u  c #494949",
"i  c #4C4C4C",
"p  c gray31",
"a  c #515151",
"s  c gray32",
"d  c #535353",
"f  c #555555",
"g  c gray34",
"h  c gray35",
"j  c gray36",
"k  c #676767",
"l  c #686868",
"z  c #6A6A6A",
"x  c #6C6C6C",
"c  c #6F6F6F",
"v  c #747474",
"b  c #818181",
"n  c #898989",
"m  c gray56",
"M  c #959595",
"N  c #9A9A9A",
"B  c gray61",
"V  c #A7A7A7",
"C  c gray66",
"Z  c #AAAAAA",
"A  c gray70",
"S  c gray71",
"D  c #B9B9B9",
"F  c gray73",
"G  c gray74",
"H  c #C1C1C1",
"J  c #C3C3C3",
"K  c #C6C6C6",
"L  c gray78",
"P  c #C8C8C8",
"I  c #CBCBCB",
"U  c #CECECE",
"Y  c gray82",
"T  c LightGray",
"R  c gray84",
"E  c #DADADA",
"W  c gainsboro",
"Q  c gray88",
"!  c gray90",
"~  c #E7E7E7",
"^  c #E9E9E9",
"/  c #EAEAEA",
"(  c gray92",
")  c #EFEFEF",
"_  c #F3F3F3",
"`  c gray96",
"'  c #F6F6F6",
"]  c #F8F8F8",
"[  c #F9F9F9",
"{  c gray98",
"}  c #FBFBFB",
"|  c gray99",
" . c #FDFDFD",
".. c #FEFEFE",
"X. c white",
/* pixels */
"            % ; +       ",
"          u S U q       ",
"      + k / X.X.l       ",
"    ; n ' X.X.X.d       ",
"  3 A X.X.X.X.' y       ",
"# V X.X.X.] X.] i       ",
"# S X./ b H X.X.f       ",
"  7 v q + D X.X.h       ",
"        # H X.X.d       ",
"        = U X.] y       ",
"        1 E X._ 0       ",
"        3 ! X./ 7       ",
"        9 _ X.E 1       ",
"        q ' X.I =       ",
"        i X.X.D #       ",
"        j X.X.Z         ",
"        l X.X.B         ",
"        x X.X.M         ",
"        k X.X.N         ",
"        f X.X.Z +       ",
"        y ] X.D +       ",
"    ; 2 i ' X.U 9 3 #   ",
"+ x Y Q ! X.X.] / ! m # ",
"; R X.X.X.X.X.X.X.X.R 1 ",
"+ v G K K I K I K K l + ",
"    % % = = = = % =     "
};
