/* XPM */
static char *__alpha[] = {
/* columns rows colors chars-per-pixel */
"15 26 78 1 ",
"  c black",
". c #010101",
"X c #020202",
"o c gray1",
"O c #040404",
"+ c gray2",
"@ c #060606",
"# c #070707",
"$ c gray3",
"% c #090909",
"& c gray4",
"* c #0B0B0B",
"= c #0C0C0C",
"- c gray5",
"; c gray6",
": c #101010",
"> c gray7",
", c #131313",
"< c #191919",
"1 c #202020",
"2 c gray16",
"3 c #313131",
"4 c #373737",
"5 c #3A3A3A",
"6 c gray24",
"7 c gray25",
"8 c #4E4E4E",
"9 c gray31",
"0 c #515151",
"q c gray34",
"w c #5A5A5A",
"e c #606060",
"r c #686868",
"t c #6A6A6A",
"y c #767676",
"u c #777777",
"i c gray50",
"p c #848484",
"a c gray54",
"s c #8D8D8D",
"d c #8E8E8E",
"f c gray56",
"g c gray57",
"h c #929292",
"j c #989898",
"k c gray63",
"l c gray64",
"z c #A4A4A4",
"x c #A5A5A5",
"c c #A9A9A9",
"v c #ACACAC",
"b c #AEAEAE",
"n c #AFAFAF",
"m c #B1B1B1",
"M c #B2B2B2",
"N c #B4B4B4",
"B c gray71",
"V c #B6B6B6",
"C c gray",
"Z c gray75",
"A c gray76",
"S c gray79",
"D c #CACACA",
"F c #CBCBCB",
"G c #CDCDCD",
"H c gray81",
"J c gray87",
"K c #E7E7E7",
"L c #ECECEC",
"P c gray95",
"I c #F4F4F4",
"U c gray96",
"Y c gray97",
"T c gray98",
"R c #FBFBFB",
"E c gray99",
"W c #FDFDFD",
"Q c white",
/* pixels */
"               ",
"       O,$     ",
"      7xHb3    ",
"    $rKQQQxO   ",
"   <gUQQQQA=   ",
"  1VQQQQQQbO   ",
"  aQQQQQQQcO   ",
" ObQQQQQQQMO   ",
" OwUQQQQQQV$   ",
"  $wkDQQQQMO   ",
"     pQQQQk    ",
"     gQQQQs    ",
"     xQQQQu    ",
"    $VQQQQe    ",
"    $AQQQT8    ",
"    :DQQQU7    ",
"    ,HQQQP5    ",
"    =DQQQP6    ",
"   =4HQQQTp2   ",
"  2MLQQQQQQJ0  ",
" OjQQQQQQQQQZ= ",
" OVQQQQQQQQQD: ",
"  rUQQQQQQQUu  ",
"  $8psggggsw$  ",
"               ",
"               "
};
