/* XPM */
static char *_[] = {
/* columns rows colors chars-per-pixel */
"15 26 52 1 ",
"  c black",
". c #070707",
"X c gray3",
"o c #0E0E0E",
"O c #131313",
"+ c #151515",
"@ c #191919",
"# c gray11",
"$ c #232323",
"% c #282828",
"& c #2C2C2C",
"* c gray19",
"= c #343434",
"- c #393939",
"; c #3E3E3E",
": c gray25",
"> c gray28",
", c #494949",
"< c #4C4C4C",
"1 c #515151",
"2 c #555555",
"3 c gray35",
"4 c #5D5D5D",
"5 c #606060",
"6 c #676767",
"7 c #686868",
"8 c #6C6C6C",
"9 c gray44",
"0 c gray46",
"q c #7B7B7B",
"w c gray50",
"e c gray51",
"r c #898989",
"t c gray55",
"y c #939393",
"u c gray59",
"i c #A5A5A5",
"p c #AFAFAF",
"a c gray",
"s c #CACACA",
"d c #D2D2D2",
"f c #D7D7D7",
"g c gray86",
"h c gainsboro",
"j c #E1E1E1",
"k c #E7E7E7",
"l c #E9E9E9",
"z c #EEEEEE",
"x c gray95",
"c c gray96",
"v c gray98",
"b c white",
/* pixels */
"bbbbbb     bbbb",
"bbbbb       bbb",
"bbbb        bbb",
"bb    X2u;  bbb",
"bb   Orcbw  bbb",
"b   &pbbb8  bbb",
"b  *dbbbb7  bbb",
"b  4blizb9  bbb",
"b  O4;&lb0  bbb",
"b     =zb8  bbb",
"bb    :cb4  bbb",
"bbb   <bv<  bbb",
"bbbb  5bx-  bbb",
"bbbb  9bl% bbbb",
"bbbb  ebg# bbbb",
"bbbb  tbd+ bbbb",
"bbbb  ybsO bbbb",
"bb    tbd+   bb",
"bb    qbh#    b",
"b   o@qbl>$.  b",
"b  -afkbblj5  b",
"b  6vbbbbbbw  b",
"b  O,233331+  b",
"b             b",
"bb           bb",
"bbbb        bbb"
};
