/* XPM */
static char *__alpha[] = {
/* columns rows colors chars-per-pixel */
"18 26 110 2 ",
"   c #000000",
".  c #010101",
"X  c #020202",
"o  c #030303",
"O  c #040404",
"+  c #050505",
"@  c #060606",
"#  c #080808",
"$  c #090909",
"%  c #0a0a0a",
"&  c #0B0B0B",
"*  c #0C0C0C",
"=  c #0d0d0d",
"-  c #0E0E0E",
";  c #0f0f0f",
":  c #101010",
">  c #111111",
",  c #121212",
"<  c #131313",
"1  c #141414",
"2  c #161616",
"3  c #181818",
"4  c #1a1a1a",
"5  c #1B1B1B",
"6  c #1D1D1D",
"7  c #1f1f1f",
"8  c #2A2A2A",
"9  c #303030",
"0  c #363636",
"q  c #3b3b3b",
"w  c #3d3d3d",
"e  c #3F3F3F",
"r  c #404040",
"t  c #414141",
"y  c #434343",
"u  c #464646",
"i  c #484848",
"p  c #505050",
"a  c #515151",
"s  c #535353",
"d  c #545454",
"f  c #565656",
"g  c #585858",
"h  c #595959",
"j  c #5B5B5B",
"k  c #5e5e5e",
"l  c #5F5F5F",
"z  c #606060",
"x  c #646464",
"c  c #676767",
"v  c #686868",
"b  c #717171",
"n  c #777777",
"m  c #7B7B7B",
"M  c #7E7E7E",
"N  c #858585",
"B  c #868686",
"V  c #888888",
"C  c #919191",
"Z  c #959595",
"A  c #979797",
"S  c #989898",
"D  c #999999",
"F  c #9B9B9B",
"G  c #9e9e9e",
"H  c #a3a3a3",
"J  c #A9A9A9",
"K  c #ACACAC",
"L  c #b0b0b0",
"P  c #B1B1B1",
"I  c #B4B4B4",
"U  c #b5b5b5",
"Y  c #B7B7B7",
"T  c #b8b8b8",
"R  c #B9B9B9",
"E  c #bababa",
"W  c #BCBCBC",
"Q  c #bebebe",
"!  c #bfbfbf",
"~  c #C1C1C1",
"^  c #C3C3C3",
"/  c #c4c4c4",
"(  c #C5C5C5",
")  c #C6C6C6",
"_  c #CECECE",
"`  c #cfcfcf",
"'  c #D0D0D0",
"]  c #d4d4d4",
"[  c #d6d6d6",
"{  c #DADADA",
"}  c #dcdcdc",
"|  c #dedede",
" . c #E2E2E2",
".. c #e8e8e8",
"X. c #EAEAEA",
"o. c #ECECEC",
"O. c #ededed",
"+. c #EEEEEE",
"@. c #F1F1F1",
"#. c #f2f2f2",
"$. c #F3F3F3",
"%. c #f5f5f5",
"&. c #F6F6F6",
"*. c #F8F8F8",
"=. c #F9F9F9",
"-. c #FBFBFB",
";. c #fcfcfc",
":. c #FDFDFD",
">. c #FEFEFE",
",. c #ffffff",
/* pixels */
"                                    ",
"                ; 1 ;               ",
"          ; d G ) _ ! C t %         ",
"        0 I *.,.,.,.,.,.@.A 4       ",
"      d | ,.,.,.,.,.,.,.,.,.J :     ",
"    a X.,.,.,.,.,.,.,.,.,.,.*.x     ",
"  % R ,.,.,.,.,.@.X.,.,.,.,.,.K @   ",
"  : ) ,.,.,.,.K t 8 V *.,.,.,.) ;   ",
"    b %.,.+.B :     a ,.,.,.,.R %   ",
"    % t v w @     4 R ,.,.,.,.F     ",
"                9 R ,.,.,.,.*.k     ",
"            % z | ,.,.,.,.,.) 1     ",
"          6 F @.,.,.,.,.,.X.i       ",
"        0 ^ ,.,.,.,.,.,. .d         ",
"      0 ] ,.,.,.,.,.*.! w           ",
"    : I ,.,.,.,.,.X.N 1             ",
"    a *.,.,.,.,.) w @               ",
"    F ,.,.,.,.R 6     @ @           ",
"  ; ^ ,.,.,.,.R A H K P K B q @     ",
"  1 ' ,.,.,.,.,.,.,.,.,.,.,.+.x     ",
"  : _ ,.,.,.,.,.,.,.,.,.,.,.,.] 4   ",
"  % I ,.,.,.,.,.,.,.,.,.,.,.,.{ 4   ",
"    g +.,.,.,.,.,.*.*.%.,.,.*.V     ",
"    @ t n V m z g a u w k N z :     ",
"                                    ",
"                                    "
};
