/* XPM */
static char *_[] = {
/* columns rows colors chars-per-pixel */
"18 26 51 1 ",
"  c black",
". c gray2",
"X c gray4",
"o c #0E0E0E",
"O c #101010",
"+ c #161616",
"@ c #191919",
"# c gray12",
"$ c gray13",
"% c gray14",
"& c #2A2A2A",
"* c #2F2F2F",
"= c gray20",
"- c #3A3A3A",
"; c gray25",
": c gray28",
"> c #4B4B4B",
", c #4E4E4E",
"< c #505050",
"1 c gray33",
"2 c #5A5A5A",
"3 c #5D5D5D",
"4 c #6A6A6A",
"5 c #6F6F6F",
"6 c #717171",
"7 c #767676",
"8 c gray50",
"9 c #848484",
"0 c #898989",
"q c gray55",
"w c #9A9A9A",
"e c #9F9F9F",
"r c #A5A5A5",
"t c gray70",
"y c #B6B6B6",
"u c gray",
"i c gray78",
"p c #CACACA",
"a c gray80",
"s c LightGray",
"d c gray83",
"f c gainsboro",
"g c gray87",
"h c #E2E2E2",
"j c #E4E4E4",
"k c #ECECEC",
"l c #EFEFEF",
"z c gray94",
"x c #F4F4F4",
"c c #F9F9F9",
"v c white",
/* pixels */
"vvvvvvvvvvvvvvvvvv",
"vvvvv        vvvvv",
"vvv            vvv",
"vv    @2qw9>O    v",
"v   .<pcvvvxt*   v",
"   X7lvxauhvvi#   ",
"   4cva,OX&evv4   ",
"   8zr%    $gvq   ",
"   O*o     $gv9   ",
"v          3cv2   ",
"vvvvvv    =svd$   ",
"vvvvv   .,dvx4   v",
"vvv    +8lvz8X   v",
"vv    =yvvd2.   vv",
"v    1gvzw%    vvv",
"v   ,kvg3X    vvvv",
"   @avd-    vvvvvv",
"   2vc2        vvv",
"   0va+          v",
"   evi;,24675;o   ",
"   rvcxvvvvvvx9   ",
"   4xczljhgdjvw   ",
"   o-,;=&$#+&:#   ",
"v                v",
"vvvvvvvvvvvvvvvvvv",
"vvvvvvvvvvvvvvvvvv"
};
