/* XPM */
static char *__alpha[] = {
/* columns rows colors chars-per-pixel */
"18 26 101 2 ",
"   c black",
".  c #010101",
"X  c #020202",
"o  c gray1",
"O  c #040404",
"+  c #060606",
"@  c #070707",
"#  c gray3",
"$  c #090909",
"%  c #0B0B0B",
"&  c #0C0C0C",
"*  c gray5",
"=  c #0E0E0E",
"-  c #101010",
";  c #131313",
":  c #161616",
">  c gray9",
",  c #181818",
"<  c gray10",
"1  c #1B1B1B",
"2  c #1E1E1E",
"3  c #252525",
"4  c gray15",
"5  c #282828",
"6  c #2C2C2C",
"7  c #313131",
"8  c #323232",
"9  c #353535",
"0  c #373737",
"q  c gray22",
"w  c #393939",
"e  c #3A3A3A",
"r  c gray25",
"t  c #464646",
"y  c #484848",
"u  c #4C4C4C",
"i  c gray30",
"p  c gray31",
"a  c gray34",
"s  c #5B5B5B",
"d  c gray37",
"f  c #606060",
"g  c #656565",
"h  c DimGray",
"j  c #6A6A6A",
"k  c #6D6D6D",
"l  c gray44",
"z  c #717171",
"x  c #727272",
"c  c gray45",
"v  c #767676",
"b  c #777777",
"n  c #7B7B7B",
"m  c gray49",
"M  c gray50",
"N  c #818181",
"B  c gray51",
"V  c #838383",
"C  c #8B8B8B",
"Z  c #8D8D8D",
"A  c #909090",
"S  c gray57",
"D  c #939393",
"F  c #989898",
"G  c #A2A2A2",
"H  c gray64",
"J  c #A5A5A5",
"K  c #A7A7A7",
"L  c #AAAAAA",
"P  c gray67",
"I  c #AEAEAE",
"U  c #B2B2B2",
"Y  c #B7B7B7",
"T  c gray",
"R  c gray77",
"E  c gray78",
"W  c #CACACA",
"Q  c gray81",
"!  c gray82",
"~  c gray83",
"^  c gray85",
"/  c #DADADA",
"(  c gray86",
")  c #DFDFDF",
"_  c #E6E6E6",
"`  c #E7E7E7",
"'  c gray91",
"]  c #EEEEEE",
"[  c #EFEFEF",
"{  c gray95",
"}  c #F4F4F4",
"|  c gray96",
" . c #F6F6F6",
".. c gray97",
"X. c #F8F8F8",
"o. c #F9F9F9",
"O. c gray98",
"+. c gray99",
"@. c #FDFDFD",
"#. c #FEFEFE",
"$. c white",
/* pixels */
"                                    ",
"              $ , ; $               ",
"          9 B T ~ Q Y B 9           ",
"      , C _ $.$.$.$.$.$.' m *       ",
"    * H $.$.$.$.$.$.$.$.$.X.m +     ",
"    w { $.$.$.$.$.$.$.$.$.$.' 7     ",
"    9 [ $.$.$.X.^ ^ | $.$.$.$.z     ",
"    $ A | $.Q d , , j | $.$.$.A     ",
"      * t s ,     , j | $.$.$.A     ",
"            5 z L ~ | $.$.$.$.c     ",
"          t ^ $.$.$.$.$.$.$.' 7     ",
"        + L $.$.$.$.$.$.$.$.B       ",
"        + H $.$.$.$.$.$.$.X.F *     ",
"          w E | $.$.$.$.$.$.X.s     ",
"            ; r g L { $.$.$.$.U $   ",
"                  $ n X.$.$.$.^ ,   ",
"    - k J c ;       , ^ $.$.$._ 3   ",
"    B X.$.$.A $     5 ) $.$.$.) 2   ",
"  * W $.$.$.| Z u a Y $.$.$.$.T *   ",
"  $ I $.$.$.$.$.$.X.$.$.$.$.$.z     ",
"    u { $.$.$.$.$.$.$.$.$.$.E ,     ",
"    + m | $.$.$.$.$.$.$.$.~ 9       ",
"      $ d Q X.$.$.$.$.[ J 6         ",
"          ; u n D A z w $           ",
"                                    ",
"                                    "
};
