/* XPM */
static char *__alpha[] = {
/* columns rows colors chars-per-pixel */
"16 26 120 2 ",
"   c black",
".  c #010101",
"X  c #020202",
"o  c gray1",
"O  c #040404",
"+  c gray2",
"@  c #060606",
"#  c #070707",
"$  c gray3",
"%  c #090909",
"&  c gray4",
"*  c #0C0C0C",
"=  c gray5",
"-  c #101010",
";  c #111111",
":  c gray7",
">  c gray8",
",  c #151515",
"<  c #161616",
"1  c gray9",
"2  c #181818",
"3  c #191919",
"4  c gray10",
"5  c #1B1B1B",
"6  c gray11",
"7  c #1E1E1E",
"8  c gray12",
"9  c gray13",
"0  c #232323",
"q  c #272727",
"w  c #282828",
"e  c gray16",
"r  c gray18",
"t  c #313131",
"y  c gray20",
"u  c #343434",
"i  c #353535",
"p  c gray21",
"a  c #373737",
"s  c #393939",
"d  c gray23",
"f  c #3C3C3C",
"g  c gray24",
"h  c #3F3F3F",
"j  c gray25",
"k  c #494949",
"l  c #4B4B4B",
"z  c #4C4C4C",
"x  c #4E4E4E",
"c  c #505050",
"v  c #515151",
"b  c #535353",
"n  c gray33",
"m  c #555555",
"M  c #5A5A5A",
"N  c gray36",
"B  c #676767",
"V  c gray42",
"C  c gray43",
"Z  c gray44",
"A  c #727272",
"S  c #777777",
"D  c #818181",
"F  c gray51",
"G  c #838383",
"H  c #8E8E8E",
"J  c gray56",
"K  c gray57",
"L  c #939393",
"P  c #989898",
"I  c gray60",
"U  c gray61",
"Y  c #9D9D9D",
"T  c gray62",
"R  c #A4A4A4",
"E  c #A5A5A5",
"W  c gray66",
"Q  c #AEAEAE",
"!  c gray71",
"~  c #B7B7B7",
"^  c #B9B9B9",
"/  c gray73",
"(  c #BBBBBB",
")  c #BCBCBC",
"_  c #C0C0C0",
"`  c gray76",
"'  c #C8C8C8",
"]  c gray79",
"[  c #CBCBCB",
"{  c gray80",
"}  c #CECECE",
"|  c #D2D2D2",
" . c gray83",
".. c gray85",
"X. c gray86",
"o. c #DDDDDD",
"O. c gray87",
"+. c gray88",
"@. c gray89",
"#. c #E4E4E4",
"$. c #E7E7E7",
"%. c gray91",
"&. c gray92",
"*. c #EEEEEE",
"=. c #EFEFEF",
"-. c gray94",
";. c #F1F1F1",
":. c gray95",
">. c #F3F3F3",
",. c #F4F4F4",
"<. c gray96",
"1. c #F6F6F6",
"2. c #F8F8F8",
"3. c #F9F9F9",
"4. c gray98",
"5. c #FBFBFB",
"6. c gray99",
"7. c #FDFDFD",
"8. c #FEFEFE",
"9. c white",
/* pixels */
"            > 6 3 %             ",
"      # s J ] ..| / F t #       ",
"    0 U *.9.9.9.9.9.9.&.S %     ",
"  > ) 9.9.9.:.o.+.,.9.9.3.Z     ",
"  r &.9.:.I s 6 0 j U 3.9...0   ",
"  % F ~ x #         % I 9.9.b   ",
"    # %               b 3.9.C   ",
"                      M 9.9.V   ",
"                    6 / 9.3.x   ",
"            # > g Z ] 9.9.] 3   ",
"          x R | ,.9.9.9.+.x     ",
"        e #.9.9.9.9.9./ s       ",
"        3 ~ :.9.9.9.9.o.Z *     ",
"          : u m K o.9.9.9.J %   ",
"                  e W 9.9.,.x   ",
"                    > / 9.9.R # ",
"                      m 3.9.} > ",
"                      q #.9.o.6 ",
"  : u :               0 #.9. .3 ",
"% U ,.I %             b 3.9.~ % ",
"> ] 9.,.B #         e ] 9.9.C   ",
"  F 9.9.*.L k t u C  .9.9.] 3   ",
"  3 / 9.9.9.3.*.:.9.9.9.o.j     ",
"    6 U *.9.9.9.9.9.3._ g       ",
"      % g F Q _ ) R M >         ",
"            # % %               "
};
