/* XPM */
static char *_[] = {
/* columns rows colors chars-per-pixel */
"18 26 50 1 ",
"  c black",
". c #040404",
"X c gray4",
"o c gray6",
"O c #111111",
"+ c gray9",
"@ c #181818",
"# c #1D1D1D",
"$ c gray13",
"% c gray14",
"& c #2A2A2A",
"* c gray18",
"= c #353535",
"- c #3A3A3A",
"; c #3F3F3F",
": c gray26",
"> c #444444",
", c #484848",
"< c #4C4C4C",
"1 c gray35",
"2 c gray36",
"3 c #646464",
"4 c #6A6A6A",
"5 c #7C7C7C",
"6 c gray49",
"7 c #838383",
"8 c #868686",
"9 c gray53",
"0 c gray60",
"q c gray62",
"w c #A0A0A0",
"e c #A5A5A5",
"r c gray66",
"t c gray68",
"y c #B1B1B1",
"u c gray71",
"i c gray73",
"p c gray",
"a c LightGray",
"s c #D5D5D5",
"d c #D8D8D8",
"f c gray87",
"g c #E1E1E1",
"h c gray90",
"j c #E9E9E9",
"k c #EFEFEF",
"l c gray95",
"z c gray97",
"x c gray98",
"c c white",
/* pixels */
"cccccc      cccccc",
"cccc          cccc",
"ccc     .      ccc",
"cc   X;7eq6:X   cc",
"cc  *rkcccclw#  cc",
"cc Opccsrraccqo cc",
"cc otf6$..@8xk=  c",
"cc  +%     @ac1  c",
"cc         @ac1  c",
"ccc       @8xk=  c",
"cccc  .=4qscc0X cc",
"cccc  1kcccl8+  cc",
"cccc  <skcclq$   c",
"cccc   @*3pcci@  c",
"ccc       +0cc4  c",
"cc         $dcr. c",
"c       c  .rcpX c",
"c  $3%     .rcy. c",
"c  8cu@    -hc6  c",
"c  3ccr:%%2acf&  c",
"c  Owcclghxcj1   c",
"c   +6szcclp,   cc",
"cc    #:21;O    cc",
"ccc            ccc",
"cccc         ccccc",
"ccccccc    ccccccc"
};
