/* XPM */
static char *__alpha[] = {
/* columns rows colors chars-per-pixel */
"20 26 86 1 ",
"  c black",
". c #010101",
"X c #020202",
"o c gray1",
"O c #040404",
"+ c gray2",
"@ c #060606",
"# c #070707",
"$ c #101010",
"% c gray7",
"& c #131313",
"* c gray8",
"= c #151515",
"- c gray9",
"; c #181818",
": c #191919",
"> c #1B1B1B",
", c gray12",
"< c #232323",
"1 c gray14",
"2 c #252525",
"3 c #2D2D2D",
"4 c #313131",
"5 c gray22",
"6 c gray23",
"7 c #3F3F3F",
"8 c #434343",
"9 c #464646",
"0 c gray30",
"q c #505050",
"w c gray32",
"e c gray35",
"r c #5A5A5A",
"t c #5F5F5F",
"y c DimGray",
"u c #6C6C6C",
"i c #6D6D6D",
"p c gray43",
"a c gray44",
"s c #717171",
"d c #7B7B7B",
"f c gray50",
"g c #848484",
"h c #8D8D8D",
"j c #909090",
"k c #929292",
"l c #959595",
"z c #9B9B9B",
"x c #9D9D9D",
"c c #9F9F9F",
"v c #A2A2A2",
"b c #A4A4A4",
"n c #A7A7A7",
"m c gray66",
"M c #A9A9A9",
"N c gray67",
"B c #ACACAC",
"V c gray68",
"C c gray72",
"Z c #BCBCBC",
"A c #C0C0C0",
"S c #C3C3C3",
"D c gray78",
"F c #CBCBCB",
"G c gray81",
"H c gray82",
"J c #D5D5D5",
"K c #D7D7D7",
"L c #D8D8D8",
"P c #DADADA",
"I c gainsboro",
"U c #E2E2E2",
"Y c #E4E4E4",
"T c gray90",
"R c #E7E7E7",
"E c #E9E9E9",
"W c #EAEAEA",
"Q c gray93",
"! c gray97",
"~ c #F8F8F8",
"^ c gray98",
"/ c #FBFBFB",
"( c gray99",
") c #FDFDFD",
"_ c #FEFEFE",
"` c white",
/* pixels */
"                    ",
"           #=%      ",
"          7NJDy     ",
"         5P```U3    ",
"        %C````~0    ",
"        d`````~q    ",
"       7T`````~q    ",
"      =Z```````q    ",
"      f```````~0    ",
"     8E```````~q    ",
"    :A````~````0    ",
"    g````UN```~q    ",
"   wQ````hd```~r    ",
"  4I`````TE````Ph>  ",
"  x``````````````x# ",
" %F``````````````G% ",
" #k``````````````v# ",
"  =yzvnNBBH````Pl<  ",
"        # p```~r    ",
"          p```~q    ",
"          a```~q    ",
"          r```~9    ",
"          >A``A:    ",
"           1pa3     ",
"                    ",
"                    "
};
