/* XPM */
static char *__alpha[] = {
/* columns rows colors chars-per-pixel */
"19 26 99 2 ",
"   c black",
".  c #010101",
"X  c #020202",
"o  c gray1",
"O  c #040404",
"+  c #060606",
"@  c #070707",
"#  c gray3",
"$  c gray4",
"%  c #0B0B0B",
"&  c gray5",
"*  c gray6",
"=  c #101010",
"-  c #131313",
";  c #151515",
":  c gray9",
">  c #181818",
",  c #202020",
"<  c #232323",
"1  c #272727",
"2  c #282828",
"3  c gray18",
"4  c gray19",
"5  c #313131",
"6  c gray21",
"7  c gray22",
"8  c #3A3A3A",
"9  c gray23",
"0  c gray24",
"q  c #3F3F3F",
"w  c gray25",
"e  c #414141",
"r  c gray26",
"t  c #484848",
"y  c #494949",
"u  c #4E4E4E",
"i  c gray32",
"p  c gray33",
"a  c #555555",
"s  c #5B5B5B",
"d  c gray36",
"f  c #646464",
"g  c #656565",
"h  c #6C6C6C",
"j  c #717171",
"k  c gray45",
"l  c gray47",
"z  c gray48",
"x  c #808080",
"c  c gray52",
"v  c gray56",
"b  c #959595",
"n  c #9A9A9A",
"m  c gray61",
"M  c #9D9D9D",
"N  c #9F9F9F",
"B  c #A2A2A2",
"V  c gray64",
"C  c #A5A5A5",
"Z  c #A7A7A7",
"A  c gray66",
"S  c #AAAAAA",
"D  c #AEAEAE",
"F  c gray69",
"G  c gray70",
"H  c gray71",
"J  c #B9B9B9",
"K  c gray74",
"L  c #CACACA",
"P  c gray80",
"I  c #CECECE",
"U  c gray81",
"Y  c #D0D0D0",
"T  c gray82",
"R  c LightGray",
"E  c gray83",
"W  c gray84",
"Q  c gray85",
"!  c #DADADA",
"~  c gainsboro",
"^  c gray88",
"/  c gray89",
"(  c gray90",
")  c #EFEFEF",
"_  c gray94",
"`  c gray95",
"'  c #F3F3F3",
"]  c #F4F4F4",
"[  c gray96",
"{  c #F6F6F6",
"}  c gray97",
"|  c #F8F8F8",
" . c #F9F9F9",
".. c gray98",
"X. c #FBFBFB",
"o. c gray99",
"O. c #FDFDFD",
"+. c #FEFEFE",
"@. c white",
/* pixels */
"                      + : :           ",
"                    - c R U p         ",
"                  + v @.@.@.C         ",
"                  p ' @.@.@.A +       ",
"                , R @.@.@.@.C         ",
"              # n @.@.U | @.C +       ",
"              d [ @.U f [ @.A         ",
"            2 W @.[ d e [ @.A         ",
"          # B @.@.A # e | @.C         ",
"          f [ @.^ 5   e | @.C +       ",
"        3 ~ @.@.j     e [ @.A         ",
"      * A @.@.H -     e | @.C +       ",
"      h | @.( 9       e | @.C         ",
"    0 ( @.| k         e [ @.C +       ",
"  1 U @.@.Q i 0 9 6 5 f | @.H , :     ",
"+ M @.@.@.| [ [ [ ' ) ' @.@.[ ( W l # ",
": L @.@.@.@.@.@.@.@.@.@.@.@.@.@.@.Q , ",
"  9 x b M M C A F H J U @.@.) W U l # ",
"              + + +   y [ @.D : *     ",
"                      e [ @.C         ",
"                      e [ @.A         ",
"                      e | @.A +       ",
"                      y | @.A         ",
"                      6 ' @.B         ",
"                      * c K u         ",
"                        + #           "
};
