/* XPM */
static char *_[] = {
/* columns rows colors chars-per-pixel */
"20 26 47 1 ",
"  c #000000",
". c #070707",
"X c #0C0C0C",
"o c #101010",
"O c #232323",
"+ c #272727",
"@ c #292929",
"# c #2C2C2C",
"$ c #333333",
"% c #343434",
"& c #383838",
"* c #3F3F3F",
"= c #424242",
"- c #474747",
"; c #525252",
": c #5B5B5B",
"> c #5D5D5D",
", c #626262",
"< c #646464",
"1 c #686868",
"2 c #6C6C6C",
"3 c #707070",
"4 c #757575",
"5 c #7B7B7B",
"6 c #7E7E7E",
"7 c #919191",
"8 c #959595",
"9 c #9D9D9D",
"0 c #a3a3a3",
"q c #A5A5A5",
"w c #a8a8a8",
"e c #ACACAC",
"r c #B1B1B1",
"t c #b5b5b5",
"y c #BBBBBB",
"u c #c2c2c2",
"i c #c7c7c7",
"p c #D7D7D7",
"a c #D8D8D8",
"s c #dbdbdb",
"d c #E6E6E6",
"f c #e8e8e8",
"g c #EFEFEF",
"h c #f2f2f2",
"j c #F6F6F6",
"k c #F9F9F9",
"l c #ffffff",
/* pixels */
"llllllllllllllllllll",
"lllllllll       llll",
"llllllll    .    lll",
"lllllll   .:w5X  lll",
"lllllll   >hld@  lll",
"llllll   #allf#  lll",
"lllll   X0lhlf#  lll",
"lllll   <kg7jf#  lll",
"llll   #al8-jf#  lll",
"lll   owlpO*kf#  lll",
"lll   1kk, =lf#  lll",
"ll   %slqX =kf#  lll",
"l   oela#  *kf#   ll",
"l  .6kk2.. -kf#    l",
"   ;hlkiyteulky8&   ",
"   8llllllllllll9   ",
"   +<3345550kjr8*   ",
"l          =kf#    l",
"lll        *kf#   ll",
"llllllll   =kf#  lll",
"llllllll   -kd#  lll",
"llllllll   @apO  lll",
"lllllllll  .%%.  lll",
"lllllllll        lll",
"llllllllllllllllllll",
"llllllllllllllllllll"
};
