/* XPM */
static char *__alpha[] = {
/* columns rows colors chars-per-pixel */
"17 26 130 2 ",
"   c black",
".  c #010101",
"X  c #020202",
"o  c gray1",
"O  c #040404",
"+  c #060606",
"@  c #070707",
"#  c gray3",
"$  c #090909",
"%  c gray4",
"&  c #0B0B0B",
"*  c #0C0C0C",
"=  c gray5",
"-  c gray6",
";  c #101010",
":  c #111111",
">  c gray7",
",  c #131313",
"<  c gray8",
"1  c #151515",
"2  c #161616",
"3  c #181818",
"4  c #191919",
"5  c gray10",
"6  c gray11",
"7  c gray13",
"8  c #232323",
"9  c #252525",
"0  c #272727",
"q  c #282828",
"w  c gray16",
"e  c gray17",
"r  c #2C2C2C",
"t  c gray18",
"y  c #2F2F2F",
"u  c gray19",
"i  c #323232",
"p  c gray20",
"a  c #353535",
"s  c gray22",
"d  c #393939",
"f  c gray23",
"g  c #3E3E3E",
"h  c #3F3F3F",
"j  c #434343",
"k  c gray28",
"l  c #484848",
"z  c #494949",
"x  c gray30",
"c  c gray31",
"v  c #505050",
"b  c #535353",
"n  c gray33",
"m  c gray34",
"M  c #585858",
"N  c #5A5A5A",
"B  c #5B5B5B",
"V  c #626262",
"C  c gray39",
"Z  c #656565",
"A  c gray42",
"S  c #747474",
"D  c gray46",
"F  c #797979",
"G  c gray48",
"H  c #7B7B7B",
"J  c #7C7C7C",
"K  c gray52",
"L  c #868686",
"P  c gray55",
"I  c gray57",
"U  c #959595",
"Y  c #979797",
"T  c gray60",
"R  c #9B9B9B",
"E  c gray61",
"W  c #A0A0A0",
"Q  c gray63",
"!  c #A5A5A5",
"~  c gray65",
"^  c #ACACAC",
"/  c gray68",
"(  c #B1B1B1",
")  c #B6B6B6",
"_  c #B7B7B7",
"`  c #B9B9B9",
"'  c gray73",
"]  c gray74",
"[  c gray",
"{  c gray75",
"}  c #C0C0C0",
"|  c #C1C1C1",
" . c gray76",
".. c gray77",
"X. c #C5C5C5",
"o. c #C8C8C8",
"O. c gray79",
"+. c #CBCBCB",
"@. c gray80",
"#. c #CDCDCD",
"$. c #D0D0D0",
"%. c LightGray",
"&. c #D5D5D5",
"*. c gray84",
"=. c #D8D8D8",
"-. c gray85",
";. c #DDDDDD",
":. c gray87",
">. c #E4E4E4",
",. c #E6E6E6",
"<. c #E7E7E7",
"1. c gray91",
"2. c #E9E9E9",
"3. c #EAEAEA",
"4. c gray92",
"5. c gray93",
"6. c #EEEEEE",
"7. c #EFEFEF",
"8. c gray94",
"9. c gray95",
"0. c #F3F3F3",
"q. c #F6F6F6",
"w. c gray97",
"e. c #F9F9F9",
"r. c gray98",
"t. c #FBFBFB",
"y. c gray99",
"u. c #FDFDFD",
"i. c #FEFEFE",
"p. c white",
/* pixels */
"    $ $   + + + $ = = $ $ 5 =     ",
"  z ) ` ^ ^ ( ` ] | ] ` ] *.~ 2   ",
"  F p.p.p.p.p.p.p.p.p.p.p.p.0.f   ",
"  g 0.p.p.0.5.3.3.,.3.5.3.-.P ;   ",
"  e 3.p.%.g i e e 0 e t e 5       ",
"  i 5.p.) $                       ",
"  g w.p.W                         ",
"  v p.p.K   t B F K F c 5         ",
"  Z p.p.U E ,.p.p.p.p.r.o.k       ",
"  F p.p.w.p.p.p.p.p.p.p.p.,.j     ",
"  I p.p.p.p.,.E A B D @.p.p.| ;   ",
"+ ~ p.p.p.o.f         0 o.p.r.B   ",
"+ ) p.p.%.t             C p.p.T   ",
"+ U p.*.g               e ,.p...= ",
"  5 v e                 ; *.p.-.6 ",
"                        ; o.p.;.8 ",
"                        2 *.p.-.6 ",
"                        i 5.p...= ",
"                        J p.p.T   ",
"  f F t               i ;.p.r.v   ",
"2 o.p.o.e           t | p.p.| ;   ",
"; ] p.p...B e 0 i S *.p.p.3.z     ",
"  k >.p.p.r.3.>.0.p.p.p.5.C       ",
"    z o.p.p.p.p.p.p.r.o.c         ",
"      5 Z W | ..` U B 2           ",
"            $ ; $ +               "
};
