/* XPM */
static char *_[] = {
/* columns rows colors chars-per-pixel */
"19 26 54 1 ",
"  c black",
". c #040404",
"X c #090909",
"o c gray6",
"O c gray7",
"+ c #161616",
"@ c #1B1B1B",
"# c gray12",
"$ c #202020",
"% c #272727",
"& c gray18",
"* c gray21",
"= c gray23",
"- c gray26",
"; c #444444",
": c #4C4C4C",
"> c #4E4E4E",
", c #555555",
"< c #585858",
"1 c gray37",
"2 c gray38",
"3 c gray40",
"4 c #6A6A6A",
"5 c #6F6F6F",
"6 c #727272",
"7 c #777777",
"8 c gray47",
"9 c #7C7C7C",
"0 c gray51",
"q c gray54",
"w c gray56",
"e c #929292",
"r c gray60",
"t c #A5A5A5",
"y c gray67",
"u c #AFAFAF",
"i c gray69",
"p c gray73",
"a c gray75",
"s c #C3C3C3",
"d c gray77",
"f c #CACACA",
"g c #CDCDCD",
"h c LightGray",
"j c gray86",
"k c gray87",
"l c #E1E1E1",
"z c #E7E7E7",
"x c gray92",
"c c #EEEEEE",
"v c #F3F3F3",
"b c #F6F6F6",
"n c #F8F8F8",
"m c white",
/* pixels */
"mmm             mmm",
"mm               mm",
"mm               mm",
"mm @585679099e3X mm",
"mm ;nmmmmmmmmml$ mm",
"mm #jmzfdsasdi2X mm",
"mm @hm0ooXXooX   mm",
"mm $km2          mm",
"mm &xn;+-24,%    mm",
"mm =vbrgbmmmk6o  mm",
"m  >nmmmbjhxmb4  mm",
"m  2mmmp;#+*pmk%  m",
"m  7mmu@    *xm2  m",
"m  <xi$     oamw  m",
"m  X&+   mm  tmt. m",
"m       mmm  tmt. m",
"m       mm  Odmw  m",
"m  .O       >bm1  m",
"m  <d3.    %smj$  m",
"m  wmc5%+#,fmb4  mm",
"m  &hmmkgjnmnqo  mm",
"m   &ycmmmbf2X   mm",
"mm   X*152-@    mmm",
"mm             mmmm",
"mmmm          mmmmm",
"mmmmmmm   mmmmmmmmm"
};
