/* XPM */
static char *__alpha[] = {
/* columns rows colors chars-per-pixel */
"17 26 121 2 ",
"   c black",
".  c #010101",
"X  c #020202",
"o  c gray1",
"O  c #040404",
"+  c gray2",
"@  c #060606",
"#  c #070707",
"$  c gray3",
"%  c #0C0C0C",
"&  c #0E0E0E",
"*  c gray6",
"=  c #111111",
"-  c gray7",
";  c gray8",
":  c #151515",
">  c #161616",
",  c gray9",
"<  c #181818",
"1  c #191919",
"2  c #1B1B1B",
"3  c gray11",
"4  c #1D1D1D",
"5  c #1E1E1E",
"6  c gray12",
"7  c #202020",
"8  c gray13",
"9  c #222222",
"0  c #232323",
"q  c #252525",
"w  c #2A2A2A",
"e  c gray17",
"r  c #2D2D2D",
"t  c gray18",
"y  c #2F2F2F",
"u  c gray19",
"i  c #313131",
"p  c #323232",
"a  c #343434",
"s  c #353535",
"d  c gray21",
"f  c #393939",
"g  c #3A3A3A",
"h  c gray23",
"j  c #3F3F3F",
"k  c gray25",
"l  c #434343",
"z  c #484848",
"x  c #4B4B4B",
"c  c #505050",
"v  c gray34",
"b  c #585858",
"n  c #626262",
"m  c gray39",
"M  c #6D6D6D",
"N  c #717171",
"B  c #767676",
"V  c #797979",
"C  c #808080",
"Z  c #848484",
"A  c gray55",
"S  c #8E8E8E",
"D  c #909090",
"F  c gray57",
"G  c #929292",
"H  c #9D9D9D",
"J  c gray62",
"K  c gray63",
"L  c gray64",
"P  c gray67",
"I  c #AEAEAE",
"U  c gray69",
"Y  c #B2B2B2",
"T  c gray70",
"R  c #B4B4B4",
"E  c gray71",
"W  c #B6B6B6",
"Q  c #B9B9B9",
"!  c gray73",
"~  c #BBBBBB",
"^  c #BCBCBC",
"/  c gray",
"(  c gray75",
")  c gray76",
"_  c #C6C6C6",
"`  c #C8C8C8",
"'  c gray79",
"]  c #CACACA",
"[  c #CBCBCB",
"{  c gray80",
"}  c #CECECE",
"|  c gray81",
" . c #D2D2D2",
".. c gray83",
"X. c #D5D5D5",
"o. c gray84",
"O. c #D7D7D7",
"+. c #D8D8D8",
"@. c gray85",
"#. c gainsboro",
"$. c #DDDDDD",
"%. c gray87",
"&. c #DFDFDF",
"*. c gray88",
"=. c #E2E2E2",
"-. c gray89",
";. c #E6E6E6",
":. c #E7E7E7",
">. c #E9E9E9",
",. c #EAEAEA",
"<. c gray92",
"1. c #EEEEEE",
"2. c #EFEFEF",
"3. c gray94",
"4. c #F4F4F4",
"5. c gray96",
"6. c #F9F9F9",
"7. c gray98",
"8. c gray99",
"9. c #FEFEFE",
"0. c white",
/* pixels */
"                  * :             ",
"                a W _ j           ",
"              g O.9.9.B           ",
"            j O.9.9._ 8           ",
"          k $.9.9.` r             ",
"        u O.9.9.) w               ",
"      < ~ 9.9.~ q                 ",
"      C 9.9.^ 8                   ",
"    u -.9.-.u                     ",
"  # G 9.9.V # 5 a a 8 %           ",
"  8 $.9.3.V J @.3.3.-.) N <       ",
"  v 9.9.9.7.9.9.9.9.9.9.9.^ w     ",
"  A 9.9.9.9.2. .` O.2.9.9.9.~ :   ",
"% T 9.9.2.G a : * : a G 5.9.9.m   ",
"- ` 9.3.c             # A 9.9.I # ",
"< O.9.*.5               r <.9. .< ",
"< O.9.*.8               : @.9.$.q ",
"- ` 9.<.w               : @.9.$.8 ",
"% T 9.7.x               w <.9.` : ",
"  C 9.9.A               m 9.9.L # ",
"  k 5.9.*.r           5 ` 9.7.b   ",
"  * T 9.9.) a #   # u T 9.9.~ -   ",
"    g $.9.9.-.W L W -.9.9.O.a     ",
"      z  .9.9.9.9.9.9.7.^ a       ",
"        5 M P _ } ) J v -         ",
"            # - : *               "
};
