/* XPM */
static char *_[] = {
/* columns rows colors chars-per-pixel */
"18 26 50 1 ",
"  c black",
". c #040404",
"X c gray4",
"o c #0C0C0C",
"O c gray7",
"+ c gray9",
"@ c #191919",
"# c #1E1E1E",
"$ c #232323",
"% c #2D2D2D",
"& c #313131",
"* c #373737",
"= c #414141",
"- c gray28",
"; c gray30",
": c #505050",
"> c #565656",
", c #5B5B5B",
"< c #656565",
"1 c #686868",
"2 c gray44",
"3 c #767676",
"4 c #7B7B7B",
"5 c #7C7C7C",
"6 c #818181",
"7 c gray52",
"8 c #8D8D8D",
"9 c #929292",
"0 c gray58",
"q c #989898",
"w c gray61",
"e c #A0A0A0",
"r c #A4A4A4",
"t c #AFAFAF",
"y c gray69",
"u c gray71",
"i c #B9B9B9",
"p c gray74",
"a c #C0C0C0",
"s c gray77",
"d c #CBCBCB",
"f c #CECECE",
"g c gray84",
"h c gray89",
"j c #E7E7E7",
"k c #EFEFEF",
"l c gray95",
"z c gray97",
"x c #F8F8F8",
"c c white",
/* pixels */
"cccccccccccccccccc",
"ccccccc      ccccc",
"cccccc   ..   cccc",
"ccccc   X2e$  cccc",
"cccc   X6xz-  cccc",
"ccc   X6xc9o  cccc",
"cc   .3zcqO   cccc",
"cc   :kc0O   ccccc",
"c   #dceO    ccccc",
"c   3cg$       ccc",
"c  +dc9:0r9,@    c",
"   -zcjxcccxs*   c",
"   3ccxguugxcs#   ",
"   wch2#.X#4zc1   ",
"  .yc8     Xtce.  ",
"  Xyc7      5cio  ",
"  .rc0      4ciX  ",
"   7cpo    .wcw   ",
"   :xk=    %hc<   ",
"   @dca&.X%ycf#   ",
"c   :kchuuhcj;   c",
"c   .>dzccli-    c",
"cc    +=,>*o    cc",
"ccc           cccc",
"cccccccccccccccccc",
"cccccccccccccccccc"
};
