/* XPM */
static char *__alpha[] = {
/* columns rows colors chars-per-pixel */
"21 26 96 2 ",
"   c black",
".  c #010101",
"X  c #020202",
"o  c gray1",
"O  c #040404",
"+  c gray2",
"@  c #060606",
"#  c gray3",
"$  c #0B0B0B",
"%  c #0E0E0E",
"&  c gray6",
"*  c #101010",
"=  c gray7",
"-  c #131313",
";  c gray8",
":  c #161616",
">  c #181818",
",  c #191919",
"<  c gray10",
"1  c #1B1B1B",
"2  c gray11",
"3  c #1D1D1D",
"4  c gray12",
"5  c gray13",
"6  c #232323",
"7  c gray15",
"8  c #282828",
"9  c gray16",
"0  c gray18",
"q  c gray19",
"w  c #353535",
"e  c gray22",
"r  c #4B4B4B",
"t  c gray30",
"y  c #4E4E4E",
"u  c #515151",
"i  c #535353",
"p  c #5B5B5B",
"a  c gray36",
"s  c gray37",
"d  c gray38",
"f  c gray40",
"g  c DimGray",
"h  c #6C6C6C",
"j  c #727272",
"k  c #797979",
"l  c #7B7B7B",
"z  c gray50",
"x  c gray51",
"c  c #898989",
"v  c #8B8B8B",
"b  c gray56",
"n  c gray59",
"m  c #9A9A9A",
"M  c #A2A2A2",
"N  c #A5A5A5",
"B  c #A9A9A9",
"V  c gray67",
"C  c #ACACAC",
"Z  c gray68",
"A  c #AFAFAF",
"S  c #B2B2B2",
"D  c gray70",
"F  c gray72",
"G  c gray74",
"H  c gray75",
"J  c #C1C1C1",
"K  c gray76",
"L  c #C6C6C6",
"P  c gray78",
"I  c #C8C8C8",
"U  c gray79",
"Y  c gray80",
"T  c #CDCDCD",
"R  c #D0D0D0",
"E  c #D2D2D2",
"W  c #DADADA",
"Q  c gainsboro",
"!  c #DFDFDF",
"~  c #E2E2E2",
"^  c #E4E4E4",
"/  c #E6E6E6",
"(  c #E7E7E7",
")  c #E9E9E9",
"_  c #EAEAEA",
"`  c gray92",
"'  c #F1F1F1",
"]  c #F4F4F4",
"[  c gray96",
"{  c #F6F6F6",
"}  c gray97",
"|  c gray98",
" . c #FBFBFB",
".. c gray99",
"X. c #FEFEFE",
"o. c white",
/* pixels */
"                                          ",
"        & = = & # # @ @ @   @ @           ",
"    : c L T U L K G F S Z B B B N k 4     ",
"    x o.o.o.o.o.o.o.o.o.o.o.o.o.o.o.m @   ",
"  @ F o.o.o.o.o.o.o.o.o.o.o.o.o.o.o.L &   ",
"    c o.o.o.o.o.o.o.o.o.o.o.o.o.o.o.c     ",
"    4 n E Q Q ~ ~ / _ o.o.o.o.o.o.U 5     ",
"      @ : < 5 5 7 8 h { o.o.o.o.W e       ",
"                  & F o.o.o.o._ y         ",
"                  f  .o.o.o. .k @         ",
"                < T o.o.o.o.G =           ",
"                g  .o.o.o.{ y             ",
"              = K o.o.o.o.S &             ",
"              r { o.o.o.{ i               ",
"            @ M o.o.o.o.G =               ",
"            0 / o.o.o. .d                 ",
"            z o.o.o.o.U :                 ",
"          < E o.o.o.o.k                   ",
"          p  .o.o.o._ q                   ",
"        # Z o.o.o.o.Z #                   ",
"        8 / o.o.o. .s                     ",
"        w ' o.o.o.T <                     ",
"        & Z o.o.' p                       ",
"          < j b i @                       ",
"                                          ",
"                                          "
};
