/* XPM */
static char *__alpha[] = {
/* columns rows colors chars-per-pixel */
"19 26 114 2 ",
"   c #000000",
".  c #010101",
"X  c #020202",
"o  c #030303",
"O  c #040404",
"+  c #050505",
"@  c #060606",
"#  c #070707",
"$  c #080808",
"%  c #090909",
"&  c #0a0a0a",
"*  c #0B0B0B",
"=  c #0C0C0C",
"-  c #0d0d0d",
";  c #101010",
":  c #111111",
">  c #121212",
",  c #131313",
"<  c #161616",
"1  c #171717",
"2  c #181818",
"3  c #191919",
"4  c #1B1B1B",
"5  c #212121",
"6  c #232323",
"7  c #262626",
"8  c #272727",
"9  c #282828",
"0  c #292929",
"q  c #2F2F2F",
"w  c #303030",
"e  c #313131",
"r  c #333333",
"t  c #373737",
"y  c #393939",
"u  c #3A3A3A",
"i  c #3C3C3C",
"p  c #3d3d3d",
"a  c #3F3F3F",
"s  c #454545",
"d  c #494949",
"f  c #4f4f4f",
"g  c #565656",
"h  c #5A5A5A",
"j  c #5B5B5B",
"k  c #606060",
"l  c #626262",
"z  c #646464",
"x  c #676767",
"c  c #6e6e6e",
"v  c #757575",
"b  c #777777",
"n  c #797979",
"m  c #808080",
"M  c #838383",
"N  c #848484",
"B  c #868686",
"V  c #898989",
"C  c #8a8a8a",
"Z  c #8f8f8f",
"A  c #919191",
"S  c #989898",
"D  c #9A9A9A",
"F  c #9B9B9B",
"G  c #9e9e9e",
"H  c #a1a1a1",
"J  c #A2A2A2",
"K  c #A4A4A4",
"L  c #A9A9A9",
"P  c #adadad",
"I  c #B1B1B1",
"U  c #b3b3b3",
"Y  c #B7B7B7",
"T  c #BBBBBB",
"R  c #bebebe",
"E  c #bfbfbf",
"W  c #C1C1C1",
"Q  c #c2c2c2",
"!  c #c4c4c4",
"~  c #C5C5C5",
"^  c #C6C6C6",
"/  c #c9c9c9",
"(  c #CACACA",
")  c #cccccc",
"_  c #CDCDCD",
"`  c #d1d1d1",
"'  c #d4d4d4",
"]  c #D5D5D5",
"[  c #d6d6d6",
"{  c #D7D7D7",
"}  c #D8D8D8",
"|  c #dbdbdb",
" . c #dcdcdc",
".. c #E1E1E1",
"X. c #E4E4E4",
"o. c #E6E6E6",
"O. c #E9E9E9",
"+. c #ebebeb",
"@. c #ECECEC",
"#. c #ededed",
"$. c #EEEEEE",
"%. c #EFEFEF",
"&. c #f0f0f0",
"*. c #F1F1F1",
"=. c #f2f2f2",
"-. c #F3F3F3",
";. c #F4F4F4",
":. c #F6F6F6",
">. c #fafafa",
",. c #FBFBFB",
"<. c #fcfcfc",
"1. c #FDFDFD",
"2. c #FEFEFE",
"3. c #ffffff",
/* pixels */
"                                      ",
"                @ - *                 ",
"          @ y N U ~ W J x 4           ",
"        ; N O.1.1.1.1.1.1.~ y         ",
"      - F 1.1.1.1.1.1.1.1.1._ 6       ",
"      x ,.1.1.1.1.1.1.1.1.1.1.n       ",
"    ; ~ 1.1.1.1.[ U _ 1.1.1.1.R *     ",
"    w @.1.1.1.' 7 @ 0 X.1.1.1.[ 4     ",
"    s :.1.1.1.U @   6  .1.1.1. .4     ",
"    w @.1.1.1.=.A c W 1.1.1.1._ ;     ",
"    ; ( 1.1.1.1.1.1.1.1.1.1.1.A       ",
"      l ,.1.1.1.1.1.1.1.1.1. .0       ",
"      s @.1.1.1.1.1.1.1.1.1.@.l       ",
"    1 W 1.1.1.1.1.1.1.1.1.1.1.X.t     ",
"    h ,.1.1.1.1._ C ~ 1.1.1.1.1.C     ",
"    F 1.1.1.1.J 4   1 G 1.1.1.1.R *   ",
"  * U 1.1.1.=.t       y =.1.1.1.[ 4   ",
"  @ W 1.1.1.O.q       p :.1.1.1.[ 1   ",
"  @ P 1.1.1.1.K p 7 y K 1.1.1.1.W -   ",
"    b 1.1.1.1.1.=.X.=.1.1.1.1.1.N     ",
"    7 [ 1.1.1.1.1.1.1.1.1.1.1.} 0     ",
"      g X.1.1.1.1.1.1.1.1.1. .d       ",
"        y L O.1.1.1.1.,.X.J w         ",
"          * w j b m b g 0 @           ",
"                                      ",
"                                      "
};
