/* XPM */
static char *__alpha[] = {
/* columns rows colors chars-per-pixel */
"17 26 130 2 ",
"   c black",
".  c #010101",
"X  c #020202",
"o  c gray1",
"O  c #040404",
"+  c gray2",
"@  c #060606",
"#  c #070707",
"$  c gray3",
"%  c #090909",
"&  c gray4",
"*  c #0B0B0B",
"=  c #0C0C0C",
"-  c gray5",
";  c #0E0E0E",
":  c gray6",
">  c #101010",
",  c #111111",
"<  c #131313",
"1  c gray8",
"2  c #161616",
"3  c gray11",
"4  c #1D1D1D",
"5  c #1E1E1E",
"6  c #202020",
"7  c gray13",
"8  c #222222",
"9  c gray14",
"0  c #252525",
"q  c gray15",
"w  c #272727",
"e  c #2A2A2A",
"r  c gray17",
"t  c #2D2D2D",
"y  c #2F2F2F",
"u  c #313131",
"i  c #343434",
"p  c #393939",
"a  c gray24",
"s  c #3E3E3E",
"d  c #414141",
"f  c #434343",
"g  c gray28",
"h  c #494949",
"j  c gray29",
"k  c #4C4C4C",
"l  c #4E4E4E",
"z  c #535353",
"x  c #555555",
"c  c #585858",
"v  c gray35",
"b  c gray36",
"n  c gray37",
"m  c #606060",
"M  c gray39",
"N  c #676767",
"B  c #686868",
"V  c DimGray",
"C  c gray42",
"Z  c #6F6F6F",
"A  c gray44",
"S  c #727272",
"D  c #747474",
"F  c gray46",
"G  c #7B7B7B",
"H  c #868686",
"J  c gray53",
"K  c #8B8B8B",
"L  c gray55",
"P  c #8E8E8E",
"I  c #959595",
"U  c gray59",
"Y  c #9A9A9A",
"T  c #9D9D9D",
"R  c gray62",
"E  c #A2A2A2",
"W  c #A5A5A5",
"Q  c gray65",
"!  c #A7A7A7",
"~  c #A9A9A9",
"^  c gray68",
"/  c #AFAFAF",
"(  c gray71",
")  c #B6B6B6",
"_  c gray73",
"`  c gray74",
"'  c #C0C0C0",
"]  c #C1C1C1",
"[  c #C3C3C3",
"{  c gray77",
"}  c #C6C6C6",
"|  c gray78",
" . c #C8C8C8",
".. c gray79",
"X. c gray80",
"o. c #CDCDCD",
"O. c #CECECE",
"+. c gray81",
"@. c #D0D0D0",
"#. c gray82",
"$. c #D2D2D2",
"%. c gray83",
"&. c #D5D5D5",
"*. c gray85",
"=. c #DDDDDD",
"-. c gray87",
";. c gray88",
":. c #E1E1E1",
">. c gray89",
",. c #E4E4E4",
"<. c #E6E6E6",
"1. c gray91",
"2. c #EAEAEA",
"3. c gray92",
"4. c gray93",
"5. c #EEEEEE",
"6. c #EFEFEF",
"7. c gray94",
"8. c gray95",
"9. c #F3F3F3",
"0. c #F4F4F4",
"q. c #F6F6F6",
"w. c gray97",
"e. c #F8F8F8",
"r. c #F9F9F9",
"t. c gray98",
"y. c #FBFBFB",
"u. c gray99",
"i. c #FEFEFE",
"p. c white",
/* pixels */
"              - < < @             ",
"        @ s P `  .} / F 8         ",
"      < K 6.p.p.p.p.p.p.%.d       ",
"    - T p.p.0.$.[  .6.p.p.$.8     ",
"    N t.p.$.l 1 * - s o.p.p.Z     ",
"  - [ p.8.h           b p.p.~     ",
"  t 2.p. .-           t 6.p.} -   ",
"  p 8.p.( @           e 2.p. .-   ",
"  t 6.p.%.3           N t.p.( @   ",
"  < } p.p.Q q     < b ;.p.p.F     ",
"    m 0.p.p.-.I H  .t.p.p.Q 1     ",
"    * G 8.p.p.p.p.p.p.t.H <       ",
"      d -.p.p.p.p.p.p.p. .z @     ",
"    h ,.p.p.8.E V / 6.p.p.8.S     ",
"  3 $.p.p.} g @   @ d [ p.p.6.d   ",
"  V p.p.} 8           8 } p.p.Y   ",
"@ Q p.t.v               b p.p.o.1 ",
"- } p.,.e               i 6.p.;.q ",
"1 $.p.-.3               t 6.p.;.e ",
"<  .p.2.t               h t.p.*.3 ",
"@ Q p.p.P @           @ T p.p./ * ",
"  x t.p.0.I i < * < t P 0.p.0.x   ",
"  - T p.p.p.6.o.[  .2.p.p.p.P @   ",
"    1 H ,.p.p.p.p.p.p.p.-.S -     ",
"      @ t F Q ` [ _ T N q         ",
"              - - *               "
};
