/* XPM */
static char *_[] = {
/* columns rows colors chars-per-pixel */
"19 26 54 1 ",
"  c black",
". c #040404",
"X c #090909",
"o c gray6",
"O c #111111",
"+ c #151515",
"@ c #191919",
"# c #1E1E1E",
"$ c gray13",
"% c gray16",
"& c #2C2C2C",
"* c gray20",
"= c gray21",
"- c #3A3A3A",
"; c #3E3E3E",
": c #434343",
"> c gray27",
", c gray29",
"< c #4E4E4E",
"1 c #565656",
"2 c gray36",
"3 c #606060",
"4 c gray40",
"5 c gray42",
"6 c #6F6F6F",
"7 c #727272",
"8 c gray46",
"9 c gray49",
"0 c #808080",
"q c gray53",
"w c gray55",
"e c #909090",
"r c #9A9A9A",
"t c #A5A5A5",
"y c #A9A9A9",
"u c #AEAEAE",
"i c gray69",
"p c gray73",
"a c gray74",
"s c #C0C0C0",
"d c gray78",
"f c #CECECE",
"g c #D2D2D2",
"h c gray84",
"j c #D8D8D8",
"k c #DFDFDF",
"l c gray89",
"z c gray90",
"x c #E9E9E9",
"c c gray93",
"v c #F1F1F1",
"b c gray96",
"n c #F9F9F9",
"m c white",
/* pixels */
"mmmmmmm      mmmmmm",
"mmmmm          mmmm",
"mmmm            mmm",
"mmm   o>9ew5%   mmm",
"mm   %ybmmmmk2   mm",
"mm  #smlr9ejmz*  mm",
"mm  9mk;   =lm9  mm",
"mm osme    .umt. mm",
"mm @hm7     ymu. mm",
"mm OdmuO   =kme  mm",
"mm  9mnu,=7hml;  mm",
"mm  @tnmbvmmf:   mm",
"mm  .4vmmbmmk5o  mm",
"mm  3cml9:0jmnqX  m",
"m  $hms=   &amv:  m",
"m  2mc:     -cmq  m",
"m  9mfO     +fmt  m",
"m  qmso     +gmt. m",
"m  6mz*     ;vmq  m",
"m  =xmd>+o+:amx-  m",
"m  .8bmbgsgvmv7.  m",
"mm  .1pxnmnzi,.  mm",
"mm    o&><>%X    mm",
"mmm             mmm",
"mmmmm         mmmmm",
"mmmmmmmmmmmmmmmmmmm"
};
