/* XPM */
static char *__alpha[] = {
/* columns rows colors chars-per-pixel */
"19 26 112 2 ",
"   c black",
".  c #010101",
"X  c #020202",
"o  c gray1",
"O  c gray2",
"+  c #060606",
"@  c #070707",
"#  c gray3",
"$  c #090909",
"%  c gray4",
"&  c #0B0B0B",
"*  c #0E0E0E",
"=  c gray6",
"-  c #101010",
";  c gray7",
":  c #131313",
">  c gray8",
",  c #161616",
"<  c gray9",
"1  c #191919",
"2  c gray10",
"3  c #1B1B1B",
"4  c #1D1D1D",
"5  c #1E1E1E",
"6  c #222222",
"7  c #282828",
"8  c gray16",
"9  c #323232",
"0  c #3C3C3C",
"q  c #3E3E3E",
"w  c #3F3F3F",
"e  c gray26",
"r  c #434343",
"t  c #444444",
"y  c gray27",
"u  c gray28",
"i  c #494949",
"p  c gray29",
"a  c gray33",
"s  c #555555",
"d  c #5B5B5B",
"f  c #626262",
"g  c #656565",
"h  c gray40",
"j  c #686868",
"k  c #6D6D6D",
"l  c #717171",
"z  c gray45",
"x  c gray47",
"c  c #7B7B7B",
"v  c #7C7C7C",
"b  c gray49",
"n  c #7E7E7E",
"m  c #838383",
"M  c gray53",
"N  c gray54",
"B  c #909090",
"V  c gray57",
"C  c #929292",
"Z  c #959595",
"A  c #9A9A9A",
"S  c #A0A0A0",
"D  c #A4A4A4",
"F  c gray65",
"G  c gray66",
"H  c #AAAAAA",
"J  c gray68",
"K  c #AFAFAF",
"L  c gray69",
"P  c gray71",
"I  c gray72",
"U  c #BCBCBC",
"Y  c gray",
"T  c gray75",
"R  c #C3C3C3",
"E  c gray78",
"W  c #C8C8C8",
"Q  c gray79",
"!  c #CACACA",
"~  c #CBCBCB",
"^  c #CDCDCD",
"/  c gray81",
"(  c #D2D2D2",
")  c gray84",
"_  c #D7D7D7",
"`  c #D8D8D8",
"'  c gray85",
"]  c gainsboro",
"[  c #DDDDDD",
"{  c gray87",
"}  c #E1E1E1",
"|  c #E2E2E2",
" . c #E4E4E4",
".. c #E6E6E6",
"X. c #E7E7E7",
"o. c gray91",
"O. c #E9E9E9",
"+. c #EAEAEA",
"@. c gray93",
"#. c #EEEEEE",
"$. c #F1F1F1",
"%. c gray95",
"&. c #F3F3F3",
"*. c #F4F4F4",
"=. c gray96",
"-. c #F6F6F6",
";. c gray97",
":. c gray98",
">. c gray99",
",. c #FDFDFD",
"<. c #FEFEFE",
"1. c white",
/* pixels */
"                                      ",
"              O : 4 1 &               ",
"          1 g H / ] ' Y x 4           ",
"        p Q 1.1.1.1.1.1.1./ r         ",
"      p ..1.1.1.1.1.1.1.1.1.] q       ",
"    1 Q 1.1.1.1.1.1.1.1.1.1.1.R >     ",
"    f 1.1.1.1...A v I 1.1.1.1.1.g     ",
"  O S 1.1.1.-.d     > S 1.1.1.1.K &   ",
"  & Y 1.1.1.) 1       8 | 1.1.1.( >   ",
"  * E 1.1.1./ :       O Y 1.1.1.] 4   ",
"  & Y 1.1.1.@.y       0 ] 1.1.1.) 1   ",
"    C 1.1.1.1.] N g C ..1.1.1.1.Q :   ",
"    y &.1.1.1.1.1.1.1.1.1.1.1.1.K O   ",
"    O C 1.1.1.1.1.1.1.1.1.1.1.1.v     ",
"      > Z -.1.1.1.1.1.1.1.1.1.-.r     ",
"        & a K | &.&.1.1.1.1.1.E :     ",
"            & 6 q Z :.1.1.1.1.z       ",
"              4 c ..1.1.1.1./ 1       ",
"        * r N ) 1.1.1.1.1.&.a         ",
"      8 P -.1.1.1.1.1.1.-.c O         ",
"      C 1.1.1.1.1.1.1.+.z &           ",
"    O F 1.1.1.1.1.&.K q               ",
"      a @.1.1.+.H p &                 ",
"      O p m k 9 O                     ",
"                                      ",
"                                      "
};
