/* XPM */
static char *_[] = {
/* columns rows colors chars-per-pixel */
"19 26 53 1 ",
"  c #000000",
". c #040404",
"X c #0B0B0B",
"o c #0C0C0C",
"O c #121212",
"+ c #151515",
"@ c #1a1a1a",
"# c #1c1c1c",
"$ c #2A2A2A",
"% c #2e2e2e",
"& c #303030",
"* c #363636",
"= c #3d3d3d",
"- c #424242",
"; c #454545",
": c #4E4E4E",
"> c #515151",
", c #555555",
"< c #636363",
"1 c #676767",
"2 c #6D6D6D",
"3 c #737373",
"4 c #747474",
"5 c #787878",
"6 c #7C7C7C",
"7 c #828282",
"8 c #848484",
"9 c #888888",
"0 c #8E8E8E",
"q c #9A9A9A",
"w c #9c9c9c",
"e c #A2A2A2",
"r c #a6a6a6",
"t c #ababab",
"y c #ACACAC",
"u c #b0b0b0",
"i c #B6B6B6",
"p c #b8b8b8",
"a c #bdbdbd",
"s c #C1C1C1",
"d c #c4c4c4",
"f c #CBCBCB",
"g c #d3d3d3",
"h c #d6d6d6",
"j c #DADADA",
"k c #DFDFDF",
"l c #E2E2E2",
"z c #E7E7E7",
"x c #ededed",
"c c #f2f2f2",
"v c #f5f5f5",
"b c #F9F9F9",
"n c #ffffff",
/* pixels */
"nnnnnn       nnnnnn",
"nnnn           nnnn",
"nnn      XX     nnn",
"nn    %3rpu9*    nn",
"nn  X3lnnnnnz2.  nn",
"n  .3bbt<:3hnv1.  n",
"n  $ln7X   &fnk$  n",
"n  1nh@     ;xn4  n",
"n  0ny.     Xynr. n",
"n  qnr   n   0niX n",
"n  9ndO      wnuX n",
"n  ,nv2.   X<lnw  n",
"n  +pncq>=,tvnn5  n",
"nn  %snnnvnnbnb;  n",
"nn   @2pjks8ang@  n",
"nnn    X@#o&zn9  nn",
"nnnn      otnl&  nn",
"nnn      O9nn6   nn",
"nnn    .*rbntO  nnn",
"nn   #:wznbe@   nnn",
"nn  -fbnnd<o   nnnn",
"nn  1nca<@    nnnnn",
"nn  O:=O     nnnnnn",
"nn          nnnnnnn",
"nnn       nnnnnnnnn",
"nnnnnnnnnnnnnnnnnnn"
};
