/* XPM */
static char *pressentertoretry[] = {
/* columns rows colors chars-per-pixel */
"219 26 2 1 ",
"  c #ffff00",
". c #ffffff",
/* pixels */
"          .......................................................              ............................................................................................................................................",
"           ......................................................              ...............   ......................................    .................................................    ...........................",
"           ......................................................              ...............    .....................................    .................................................    ...........................",
"            .....................................................              ...............    .....................................    .................................................    ...........................",
"            .............................     .......    ........              ...............    .....................................    .................................................    ...........................",
"    ..      .   .     ....       .....        ...        ........     .....   .    .     ..          ....      ....   .      .......           ...      ..........          ....      ...           .   .         .....    ",
"    ...                ..         ...         ..         ........    ..........                       .          ..          .......           ..        .........          ...         .           .             .....    ",
"    ..                 .          ..          .          ........             .                       .          ..          .......           .          ........           .          .           .              ...     ",
"                                  ..          .          ........             .                                  ..          .......                      ........                      .           .              ...     ",
"                                  ..          .          ........             .                                  ..          .......                      ........                      .           .               .      ",
"           .                      ..          .          ........             .           .          .           ..          .......                      ........                      .           .               .      ",
"           .      .               ..          .          ........             .           ....    ...            ..          ..........    ....           ........      .               ....    .....                      ",
"          ..     ..               ..          .          ........             .      .    ....    ...            ..    ..    ..........    ....     ..    ........     ..               ....    .....    ..               .",
"        ....    ...   .            .          .          ........    ..........     ..    ....    ...             .    ..    ..........    ....    ...    ........    ...   .            ...    .....    ..    .          .",
"    ........    .......                                  ........    ..........     ..     ...    ...             .   .................    ....     .     ........    .......            ...     ....   ........         ..",
"    ........    .......                                  ........     .      ..    ...     ...    ...             .   .................    ....           ........    .......            ...     ....   .........        ..",
"    ........    .......                                  ........             .    ...     ...    ...             .   .................    ....           ........    .......            ....    ....   .........       ...",
"    ........    .......                                  ........             .    ...     ...    ....            .   .................    ....           ........    .......            ....    ....   ..........      ...",
"    ........    .......                                  ........             .    ....    ...    ....            .   .................    ....          .........    .......            ....    ....   .........      ....",
"    ........    ........                     .           ........             .    ....    ...    .....           .   .................    .....         .........    ........           ....    ....   .........      ....",
"   .........    .........        ...        ...         ..........            .    ....    ...    ......        ...   .................    ......       ..........    .........        ......   .....   .........     .....",
"....................................................................         ...................................................................................................................................      .....",
"................................................................................................................................................................................................................      .....",
"................................................................................................................................................................................................................     ......",
"................................................................................................................................................................................................................     ......",
"................................................................................................................................................................................................................    ......."
};
