/* XPM */
static char *pressentertoretry_alpha[] = {
/* columns rows colors chars-per-pixel */
"219 26 255 2 ",
"   c #000000",
".  c #010101",
"X  c #020202",
"o  c #030303",
"O  c #040404",
"+  c #050505",
"@  c #060606",
"#  c #070707",
"$  c #080808",
"%  c #090909",
"&  c #0a0a0a",
"*  c #0B0B0B",
"=  c #0C0C0C",
"-  c #0d0d0d",
";  c #0E0E0E",
":  c #0f0f0f",
">  c #101010",
",  c #111111",
"<  c #121212",
"1  c #131313",
"2  c #141414",
"3  c #151515",
"4  c #161616",
"5  c #171717",
"6  c #181818",
"7  c #191919",
"8  c #1a1a1a",
"9  c #1B1B1B",
"0  c #1c1c1c",
"q  c #1D1D1D",
"w  c #1E1E1E",
"e  c #1f1f1f",
"r  c #202020",
"t  c #212121",
"y  c #222222",
"u  c #232323",
"i  c #242424",
"p  c #252525",
"a  c #262626",
"s  c #272727",
"d  c #282828",
"f  c #292929",
"g  c #2A2A2A",
"h  c #2b2b2b",
"j  c #2C2C2C",
"k  c #2D2D2D",
"l  c #2e2e2e",
"z  c #2F2F2F",
"x  c #303030",
"c  c #313131",
"v  c #323232",
"b  c #333333",
"n  c #343434",
"m  c #353535",
"M  c #363636",
"N  c #373737",
"B  c #383838",
"V  c #393939",
"C  c #3A3A3A",
"Z  c #3b3b3b",
"A  c #3C3C3C",
"S  c #3d3d3d",
"D  c #3E3E3E",
"F  c #3F3F3F",
"G  c #404040",
"H  c #414141",
"J  c #424242",
"K  c #434343",
"L  c #444444",
"P  c #454545",
"I  c #464646",
"U  c #474747",
"Y  c #484848",
"T  c #494949",
"R  c #4a4a4a",
"E  c #4B4B4B",
"W  c #4C4C4C",
"Q  c #4d4d4d",
"!  c #4E4E4E",
"~  c #4f4f4f",
"^  c #505050",
"/  c #515151",
"(  c #525252",
")  c #535353",
"_  c #545454",
"`  c #555555",
"'  c #565656",
"]  c #575757",
"[  c #585858",
"{  c #595959",
"}  c #5A5A5A",
"|  c #5B5B5B",
" . c #5c5c5c",
".. c #5D5D5D",
"X. c #5e5e5e",
"o. c #5F5F5F",
"O. c #606060",
"+. c #616161",
"@. c #626262",
"#. c #636363",
"$. c #646464",
"%. c #656565",
"&. c #666666",
"*. c #676767",
"=. c #686868",
"-. c #696969",
";. c #6A6A6A",
":. c #6b6b6b",
">. c #6C6C6C",
",. c #6D6D6D",
"<. c #6e6e6e",
"1. c #6F6F6F",
"2. c #707070",
"3. c #717171",
"4. c #727272",
"5. c #737373",
"6. c #747474",
"7. c #757575",
"8. c #767676",
"9. c #777777",
"0. c #787878",
"q. c #797979",
"w. c #7a7a7a",
"e. c #7B7B7B",
"r. c #7C7C7C",
"t. c #7d7d7d",
"y. c #7E7E7E",
"u. c #7f7f7f",
"i. c #808080",
"p. c #818181",
"a. c #828282",
"s. c #838383",
"d. c #848484",
"f. c #858585",
"g. c #868686",
"h. c #878787",
"j. c #888888",
"k. c #898989",
"l. c #8a8a8a",
"z. c #8B8B8B",
"x. c #8c8c8c",
"c. c #8D8D8D",
"v. c #8E8E8E",
"b. c #8f8f8f",
"n. c #909090",
"m. c #919191",
"M. c #929292",
"N. c #939393",
"B. c #949494",
"V. c #959595",
"C. c #969696",
"Z. c #979797",
"A. c #989898",
"S. c #999999",
"D. c #9A9A9A",
"F. c #9B9B9B",
"G. c #9c9c9c",
"H. c #9D9D9D",
"J. c #9e9e9e",
"K. c #9F9F9F",
"L. c #A0A0A0",
"P. c #a1a1a1",
"I. c #A2A2A2",
"U. c #a3a3a3",
"Y. c #A4A4A4",
"T. c #A5A5A5",
"R. c #a6a6a6",
"E. c #A7A7A7",
"W. c #a8a8a8",
"Q. c #A9A9A9",
"!. c #AAAAAA",
"~. c #ACACAC",
"^. c #adadad",
"/. c #AEAEAE",
"(. c #AFAFAF",
"). c #b0b0b0",
"_. c #B1B1B1",
"`. c #B2B2B2",
"'. c #b3b3b3",
"]. c #B4B4B4",
"[. c #b5b5b5",
"{. c #B6B6B6",
"}. c #B7B7B7",
"|. c #b8b8b8",
" X c #B9B9B9",
".X c #bababa",
"XX c #BBBBBB",
"oX c #BCBCBC",
"OX c #bdbdbd",
"+X c #bebebe",
"@X c #bfbfbf",
"#X c #C0C0C0",
"$X c #C1C1C1",
"%X c #c2c2c2",
"&X c #C3C3C3",
"*X c #c4c4c4",
"=X c #C5C5C5",
"-X c #C6C6C6",
";X c #c7c7c7",
":X c #C8C8C8",
">X c #c9c9c9",
",X c #CACACA",
"<X c #CBCBCB",
"1X c #cccccc",
"2X c #CDCDCD",
"3X c #CECECE",
"4X c #cfcfcf",
"5X c #D0D0D0",
"6X c #d1d1d1",
"7X c #D2D2D2",
"8X c #d3d3d3",
"9X c #d4d4d4",
"0X c #D5D5D5",
"qX c #d6d6d6",
"wX c #D7D7D7",
"eX c #D8D8D8",
"rX c #d9d9d9",
"tX c #DADADA",
"yX c #dbdbdb",
"uX c #dcdcdc",
"iX c #DDDDDD",
"pX c #dedede",
"aX c #DFDFDF",
"sX c #e0e0e0",
"dX c #E1E1E1",
"fX c #E2E2E2",
"gX c #e3e3e3",
"hX c #E4E4E4",
"jX c #e5e5e5",
"kX c #E6E6E6",
"lX c #E7E7E7",
"zX c #e8e8e8",
"xX c #E9E9E9",
"cX c #EAEAEA",
"vX c #ebebeb",
"bX c #ECECEC",
"nX c #ededed",
"mX c #EEEEEE",
"MX c #EFEFEF",
"NX c #f0f0f0",
"BX c #F1F1F1",
"VX c #f2f2f2",
"CX c #F3F3F3",
"ZX c #F4F4F4",
"AX c #f5f5f5",
"SX c #F6F6F6",
"DX c #f7f7f7",
"FX c #F8F8F8",
"GX c #F9F9F9",
"HX c #fafafa",
"JX c #FBFBFB",
"KX c #fcfcfc",
"LX c #FDFDFD",
"PX c #FEFEFE",
"IX c #ffffff",
/* pixels */
"      % , -                                                                                                                         O %   5 d H ! ! S d -                                                                                                                                                                                                                                                                                             ",
"  H P.oX;X%XP.{ ,                                                                                                                 % a.}.P.<XlXSXJXSXNXgXoX_                                                                                                                                                                                                                                                                                           ",
"O W.IXIXIXIXIXJX/.i                                                                                                               5 qXIXIXIXIXNXvXmXSXIXIX%X-                                 - O                                                                               % O                                                                                                       O %                                                         ",
"% .XIXv./ ..C.lXIX%Xq                                                                                                             - <XIX<X4.R x i d S O.v./                                 x oX4.                                                                            8 /.m.%                                                                                                   % l._.q                                                       ",
"% oXIX!       S 7XIXa.                                                                                                            O }.IXr.                                                  O.IX<X-                                                                           S SXvXi                                                                                                   5 eXIX_                                                       ",
"% oXIX!         { JX%X%                                                             O 8 ,                   8 8                   O _.IXa.                                                  ..IXqX5                                                                           x NXNXM                                                                                                   , 7XIXO.                                                      ",
"- ;XJXH         Z JX4X,   O %       5 d u             O 5 8 -                 % i ..P.aX}.,         O u / C.eX<Xi                 % .XIXr.                      M =.5   O l S u       - i q O.IXeXx i i %           % 8 8 %             %       - u i %                 O i u H NXmXU i d -             % -                           O %     O 8 d q             % 5 8 -           q i d 4XIX4.i d 5       %       - i i %   % O               % %   ",
", <XSXZ         =.IX}.% O a.W.5 i v.4XvXaX/       % _ _.qXeX;Xm.l         % _ /.lXIXIXIXmXl     O R P.eXIXIXIXJX!                 % %XIX4.                    O _.IX{ q H.vXJXeX/   O a.vXgXlXIXSXgXvXlXe.      - =.oXeXeX%Xr.q       U oXU , %.oXlXvXC.%               { lXgXaXIXIXgXlXvXH.%     O U D.;X<XD.x                     % m.H.- x C.qXvXqXH       % ...XeXeX%Xf.i     x qXlXaXSXIXlXlXvX%Xu   { .XM 5 4.;XlXlXr.u /.C.%           % m._.i ",
"8 qXNXl       x 7XIX7.  - <XIXv.qXIXJXNXIX/.O   O r.SXIXNXmXIXIXqXd     % m.SXIXIXeXW.vXIX!     4.mXIXIXgX/.aXIX1.                - <XIX1.5 u x H _ =.e.! O   O }.IXC..XIXSXmXIX4X5   l.NXIXIXIXIXIXNXSXl.    - H.IXIXmXNXIXIX}.5     e.IX_./.IXIXmXIXvXl               O.NXIXIXIXIXIXSXSX_.%   O 7.NXIXIXIXIXqXx                   8 eXNXl.gXIXSXNXIXC.    - v.JXIXNXmXIXIX;Xq   M gXJXIXIXIXIXSXSXqXu   C.IXE..XIXIXmXIXqX/ SXJX=.          / JXNXH ",
"u aXmX! i x 4.eXIX;Xq   - <XIXIXNXC.U 4.IX;X-   ! SXNXf.M l / oXIX7.    R SXIXoX_ q % D.aXZ   l vXIX4XO.i O e.gX_                 q eXIXeX7XgXmXJXIXIXIXgX8   O /.IXNXIX;XR U lXSXS   , S ! a.IXvX..Z Z ,     e.IXgX=.l x ..eXIXR     r.IXIXIXoX..H eXJXS               % M R 1.mXJX7.S S q     { SXIXoX7.e.qXIXE.O                 q aXIXIXvXv.H f.IX/.O   %.JXvX7.x l _ 4XIX{   O d U { qXIXD.S S d     D.IXIXJX_._ R vXvXx E.IXeXi       - .XIX}.- ",
"l lXIXmXgXNXIXIX%Xx     , 4XIXmX..O   R IX%X% - oXIXr.    O U <XIX=.    e.IX7Xu       , u     { IXlXZ       - i O                 l mXIXIXIXIXSXmXgXqX;Xl.-   O _.IXIXqXi   % %XIX_         S SXgXq         u aXSX{     % ..aXJXH     a.IXIXH.,   , qXSXZ                     8 aXSXS         , ;XIX_.5     U NXvXd                 q gXIXlX!     %.IXW.  5 7XJX%.    O _ qXIX_           }.IX7.          H.IXJXl.-   u vXvXu Z mXIXv.      ! SXJX_   ",
"Z mXJXvXmXlX%X4.5       , 4XIXl.O     u /.O.  M NXeX8 % H E.NXIX.Xq     1.IXmX_.f.! 5         ! JXSXoXv._ q                       d vXJXm.O.! S l q 5 %       % .XIXSX{     % .XIXO.        M SXlXi         { IX}.O , _ .XJXJXD.-     a.IX4Xq     O a.D.,                     8 eXIXR         U SXmXS       - <XIX/                 q aXIX4.      x _./   R JX;X- - ! _.JXIXE.,           /.IXr.          H.IX.X-     - m.l.% O D.IXvXx   % /.IX%X-   ",
"H SXqXM x i -           , 4XJXH         O     O.IXP.! W.SXIXaXr.8       u oXJXIXIXJX;X/       5 E.SXIXIXIX7X%.%                   l mXNXx                     - ;XIX%X,     % oXIXO.        x NXvXd         l.IXr...oXJXIX4X=.,       f.IXm.          O                       5 qXIX!         4.IX;X-       O /.IX%.                q gXmXl         O     e.IXv./ .XSXIXqX4.,             W.IXf.          P.IX7.        O       x vXIXC.  Z mXIX%.    ",
"R SX<X-                 , 4XJXS               7.IXlXSXIXqXe.i             5 / v.oXmXIXmX!       - R f.}.gXIXJX=.                  M NXNXl                     5 7XIXe.      - ;XIXO.        l mXNXx         P.IXgXIXIX;X=.5           a.IXv.                                  , 4XIX_         a.IX/.O         W.IX%.                q gXmXd               v.IXlXJXIX4X4.q                 H.IXv.          H.IX4.                  m.IXlXx v.IX4X8     ",
"! JX;X-                 , 4XJXS               4.IXJX<X4.q                       % Z oXIX}.%           % d W.IXqX8                 M SXmXl                     q aXIX/       % %XIX1.        i vXNXM         P.IXSX.X..5               f.IXv.                                  - <XIX..        7.IX}.O       % oXIX!                 u gXmXd               m.IXSX%X%.8                     D.IXm.          H.IX7.                  l gXIXW.aXIX4.      ",
"! JX;X%                 , 4XJXS               / IXqXl           8 f.R   , O         ! IXaXq   , %         x NXNXx                 x mXNXx                     u gXJXH       O _.IXf.        u gXSXS         r.IX}.5           d v.l   f.IXm.                                  - %XIX%.        / JXgXd       S mXlXu                 q gXmXl               =.IX%Xq           u l.Z         m.IXD.          P.IX4.                    f.IXIXIXeXu       ",
"! JX;X-                 - 4XJXH               8 7XIXW.Z , % 8 U _.IXC.Z <Xv.l 5 , i m.IXqX, i oXH.Z 5 , u 7.SXvXl                 u gXJXU                     u aXSXH         D.IXE.        u lXJXH         x vXSXv.l - - q _ <XIX=.  f.IXv.                                  % ;XIX=.        8 7XIX/.x 8 U <XIXD.O                 q gXmXd               d aXJXD.x - - q ! oXIXr.        m.IXP.          P.IX7.                    i aXIXIXa.        ",
"! JX;X%                 , 4XJXH                 ! gXIXNX7X;XeXJXIXeXZ / IXIXvXqX7XlXIXIXl.  Z NXIXNXeX7XgXIXIXE.%                 % %XIX%Xa.r.a.a.l.v.P.O.O   8 qXIX/         r.IXoX%       i lXSXS         O 4.NXIXvX<X<XaXIXIXoXu   f.IXm.                                  , <XIX=.          { NXIXlXqXNXIX7Xi                   q lXmXl                 O.mXIXmX4X;XaXJXIX<Xl         D.IXH.          H.IX7.                      C.IXgXd         ",
"d oXf.O                 - <XSXZ                   Z E.gXSXJXNX4Xf.i   - e.qXJXIXIXIXgXf.5   O %.4XNXIXIXIXlXH.u                     O.NXIXIXIXIXIXIXIXIX<X-   % /.mXS         { IX.X%       u gXgXu           O / }.vXJXJXvX%X4.8     e.IXf.                                  - oXJXU           O ..qXJXIXSX.XM                     8 eXvXi                 O R /.lXSXJXmX;Xe.q           v.JX7.          C.IX=.                    - %XIXC.O         ",
"  , %                     H ..%                     O u Z H x ,           8 H ..O.! i           5 S ..O./ d O                       % R v./.oX%X%XoX_.P./       q x O         5 =.S         O R U                 % d S S d -         u %.u                                     M / %               q ! { S ,                       O ! / %                     % i S S l ,               u { 8           d %.8                     ! SXmXZ           ",
"                                                                                                                                          O % % % % O                                                                                                                                                                                                                                                                             O E.IX/.O           ",
"                                                                                                                                                                                                                                                                                                                                                                                                                                  l vXJX{             ",
"                                                                                                                                                                                                                                                                                                                                                                                                                                  7.IXeX8             ",
"                                                                                                                                                                                                                                                                                                                                                                                                                                % }.IXC.              ",
"                                                                                                                                                                                                                                                                                                                                                                                                                                % H.lXU               ",
"                                                                                                                                                                                                                                                                                                                                                                                                                                  5 l O               "
};
