/* XPM */
static char *explosion_part2_5[] = {
/* columns rows colors chars-per-pixel */
"100 141 70 1 ",
"  c #0D0000",
". c #120100",
"X c #1C0000",
"o c #240000",
"O c #2D0000",
"+ c #2D0A00",
"@ c #320100",
"# c #3B0200",
"$ c #340800",
"% c #3C0A00",
"& c #420200",
"* c #4C0500",
"= c #430A00",
"- c #4C0C00",
"; c #520700",
": c #530D00",
"> c #5B0C00",
", c #441100",
"< c #4C1100",
"1 c #511000",
"2 c #5C1300",
"3 c #5E1900",
"4 c #610E00",
"5 c #641300",
"6 c #681600",
"7 c #641A00",
"8 c #6A1D00",
"9 c #672100",
"0 c #6D2300",
"q c #6F2800",
"w c #712600",
"e c #722900",
"r c #7B2E02",
"t c #7E3202",
"y c #823503",
"u c #863804",
"i c #8C3C04",
"p c #883E08",
"a c #913F04",
"s c #8F4006",
"d c #8E4209",
"f c #924206",
"g c #954609",
"h c #97490A",
"j c #9A4C0C",
"k c #9E520F",
"l c #9F5410",
"z c #9F5914",
"x c #A04F0D",
"c c #A1530F",
"v c #A15510",
"b c #A45A13",
"n c #A76015",
"m c #A96316",
"M c #AB6718",
"N c #AD6C1A",
"B c #B06F1C",
"V c #B1711D",
"C c #B57720",
"Z c #B77921",
"A c #BA7E24",
"S c #BC8126",
"D c #BF8528",
"F c #C48C2C",
"G c #C6902F",
"H c #C99631",
"J c #CC9A34",
"K c #D2A43A",
"L c #D4A93C",
"P c None",
/* pixels */
"PPPPPPPPPPPPPPPPPPPPPPPPPPPPPPPPPPPPPPPPPPPPPPPPPPPPPPPPPPPPPPPPPPPPPPPPPPPPPPPPPPPPPPPPPPPPPPPPPPPP",
"PPPPPPPPPPPPPPPPPPPPPPPPPPPPPPPPPPPPPPPPPPPPPPPPPPPPPPPPPPPPPPPPPPPPPPPPPPPPPPPPPPPPPPPPPPPPPPPPPPPP",
"PPPPPPPPPPPPPPPPPPPPPPPPPPPPPPPPPPPPPPPPPPPPPPPPPPPPPPPPPPPPPPPPPPPPPPPPPPPPPPPPPPPPPPPPPPPPPPPPPPPP",
"PPPPPPPPPPPPPPPPPPPPPPPPPPPPPPPPPPPPPPPPPPPPPPPPPPPPPPPPPPPPPPPPPPPPPPPPPPPPPPPPPPPPPPPPPPPPPPPPPPPP",
"PPPPPPPPPPPPPPPPPPPPPPPPPPPPPPPPPPPPPPPPPPPPP$PPPPPPPPPPPPPPPPPPPPPPPPPPPPPPPPPPPPPPPPPPPPPPPPPPPPPP",
"PPPPPPPPPPPPPPPPPPPPPPPPPPPPPPPPPPPPPPPPPPPPP##PPPPPPPPPPPOXPPPPPXPPPPPPPPPPPPPPPPPPPPPPPPPPPPPPPPPP",
"PPPPPPPPPPPPPPPPPPPPPPPPPPPPPPPPPPPPPPPPPPPPP,$@PPPPPPPPP@OooPPPPXPPPPPPPPPPPPPPPPPPPPPPPPPPPPPPPPPP",
"PPPPPPPPPPPPPPPPPPPPPPPPPPPPPPPPPPPPPPXPP@@O@@$@OPPPPPPPPO@OOO@PPPPPPPPPPPPPPPPPPPPPPPPPPPPPPPPPPPPP",
"PPPPPPPPPPPPPPPPPPPPPPPPPPPPPPPPPPPP@Oo#====%==&--PPPPPPPOO@@O@@PXPPPPPPPPPPPPPPPPPPPPPPPPPPPPPPPPPP",
"PPPPPPPPPPPPPPPPPPPPPPPPPPPPPPPPPoO@@@$-:::::::>82<PPPP%=%@@@O@OOooPPPPPPPPPPPPPPPPPPPPPPPPPPPPPPPPP",
"PPPPPPPPPPPPPPPPPP<1PPPPPPPPPPPPXX@@#=7888868660w08PPPP002&@@@@@@OO@PPPPXPPPPPPPPPPPPPPPPPPPPPPPPPPP",
"PPPPPPPPPPPPPPPPPP%=PPPPPPPPPPo@Oo@@%<00qr00qqqqte3@PPP>76&#@##@@%$@@PPX.PPPPPPPPPPPPPPPPPPPPPPPPPPP",
"PPPPPPPPPPPPPPPPPP$@PPPPPPPPPoO@@@@%-4rytrttttttgie3tP*>w0>*&#&#@=#@@PPXXPPPPPPPPPPPPPPPPPPPPPPPPPPP",
"PPPPPPPPPPPPPPPPPPPPPPPPPPPPoO@@###=3wiiitglkffglljdge>0yyw>*&&#@#&#@PXXXPPPPPPPPPPPPPPPPPPPPPPPPPPP",
"PPPPPPPPPPPPPPPPPPPPPPPPPPPP@###=,#-3wupjlllllMNNNNMNbzlaiuw2-<=&#=%@XoOPPPPPPPPPPPPPPPPPPPPPPPPPPPP",
"PPPPPPPPPPPPPPPPPPPPPPPPPPPP@#&&=<--2qtullllvvnMNZAAACnjapue821:11<=$oO@PPPPPPPPPPPPPPPPPPPPPPPPPPPP",
"PPPPPPPPPPPPPPPPPPPPPPPPPPPP@#&=<<:;20qthkjlvllvNAFGFVkaiiieq8:5w8>=%$@@PPPPPPPPPPPPPPPPPPPPPPPPPPPP",
"PPPPPPPPPPPPPPPPPPPPPPPPPPPP@#&&-::6qwqwerthllvvBAJKGVlaryiirqqqww><*##OPPPPPPPPPPPPPPPPPPPPPPPPPPPP",
"PPPPPPPPPPPPPPPPPPPPPPPPPPPP@#&;5228qqqqqqeuhhlmVFKKJFChiyiptette5=%#@@PPPPPPPPPPPPPPPPPPPPPPPPPPPPP",
"PPPPPPPPPPPPPPPPPPPPPPPPPPPPO#=:60800rttttetiijNCGKLKKGMjaiiutttw1#O@%<PPPPPPPPPPPPPPPPPPPPPPPPPPPPP",
"PPPPPPPPPPPPPPPPPPPPPPPPPPPPO=1:500qwtiiidiidihvNZHKKKJCnxaapiw31PPPP,3ePPPPPPPPPPPPPPPPPPPPPPPPPPPP",
"PPPPPPPPPPPPPPPPPPPPPPPPPPPPX$1-7wqqweiiiglllllbNCFGGGGFCbjkhy:&$oPPP$10PPPPPPPPPPPPPPPPPPPPPPPPPPPP",
"PPPPPPPPPPPPPPPPPPPPPPPPPPPPP#-;7wwqwetttugjlvlvBZHJJJJJANnbdr&#OXPPPP1PPPPPPPPPPPPPPPPPPPPPPPPPPPPP",
"PPPPPPPPPPPPPPPPPPPPPPPPPPPPP##>qqqqqqwwwqthvlvvNAKKLLKKDBNvp8&#OoPPPPPPPPPPPPPPPPPPPPPPPPPPPPPPPPPP",
"PPPPPPPPPPPPPPPPPPPPPPPPPPPPPoo>8w8808000wtjMvvvBVDKLKLLHZvft7&#OXPPoOPPPPPPPPPPPPPPPPPPPPPPPPPPPPPP",
"PPPPPPPPPPPPPPPPPPPPPPPPPPP@P$@:6546808000tjNvvvbMAHJKLJHAbhw>&@OoOPXOPPPPPPPPPPPPPPPPPPPPPPPPPPPPPP",
"PPPPPPPPPPPPPPPPPPPPPPPPPP@#-*;->4:5008880rhNvkvvmAFFHJGFZNjw;*%@O@PPPPPPPPPPPPPPPPPPPPPPPPPPPPPPPPP",
"PPPPPPPPPPPPPPPPPPPPPPPPP@#;5w8::::50800wwyhMbvvvmFFFFFFAVNjy61*#@@OPPPPPPPPPPPPPPPPPPPPPPPPPPPPPPPP",
"PPPPPPPPPPPPPPPPPPPPPPPP@&:6yiy55>:5080qeuskbvvvlbBCBCBCCMvvfy5;##@oXPPPPPPPPPPPPPPPPPPPPPPPPPPPPPPP",
"PPPPPPPPPPPPPPPPPP@PPPPP=:6eiiywq876q00qwttdhvcbmmNBBBMbmbvvhiw>;&#OoXPPPPPPPPPPPPPPPPPPPPPPPPPPPPPP",
"PPPPPPPPPPPPPPPPP@@@PPPP16eeuiywweqqqqqqewwypcvNBBVBBBbvvvvvhue04:=#@ooPPPPPPPPPPPPPPPPPPPPPPPPPPPPP",
"PPPPPPPPPPPPPPPP@@%$@$%<7tiiiauetuwqqqqtiiuiilbNVBBVBVNBbvkvgieq5&&&##@@PPPPPPXPPPPPPPPPPPPPPPPPPPPP",
"PPPPPPPPPPPPPPPO@%,-=17q0tiiyttwtittupuuiiiiikvNVVBBBBBmbvchaie0>*=*=*%@PPPXPXPPPPPPPPPPPPPPPPPPPPPP",
"PPPPPPPPPPPPPo@@$,-:2wyiwtiuwqqqtiiihcjiiififlvMBBBBBBBcxcjiiue8>::11<=@@PXXXPPPPPPPPPPPPPPPPPPPPPPP",
"PPPPPPPPPPPPPo#&&;28wuieqeweqqqqqriigccgigcklvvbBBbbcbxaiiiww00886;111*#@Xo@OOPPPPPPPPPPPPPPPPPPPPPP",
"PPPPPPPPPPPPO@#&=56rihiwqqqqqqqqqyiiaffiixbbvvbNBMjfaaaayww088005>4111<-&%@@@oXPPPPPPPPPPPPPPPPPPPPP",
"PPPPPPPPPPPP@@&&;8qtildqwqqqqqqqqyiytttyikbbbnNVBMhfiurye80808566>>:1<>>1=#OOoXPPPPPPPPPPPPPPPPPPPPP",
"PPPPPPPPPPPP@@#-:8qtflgreeqqqqqqqeueqeqtfkvkbBNNBBnvir00088008:706>11:24:=#OXXXPPPPPPPPPPPPPPPPPPPPP",
"PPPPPPPPPPPPO@#*:qtiklljstqrqqqqqweqqqqtivvhfvbbvMnviw8888088888qqq07155&#@OPPPPPPPPPPPPPPPPPPPPPPPP",
"PPPPPPPPPPPPO#=-;0rihlvchsttqeeqqqqeqqqtigkhigghvbbjirrrrw0qq0qere073*:1&@OPPPPPPPPPPPPPPPPPPPPPPPPP",
"PPPPPPPPPPPXO&::>qqtikcckgitqqwqwqwqq80tiihhiiiakklhiiiiiewqqqwyie02*&#=@@@PPPPPPPPPPPPPPPPPPPPPPPPP",
"PPPPPPPPPPPO@&-3600tiihcfiitqeqwqwq088qtaiisiiiiiiggiiiiitqqqruiuw83,$@OXoPPPPPPPPPPPPPPPPPPPPPPPPPP",
"PPPPPPPPPPPO#=<380euiiffiiiutqwwwqwwq0qtiuttttyttuiaiyryttqqqwttw4>-#@OoXPPPPPPPPPPPPPPPPPPPPPPPPPPP",
"PPPPPPPPPPP@#=-308ruiiagfiiistttwq000qqtiuw66qqqqrttiw63236667665;-#OoXXPPPPPPPPPPPPPPPPPPPPPPPPPPPP",
"PPPPPPPPPPPO@&-7000tiigchiiiiiiit08080qtii05:qq0w08quw-##&*:::;25:#@OXPPPPPPPPPPPPPPPPPPPPPPPPPPPPPP",
"PPPPPPPPPPP@#&-38qqtiiifkffjiiiatqqqqqqtie2>0w7;:--2w7-##&&===-75,@oXPPPPPPPPPPPPPPPPPPPPPPPPPPPPPPP",
"PPPPPPPPPPPP#&-30qwtiiigkkhkhghiurqqqqqrrw79wq3<-#&*67--&#@&-=-22,$OoPPPPPPPPPPPPPPPPPPPPPPPPPPPPPPP",
"PPPPPPPPPPPP&&-30wqyiiijkcccvvlfiuq0qqqqwwqwq03-=&#&>3<:-#@%-11--,@@@PPPPPPPPPPPPPPPPPPPPPPPPPPPPPPP",
"PPPPPPPPPPPX$<<78wqtiiiikvvNvvvNlt128080088008>&&##&&--1*@@@=:1-&#@@PPPPPPPPPPPPPPPPPPPPPPPPPPPPPPPP",
"PPPPPPPPPP X$<-30qqtiifhvvMBMnnBMkrrrq008>>48>2>&&&&&*11=#@@#=<*#&OPPPPPPPPPPPPPPPPPPPPPPPPPPPPPPPPP",
"PPPPPPPPP  o#,13880riifjvvMBVVVBNnhstwwe0>>58455;==&&=1<=&&@##<=&&OXPPPPPPPPPPPPPPPPPPPPPPPPPPPPPPPP",
"PPPPPPPPP  o$,1700qqeuifjcbNBBNvzbMhtwyuewqwewee8>-&&-1<&&&&&&#&##@ooPPPPPPPPPPPPPPPPPPPPPPPPPPPPPPP",
"PPPPPPPPP  X$17qqqwwwwyiijvbBmvahbNht0qwiiuiuiiiie644>-<=*>;--@@@@@OOXPPPPPPPPPPPPPPPPPPPPPPPPPPPPPP",
"PPPPPPPPPP .+-370qqw06qttphhbvfadhkgutrtiiiiiiiiiuttrrq7238733;=&@O@OoPPPPoPPPPPPPPPPPPPPPPPPPPPPPPP",
"PPPPPPPPPPP X=<308886:38qtuilgiuiiiuiuiiiiiiiiiiiiiiiiiwwwq08862<@@@OXPPP@oXPPPPPPPPPPPPPPPPPPPPPPPP",
"PPPPPPPPPPPPXX,9q006111:8wwriiiryiurwrwtiiiiiiiiiiiiiiiie08>111<=@@@OPPPPPXXPPPPPPPPPPPPPPPPPPPPPPPP",
"PPPPPPPPPPPP..=30862:<117373wrrwerrqq00eyiiiiiiiiiiiiiitw08;==%#@@@@@PPPPPPPPPPPPPPPPPPPPPPPPPPPPPPP",
"PPPPPPPPPPPP .%154><1--<----444468088000wuiiiiiiiiiiiiuwq85:=O@O@O@@OPPPPPPPPPPPPPPPPPPPPPPPPPPPPPPP",
"PPPPPPPPPPPP  $-::-1-&&&&&&&&&&&-68888860wwwtiuiiiiiitwq05:1=O@@@OOoXPPPPPPPPPPPPPPPPPPPPPPPPPPPPPPP",
"PPPPPPPPPPPPP o$<111-&&##&&&&&&#&:>>>>>>>qwwewtieeyitww04::1=OooPOoXPPPPPPPPPPPPPPPPPPPPPPPPPPPPPPPP",
"PPPPPPPPPPPPPP.X$--<<=##@###@####=-<11<27qqrttyiewrt0734:<-=#OXPPPXPPPPPPPPPPPPPPPPPPPPPPPPPPPPPPPPP",
"PPPPPPPPPPPPPP .X@=<<=@$@@@@O@O@@@-1<1:7qqwyiiiuwwqq83::=&#@O@PPPPPPPPPPPPPPXXPPPPPPPPPPPPPPPPPPPPPP",
"PPPPPPPPPPPPPPP  X$<1<<--$@O@@@@#-<1:10qqqriiiyqwwq8:11&&&#@@PPPPPPPPPPPPPPPXXPPPPPPPPPPPPPPPPPPPPPP",
"PPPPPPPPPPPPPPPP .o-111:>:%#@O@@#-1<17wwqqtiitrqwq82*==&###@PPPPPPPPPPPPPPPXXXPPPPPPPPPPPPPPPPPPPPPP",
"PPPPPPPPPPPPPPPPP o,<<::6><=#@#===<-30qwwwuiuww056>*##&#@OOOPPPPPPPPPPPPPPXXXPPPPPPPPPPPPPPPPPPPPPPP",
"PPPPPPPPPPPPPPPPP Xo$-388>1<==<<111:;1qtiiite005::1<#@@@@@OoPPPPPPPPPPPPPPXXPPPPPPPPPPPPPPPPPPPPPPPP",
"PPPPPPPPPPPPPPPPPP o$-38>:<1<<1:11-466ruiiiitw05:1<,@@@O@PPXPPPPPPPPPPPPPPXXPPPPPPPPPPPPPPPPPPPPPPPP",
"PPPPPPPPPPPPPPPPPP XO,30>::111111<:5qruiiiiiie06>:<=@@OOPPPPPPPPPPPPPPPPPPXXPPPPPPPPPPPPPPPPPPPPPPPP",
"PPPPPPPPPPPPPPPPPP .X,386><1111<1-:50tiiiiiiuq086><#@@OXPPPPPPPPPPPPPPPPPXXXPPPPPPPPPPPPPPPPPPPPPPPP",
"PPPPPPPPPPPPPPPPPPP .,1>>:<1<:11-=:50tiiiiiyeq008><&@@OXPPPPPPPPPPPPPPP@OXXPPPPPPPPPPPPPPPPPPPPPPPPP",
"PPPPPPPPPPPPPPPPPPP .+%<11:<<1<1-=15qriuttteq0q62:<%@@OoOPPXPPPPPPPPPPP@OXPPPPPPPPPPPPPPPPPPPPPPPPPP",
"PPPPPPPPPPPPPPPPPPPP .o=<1::>:::1:>5qwutwww08864:<<,@@@@O@OoPPPPPPPPPPPPPPPPPPPPPPPPPPPPPPPPPPPPPPPP",
"PPPPPPPPPPPPPPPPPPPPP .o$->676711:780008888511*&&&&&#@@O@@OOPPPPPPPPPPPPPPPPPPPPPPPPPPPPPPPPPPPPPPPP",
"PPPPPPPPPPPPPPPPPPPPPP..O-;>>>>11:80006>>>>;<<#@@#@##O@@O@@PPPPPPPPPPPPPPPPPPPPPPPPPPPPPPPPPPPPPPPPP",
"PPPPPPPPPPPPPPPPPPPPPP .o&<<<<<<<-60q0><<<<<-#@@OooooOO@OoPPPPPPPPPPPPPPPPPPPPPPPPPPPPPPPPPPPPPPPPPP",
"PPPPPPPPPPPPPPPPPPPPPP  .o#&#&##=,:566=&&##&#OO@OXXXXoO@oXPPPPPPPPPPPPPPPPPPPPPPPPPPPPPPPPPPPPPPPPPP",
"PPPPPPPPPPPPPPPPPPPPPPP  X$@$#@$$#=-:;#$@@@@@@O@OPPPPPPPOPPPPPPPPPPPPPPPPPPPPPPPPPPPPPPPPPPPPPPPPPPP",
"PPPPPPPPPPPPPPPPPPPPPPPPP oO@@@@@@#=-<@oooOooOPPPPPPPPPPPPPPPPPPPPPPPPPPPPPPPPPPPPPPPPPPPPPPPPPPPPPP",
"PPPPPPPPPPPPPPPPPPPPPPPPP XoOoOOoOO#=-$XXXXXXPPPPPPPPPPPPPPPPPPPPPPPPPPPPPPPPPPPPPPPPPPPPPPPPPPPPPPP",
"PPPPPPPPPPPPPPPPPPPPPPPPP  ... ...X@@@@OPPPPPPPPPPPPPPPPPPPPPPPPPPPPPPPPPPPPPPPPPPPPPPPPPPPPPPPPPPPP",
"PPPPPPPPPPPPPPPPPPPPPPPPPP PPPPPPPPPO@@PPPPPPPPPPPPPPPPPPPPPPPPPPPPPPPPPPPPPPPPPPPPPPPPPPPPPPPPPPPPP",
"PPPPPPPPPPPPPPPPPPPPPPPPPPPPPPPPPPPPP@O@PPPPPPPPPPPPPPPPPPPPPPPPPPPPPPPPPPPPPPPPPPPPPPPPPPPPPPPPPPPP",
"PPPPPPPPPPPPPPPPPPPPPPPPPPPPPPPPPPPPPP@@PPPPPPPPPPPPPPPPPPPPPPPPPPPPPPPPPPPPPPPPPPPPPPPPPPPPPPPPPPPP",
"PPPPPPPPPPPPPPPPPPPPPPPPPPPPPPPPPPPPPPPPPPPPPPPPPPPPPPPPPPPPPPPPPPPPPPPPPPPPPPPPPPPPPPPPPPPPPPPPPPPP",
"PPPPPPPPPPPPPPPPPPPPPPPPPPPPPPPPPPPPPPPPPPPPPPPPPPPPPPPPPPPPPPPPPPPPPPPPPPPPPPPPPPPPPPPPPPPPPPPPPPPP",
"PPPPPPPPPPPPPPPPPPPPPPPPPPPPPPPPPPPPPPPPPPPPPPPPPPPPPPPPPPPPPPPPPPPPPPPPPPPPPPPPPPPPPPPPPPPPPPPPPPPP",
"PPPPPPPPPPPPPPPPPPPPPPPPPPPPPPPPPPPPPPPPPPPPPPPPPPPPPPPPPPPPPPPPPPPPPPPPPPPPPPPPPPPPPPPPPPPPPPPPPPPP",
"PPPPPPPPPPPPPPPPPPPPPPPPPPPPPPPPPPPPPPPPPPPPPPPPPPPPPPPPPPPPPPPPPPPPPPPPPPPPPPPPPPPPPPPPPPPPPPPPPPPP",
"PPPPPPPPPPPPPPPPPPPPPPPPPPPPPPPPPPPPPPPPPPPPPPPPPPPPPPPPPPPPPPPPPPPPPPPPPPPPPPPPPPPPPPPPPPPPPPPPPPPP",
"PPPPPPPPPPPPPPPPPPPPPPPPPPPPPPPPPPPPPPPPPPPPPPPPPPPPPPPPPPPPPPPPPPPPPPPPPPPPPPPPPPPPPPPPPPPPPPPPPPPP",
"PPPPPPPPPPPPPPPPPPPPPPPPPPPPPPPPPPPPPPPPPPPPPPPPPPPPPPPPPPPPPPPPPPPPPPPPPPPPPPPPPPPPPPPPPPPPPPPPPPPP",
"PPPPPPPPPPPPPPPPPPPPPPPPPPPPPPPPPPPPPPPPPPPPPPPPPPPPPPPPPPPPPPPPPPPPPPPPPPPPPPPPPPPPPPPPPPPPPPPPPPPP",
"PPPPPPPPPPPPPPPPPPPPPPPPPPPPPPPPPPPPPPPPPPPPPPPPPPPPPPPPPPPPPPPPPPPPPPPPPPPPPPPPPPPPPPPPPPPPPPPPPPPP",
"PPPPPPPPPPPPPPPPPPPPPPPPPPPPPPPPPPPPPPPPPPPPPPPPPPPPPPPPPPPPPPPPPPPPPPPPPPPPPPPPPPPPPPPPPPPPPPPPPPPP",
"PPPPPPPPPPPPPPPPPPPPPPPPPPPPPPPPPPPPPPPPPPPPPPPPPPPPPPPPPPPPPPPPPPPPPPPPPPPPPPPPPPPPPPPPPPPPPPPPPPPP",
"PPPPPPPPPPPPPPPPPPPPPPPPPPPPPPPPPPPPPPPPPPPPPPPPPPPPPPPPPPPPPPPPPPPPPPPPPPPPPPPPPPPPPPPPPPPPPPPPPPPP",
"PPPPPPPPPPPPPPPPPPPPPPPPPPPPPPPPPPPPPPPPPPPPPPPPPPPPPPPPPPPPPPPPPPPPPPPPPPPPPPPPPPPPPPPPPPPPPPPPPPPP",
"PPPPPPPPPPPPPPPPPPPPPPPPPPPPPPPPPPPPPPPPPPPPPPPPPPPPPPPPPPPPPPPPPPPPPPPPPPPPPPPPPPPPPPPPPPPPPPPPPPPP",
"PPPPPPPPPPPPPPPPPPPPPPPPPPPPPPPPPPPPPPPPPPPPPPPPPPPPPPPPPPPPPPPPPPPPPPPPPPPPPPPPPPPPPPPPPPPPPPPPPPPP",
"PPPPPPPPPPPPPPPPPPPPPPPPPPPPPPPPPPPPPPPPPPPPPPPPPPPPPPPPPPPPPPPPPPPPPPPPPPPPPPPPPPPPPPPPPPPPPPPPPPPP",
"PPPPPPPPPPPPPPPPPPPPPPPPPPPPPPPPPPPPPPPPPPPPPPPPPPPPPPPPPPPPPPPPPPPPPPPPPPPPPPPPPPPPPPPPPPPPPPPPPPPP",
"PPPPPPPPPPPPPPPPPPPPPPPPPPPPPPPPPPPPPPPPPPPPPPPPPPPPPPPPPPPPPPPPPPPPPPPPPPPPPPPPPPPPPPPPPPPPPPPPPPPP",
"PPPPPPPPPPPPPPPPPPPPPPPPPPPPPPPPPPPPPPPPPPPPPPPPPPPPPPPPPPPPPPPPPPPPPPPPPPPPPPPPPPPPPPPPPPPPPPPPPPPP",
"PPPPPPPPPPPPPPPPPPPPPPPPPPPPPPPPPPPPPPPPPPPPPPPPPPPPPPPPPPPPPPPPPPPPPPPPPPPPPPPPPPPPPPPPPPPPPPPPPPPP",
"PPPPPPPPPPPPPPPPPPPPPPPPPPPPPPPPPPPPPPPPPPPPPPPPPPPPPPPPPPPPPPPPPPPPPPPPPPPPPPPPPPPPPPPPPPPPPPPPPPPP",
"PPPPPPPPPPPPPPPPPPPPPPPPPPPPPPPPPPPPPPPPPPPPPPPPPPPPPPPPPPPPPPPPPPPPPPPPPPPPPPPPPPPPPPPPPPPPPPPPPPPP",
"PPPPPPPPPPPPPPPPPPPPPPPPPPPPPPPPPPPPPPPPPPPPPPPPPPPPPPPPPPPPPPPPPPPPPPPPPPPPPPPPPPPPPPPPPPPPPPPPPPPP",
"PPPPPPPPPPPPPPPPPPPPPPPPPPPPPPPPPPPPPPPPPPPPPPPPPPPPPPPPPPPPPPPPPPPPPPPPPPPPPPPPPPPPPPPPPPPPPPPPPPPP",
"PPPPPPPPPPPPPPPPPPPPPPPPPPPPPPPPPPPPPPPPPPPPPPPPPPPPPPPPPPPPPPPPPPPPPPPPPPPPPPPPPPPPPPPPPPPPPPPPPPPP",
"PPPPPPPPPPPPPPPPPPPPPPPPPPPPPPPPPPPPPPPPPPPPPPPPPPPPPPPPPPPPPPPPPPPPPPPPPPPPPPPPPPPPPPPPPPPPPPPPPPPP",
"PPPPPPPPPPPPPPPPPPPPPPPPPPPPPPPPPPPPPPPPPPPPPPPPPPPPPPPPPPPPPPPPPPPPPPPPPPPPPPPPPPPPPPPPPPPPPPPPPPPP",
"PPPPPPPPPPPPPPPPPPPPPPPPPPPPPPPPPPPPPPPPPPPPPPPPPPPPPPPPPPPPPPPPPPPPPPPPPPPPPPPPPPPPPPPPPPPPPPPPPPPP",
"PPPPPPPPPPPPPPPPPPPPPPPPPPPPPPPPPPPPPPPPPPPPPPPPPPPPPPPPPPPPPPPPPPPPPPPPPPPPPPPPPPPPPPPPPPPPPPPPPPPP",
"PPPPPPPPPPPPPPPPPPPPPPPPPPPPPPPPPPPPPPPPPPPPPPPPPPPPPPPPPPPPPPPPPPPPPPPPPPPPPPPPPPPPPPPPPPPPPPPPPPPP",
"PPPPPPPPPPPPPPPPPPPPPPPPPPPPPPPPPPPPPPPPPPPPPPPPPPPPPPPPPPPPPPPPPPPPPPPPPPPPPPPPPPPPPPPPPPPPPPPPPPPP",
"PPPPPPPPPPPPPPPPPPPPPPPPPPPPPPPPPPPPPPPPPPPPPPPPPPPPPPPPPPPPPPPPPPPPPPPPPPPPPPPPPPPPPPPPPPPPPPPPPPPP",
"PPPPPPPPPPPPPPPPPPPPPPPPPPPPPPPPPPPPPPPPPPPPPPPPPPPPPPPPPPPPPPPPPPPPPPPPPPPPPPPPPPPPPPPPPPPPPPPPPPPP",
"PPPPPPPPPPPPPPPPPPPPPPPPPPPPPPPPPPPPPPPPPPPPPPPPPPPPPPPPPPPPPPPPPPPPPPPPPPPPPPPPPPPPPPPPPPPPPPPPPPPP",
"PPPPPPPPPPPPPPPPPPPPPPPPPPPPPPPPPPPPPPPPPPPPPPPPPPPPPPPPPPPPPPPPPPPPPPPPPPPPPPPPPPPPPPPPPPPPPPPPPPPP",
"PPPPPPPPPPPPPPPPPPPPPPPPPPPPPPPPPPPPPPPPPPPPPPPPPPPPPPPPPPPPPPPPPPPPPPPPPPPPPPPPPPPPPPPPPPPPPPPPPPPP",
"PPPPPPPPPPPPPPPPPPPPPPPPPPPPPPPPPPPPPPPPPPPPPPPPPPPPPPPPPPPPPPPPPPPPPPPPPPPPPPPPPPPPPPPPPPPPPPPPPPPP",
"PPPPPPPPPPPPPPPPPPPPPPPPPPPPPPPPPPPPPPPPPPPPPPPPPPPPPPPPPPPPPPPPPPPPPPPPPPPPPPPPPPPPPPPPPPPPPPPPPPPP",
"PPPPPPPPPPPPPPPPPPPPPPPPPPPPPPPPPPPPPPPPPPPPPPPPPPPPPPPPPPPPPPPPPPPPPPPPPPPPPPPPPPPPPPPPPPPPPPPPPPPP",
"PPPPPPPPPPPPPPPPPPPPPPPPPPPPPPPPPPPPPPPPPPPPPPPPPPPPPPPP@$PPPPPPPPPPPPPPPPPPPPPPPPPPPPPPPPPPPPPPPPPP",
"PPPPPPPPPPPPPPPPPPPPPPPPPPPPPPPPPPPPPPPPPPPPPPPPPPPPPPPPPPPPPPPPPPPPPPPPPPPPPPPPPPPPPPPPPPPPPPPPPPPP",
"PPPPPPPPPPPPPPPPPPPPPPPPPPPPPPPPPPPPPPPPPPPPPPPPPPPPPPPPPPPPPPPPPPPPPPPPPPPPPPPPPPPPPPPPPPPPPPPPPPPP",
"PPPPPPPPPPPPPPPPPPPPPPPPPPPPPPPPPPPPPPPPPPPPPPPPPPPPPPPPPPPPPPPPPPPPPPPPPPPPPPPPPPPPPPPPPPPPPPPPPPPP",
"PPPPPPPPPPPPPPPPPPPPPPPPPPPPPPPPPPPPPPPPPPPPPPPPPPPPPPPPPPPPPPPPPPPPPPPPPPPPPPPPPPPPPPPPPPPPPPPPPPPP",
"PPPPPPPPPPPPPPPPPPPPPPPPPPPPPPPPPPPPPPPPPPPPPPPPPPPPPPPPPPPPPPPPPPPPPPPPPPPPPPPPPPPPPPPPPPPPPPPPPPPP",
"PPPPPPPPPPPPPPPPPPPPPPPPPPPPPPPPPPPPPPPPPPPPPPPPPPPPPPPPPPPPPPPPPPPPPPPPPPPPPPPPPPPPPPPPPPPPPPPPPPPP",
"PPPPPPPPPPPPPPPPPPPPPPPPPPPPPPPPPPPPPPPPPPPPPPPPPPPPPPPPPPPPPPPPPPPPPPPPPPPPPPPPPPPPPPPPPPPPPPPPPPPP",
"PPPPPPPPPPPPPPPPPPPPPPPPPPPPPPPPPPPPPPPPPPPPPPPPPPPPPPPPPPPPPPPPPPPPPPPPPPPPPPPPPPPPPPPPPPPPPPPPPPPP",
"PPPPPPPPPPPPPPPPPPPPPPPPPPPPPPPPPPPPPPPPPPPPPPPPPPPPPPPPPPPPPPPPPPPPPPPPPPPPPPPPPPPPPPPPPPPPPPPPPPPP",
"PPPPPPPPPPPPPPPPPPPPPPPPPPPPPPPPPPPPPPPPPPPPPPPPPPPPPPPPPPPPPPPPPPPPPPPPPPPPPPPPPPPPPPPPPPPPPPPPPPPP",
"PPPPPPPPPPPPPPPPPPPPPPPPPPPPPPPPPPPPPPPPPPPPPPPPPPPPPPPPPPPPPPPPPPPPPPPPPPPPPPPPPPPPPPPPPPPPPPPPPPPP",
"PPPPPPPPPPPPPPPPPPPPPPPPPPPPPPPPPPPPPPPPPPPPPPPPPPPPPPPPPPPPPPPPPPPPPPPPPPPPPPPPPPPPPPPPPPPPPPPPPPPP",
"PPPPPPPPPPPPPPPPPPPPPPPPPPPPPPPPPPPPPPPPPPPPPPPPPPPPPPPPPPPPPPPPPPPPPPPPPPPPPPPPPPPPPPPPPPPPPPPPPPPP",
"PPPPPPPPPPPPPPPPPPPPPPPPPPPPPPPPPPPPPPPPPPPPPPPPPPPPPPPPPPPPPPPPPPPPPPPPPPPPPPPPPPPPPPPPPPPPPPPPPPPP",
"PPPPPPPPPPPPPPPPPPPPPPPPPPPPPPPPPPPPPPPPPPPPPPPPPPPPPPPPPPPPPPPPPPPPPPPPPPPPPPPPPPPPPPPPPPPPPPPPPPPP",
"PPPPPPPPPPPPPPPPPPPPPPPPPPPPPPPPPPPPPPPPPPPPPPPPPPPPPPPPPPPPPPPPPPPPPPPPPPPPPPPPPPPPPPPPPPPPPPPPPPPP",
"PPPPPPPPPPPPPPPPPPPPPPPPPPPPPPPPPPPPPPPPPPPPPPPPPPPPPPPPPPPPPPPPPPPPPPPPPPPPPPPPPPPPPPPPPPPPPPPPPPPP"
};
