/* XPM */
static char *fontbolt_21__alpha[] = {
/* columns rows colors chars-per-pixel */
"23 30 125 2 ",
"   c #000000",
".  c #010101",
"X  c #020202",
"o  c #050505",
"O  c #060606",
"+  c #070707",
"@  c #080808",
"#  c #090909",
"$  c #0a0a0a",
"%  c #0B0B0B",
"&  c #0C0C0C",
"*  c #0d0d0d",
"=  c #0E0E0E",
"-  c #0f0f0f",
";  c #101010",
":  c #111111",
">  c #141414",
",  c #161616",
"<  c #171717",
"1  c #191919",
"2  c #1a1a1a",
"3  c #1B1B1B",
"4  c #1c1c1c",
"5  c #1D1D1D",
"6  c #1E1E1E",
"7  c #1f1f1f",
"8  c #202020",
"9  c #212121",
"0  c #222222",
"q  c #232323",
"w  c #262626",
"e  c #282828",
"r  c #292929",
"t  c #2A2A2A",
"y  c #2e2e2e",
"u  c #2F2F2F",
"i  c #303030",
"p  c #343434",
"a  c #3d3d3d",
"s  c #3E3E3E",
"d  c #404040",
"f  c #434343",
"g  c #444444",
"h  c #464646",
"j  c #4a4a4a",
"k  c #4C4C4C",
"l  c #4f4f4f",
"z  c #525252",
"x  c #535353",
"c  c #555555",
"v  c #595959",
"b  c #5A5A5A",
"n  c #5c5c5c",
"m  c #5D5D5D",
"M  c #656565",
"N  c #666666",
"B  c #696969",
"V  c #6A6A6A",
"C  c #6b6b6b",
"Z  c #6e6e6e",
"A  c #707070",
"S  c #717171",
"D  c #727272",
"F  c #737373",
"G  c #747474",
"H  c #757575",
"J  c #777777",
"K  c #7a7a7a",
"L  c #7B7B7B",
"P  c #7d7d7d",
"I  c #808080",
"U  c #828282",
"Y  c #848484",
"T  c #858585",
"R  c #888888",
"E  c #8c8c8c",
"W  c #8E8E8E",
"Q  c #929292",
"!  c #989898",
"~  c #999999",
"^  c #9c9c9c",
"/  c #9F9F9F",
"(  c #A0A0A0",
")  c #A5A5A5",
"_  c #a6a6a6",
"`  c #A9A9A9",
"'  c #AFAFAF",
"]  c #B2B2B2",
"[  c #b8b8b8",
"{  c #B9B9B9",
"}  c #bababa",
"|  c #bebebe",
" . c #c2c2c2",
".. c #d1d1d1",
"X. c #d4d4d4",
"o. c #D5D5D5",
"O. c #D7D7D7",
"+. c #D8D8D8",
"@. c #d9d9d9",
"#. c #DADADA",
"$. c #dbdbdb",
"%. c #dcdcdc",
"&. c #dedede",
"*. c #e0e0e0",
"=. c #E1E1E1",
"-. c #e3e3e3",
";. c #E6E6E6",
":. c #E7E7E7",
">. c #E9E9E9",
",. c #EAEAEA",
"<. c #ECECEC",
"1. c #EFEFEF",
"2. c #F1F1F1",
"3. c #F3F3F3",
"4. c #F4F4F4",
"5. c #f5f5f5",
"6. c #F6F6F6",
"7. c #F8F8F8",
"8. c #F9F9F9",
"9. c #fafafa",
"0. c #FBFBFB",
"q. c #fcfcfc",
"w. c #FDFDFD",
"e. c #FEFEFE",
"r. c #ffffff",
/* pixels */
"                                              ",
"                                              ",
"                0 v T ^ ! L h :               ",
"            : D o.r.r.r.r.r.4.{ h             ",
"          1 ) r.r.r.r.r.r.r.r.r.;.m           ",
"        * ( r.r.r.r.r.r.r.r.r.r.r.;.j         ",
"        V 9.r.r.r.r.r.r.r.r.r.r.r.r. .>       ",
"      0 o.r.r.r.r.r.2.o.#.9.r.r.r.r.r.M       ",
"      D r.r.r.r.r...j > 1 L 2.r.r.r.r.{ $     ",
"    * | r.r.r.r.,.h       $ ` r.r.r.r.,.i     ",
"    y ,.r.r.r.r.^ o         m r.r.r.r.r.v     ",
"    x 9.r.r.r.9.c           p <.r.r.r.r.L     ",
"    D r.r.r.r.;.t           0 =.r.r.r.r.E     ",
"    P r.r.r.r.#.1           5 #.r.r.r.r.Q     ",
"    T r.r.r.r.#.1           5 #.r.r.r.r.E     ",
"    I r.r.r.r.%.5           0 =.r.r.r.r.T     ",
"    D r.r.r.r.;.t           y <.r.r.r.r.G     ",
"    m r.r.r.r.2.s           j 9.r.r.r.r.m     ",
"    d 4.r.r.r.r.M           P r.r.r.r.4.s     ",
"    0 %.r.r.r.r.) o       :  .r.r.r.r.%.5     ",
"    $ ] r.r.r.r.,.h       M 9.r.r.r.r.' $     ",
"      V r.r.r.r.r.#.D k I ,.r.r.r.r.r.V       ",
"      0 #.r.r.r.r.r.r.9.r.r.r.r.r.r.o.0       ",
"        D 9.r.r.r.r.r.r.r.r.r.r.r.9.Z         ",
"        : ) r.r.r.r.r.r.r.r.r.r.r.^ :         ",
"          1 ^ 9.r.r.r.r.r.r.r.4.! >           ",
"            $ m [ ;.4.9.4.;.] c $             ",
"                $ t h k s w $                 ",
"                                              ",
"                                              "
};
