/* XPM */
static char *fontbolt_21_[] = {
/* columns rows colors chars-per-pixel */
"23 30 55 1 ",
"  c #000000",
". c #050505",
"X c #080808",
"o c #0d0d0d",
"O c #101010",
"+ c #141414",
"@ c #1a1a1a",
"# c #232323",
"$ c #252525",
"% c #2e2e2e",
"& c #313131",
"* c #373737",
"= c #3A3A3A",
"- c #3E3E3E",
"; c #424242",
": c #444444",
"> c #4E4E4E",
", c #515151",
"< c #585858",
"1 c #5A5A5A",
"2 c #5B5B5B",
"3 c #636363",
"4 c #656565",
"5 c #696969",
"6 c #727272",
"7 c #747474",
"8 c #7d7d7d",
"9 c #848484",
"0 c #8a8a8a",
"q c #8D8D8D",
"w c #909090",
"e c #969696",
"r c #9B9B9B",
"t c #9F9F9F",
"y c #A0A0A0",
"u c #A5A5A5",
"i c #a8a8a8",
"p c #AFAFAF",
"a c #B7B7B7",
"s c #B9B9B9",
"d c #bdbdbd",
"f c #C5C5C5",
"g c #CBCBCB",
"h c #d3d3d3",
"j c #d6d6d6",
"k c #D8D8D8",
"l c #dedede",
"z c #e3e3e3",
"x c #E6E6E6",
"c c #EAEAEA",
"v c #ededed",
"b c #F3F3F3",
"n c #F4F4F4",
"m c #F9F9F9",
"M c #ffffff",
/* pixels */
"MMMMMMMMMMMMMMMMMMMMMMM",
"MMMMMMMMM     MMMMMMMMM",
"MMMMMM            MMMMM",
"MMMMM    O&;-$X    MMMM",
"MMM    O5fvnnzi-.   MMM",
"MMM   @umMMMMMMx<    MM",
"MM   otMMcu89dnMx:   MM",
"MM   3mMh;.  o7nMdO   M",
"M   @gMc;     .tMn,   M",
"M   <mMq.      -bMt   M",
"M   rMv*   M   +gMg+  M",
"M  OgMfO   MM  .pMc$   ",
"   #zMt   MMM   eMb*   ",
"   %vM0   MMM   qMb-   ",
"   &vM9   MMM   qMb=   ",
"   %vMw   MMM   eMv&   ",
"   $xMt   MMM  .iMx$   ",
"M  @hMaX  MMM  ofMh@  M",
"M  XsMj@   M   $xMaX  M",
"M   0Mb;   M   <mM0   M",
"M   >mMw.     XpMn>   M",
"MM  +gMc:     4nMg+  MM",
"MM   5mMk<@O#6cMm4   MM",
"MM   ouMMnkglmMMyo   MM",
"MMM   @tnMMMMMbe@   MMM",
"MMM    X>edfsw:X    MMM",
"MMMMM     XOX     MMMMM",
"MMMMMM           MMMMMM",
"MMMMMMMMMMMMMMMMMMMMMMM",
"MMMMMMMMMMMMMMMMMMMMMMM"
};
