/* XPM */
static char *fontbolt_22_[] = {
/* columns rows colors chars-per-pixel */
"17 30 47 1 ",
"  c #000000",
". c #060606",
"X c #0B0B0B",
"o c #0d0d0d",
"O c #101010",
"+ c #151515",
"@ c #191919",
"# c #1c1c1c",
"$ c #292929",
"% c #2C2C2C",
"& c #313131",
"* c #3d3d3d",
"= c #3E3E3E",
"- c #444444",
"; c #4a4a4a",
": c #4d4d4d",
"> c #505050",
", c #585858",
"< c #5F5F5F",
"1 c #636363",
"2 c #6b6b6b",
"3 c #6C6C6C",
"4 c #737373",
"5 c #7a7a7a",
"6 c #808080",
"7 c #8f8f8f",
"8 c #979797",
"9 c #9e9e9e",
"0 c #a1a1a1",
"q c #A5A5A5",
"w c #ababab",
"e c #AEAEAE",
"r c #B2B2B2",
"t c #B6B6B6",
"y c #b8b8b8",
"u c #bfbfbf",
"i c #CACACA",
"p c #cfcfcf",
"a c #d3d3d3",
"s c #DDDDDD",
"d c #E6E6E6",
"f c #EAEAEA",
"g c #ECECEC",
"h c #F1F1F1",
"j c #f7f7f7",
"k c #FBFBFB",
"l c #ffffff",
/* pixels */
"llllllll    lllll",
"llllll       llll",
"lllll        llll",
"llll    X%@  llll",
"lll    %wf0. llll",
"ll    -pllt. llll",
"ll  X2dlll0. llll",
"ll .6jllll0  llll",
"ll +alhtjlq. llll",
"ll .<q>=gle. llll",
"ll   . =jlwX llll",
"ll     ;jl9  llll",
"lll    ,ll7  llll",
"lllll  2ll5  llll",
"lllll  5ll1  llll",
"lllll  7lk:  llll",
"lllll  9lj=  llll",
"lllll  wlg$  llll",
"lllll Xrld$  llll",
"lllll .rld$  llll",
"lll    wlg&    ll",
"ll     8lh=    ll",
"ll   XO7lk<#o  ll",
"ll .3uidllfsw+ ll",
"ll #slllllllh& ll",
"ll X4rttyyyt6o ll",
"ll   .XXXXXX   ll",
"ll             ll",
"lll           lll",
"lllllllllllllllll"
};
