/* XPM */
static char *fontbolt_23__alpha[] = {
/* columns rows colors chars-per-pixel */
"21 30 118 2 ",
"   c black",
".  c #010101",
"X  c #020202",
"o  c #040404",
"O  c gray2",
"+  c #060606",
"@  c #070707",
"#  c gray3",
"$  c #090909",
"%  c gray4",
"&  c #0B0B0B",
"*  c #0C0C0C",
"=  c gray5",
"-  c #0E0E0E",
";  c gray6",
":  c #111111",
">  c gray7",
",  c #131313",
"<  c gray8",
"1  c #151515",
"2  c gray9",
"3  c #181818",
"4  c #1E1E1E",
"5  c gray12",
"6  c #202020",
"7  c gray13",
"8  c #222222",
"9  c gray14",
"0  c #252525",
"q  c #282828",
"w  c #2A2A2A",
"e  c #2D2D2D",
"r  c gray18",
"t  c #2F2F2F",
"y  c gray19",
"u  c #313131",
"i  c gray20",
"p  c #343434",
"a  c #393939",
"s  c #3A3A3A",
"d  c #3F3F3F",
"f  c gray25",
"g  c #434343",
"h  c gray28",
"j  c #4C4C4C",
"k  c #535353",
"l  c #555555",
"z  c gray35",
"x  c #5B5B5B",
"c  c #5D5D5D",
"v  c gray39",
"b  c #646464",
"n  c gray40",
"m  c #6D6D6D",
"M  c gray43",
"N  c #6F6F6F",
"B  c #727272",
"V  c gray45",
"C  c gray46",
"Z  c #777777",
"A  c #797979",
"S  c gray48",
"D  c gray50",
"F  c #838383",
"G  c #868686",
"H  c #898989",
"J  c gray54",
"K  c #8B8B8B",
"L  c gray55",
"P  c gray58",
"I  c #959595",
"U  c gray62",
"Y  c gray65",
"T  c #A9A9A9",
"R  c #AFAFAF",
"E  c #B4B4B4",
"W  c gray71",
"Q  c #B6B6B6",
"!  c gray72",
"~  c #B9B9B9",
"^  c #BCBCBC",
"/  c gray",
"(  c gray75",
")  c #C0C0C0",
"_  c gray76",
"`  c #C3C3C3",
"'  c #C5C5C5",
"]  c #C6C6C6",
"[  c gray78",
"{  c #C8C8C8",
"}  c gray79",
"|  c #CECECE",
" . c gray81",
".. c gray82",
"X. c LightGray",
"o. c #D7D7D7",
"O. c #DADADA",
"+. c #DDDDDD",
"@. c gray87",
"#. c gray88",
"$. c #E1E1E1",
"%. c #E4E4E4",
"&. c #E9E9E9",
"*. c gray92",
"=. c #ECECEC",
"-. c #EFEFEF",
";. c #F1F1F1",
":. c gray95",
">. c #F4F4F4",
",. c gray96",
"<. c gray97",
"1. c #F8F8F8",
"2. c #F9F9F9",
"3. c gray98",
"4. c #FBFBFB",
"5. c gray99",
"6. c #FDFDFD",
"7. c white",
/* pixels */
"                                          ",
"                                          ",
"              > g B K K M d *             ",
"          * c ) <.7.7.7.7.:.^ l @         ",
"        5 U <.7.7.7.7.7.7.7.7.:.F &       ",
"      t ) 7.7.7.7.7.7.7.7.7.7.7.4.B       ",
"    7 [ 7.7.7.7.7.7.7.7.7.7.7.7.7.O.0     ",
"    M 7.7.7.7.7.7.7.:.<.7.7.7.7.7.7.x     ",
"    F 7.7.7.7.7.%.S a j ^ 7.7.7.7.7.C     ",
"    h -.7.7.7.[ g       B 7.7.7.7.7.B     ",
"    @ x W [ K 5       > ~ 7.7.7.7.4.x     ",
"        @ &         < P 4.7.7.7.7.*.t     ",
"                  i E 4.7.7.7.7.7.R &     ",
"              & n +.7.7.7.7.7.7.-.h       ",
"            7 U <.7.7.7.7.7.7.4.D @       ",
"          g } 7.7.7.7.7.7.7.<.G *         ",
"        j #.7.7.7.7.7.7.7.O.v &           ",
"      w O.7.7.7.7.7.7.4.T i               ",
"    @ P 7.7.7.7.7.7.O.n &                 ",
"    7 #.7.7.7.7.7.W t                     ",
"    l 4.7.7.7.7.} 0 & > < 3 < @           ",
"    S 7.7.7.7.7.X.W ) } ..X.| E B 5       ",
"    K 7.7.7.7.7.7.7.7.7.7.7.7.7.7.) w     ",
"    K 7.7.7.7.7.7.7.7.7.7.7.7.7.7.7.K     ",
"    C 7.7.7.7.7.7.7.7.7.7.7.7.7.7.7.Y     ",
"    a *.7.7.7.7.7.7.7.7.7.7.7.7.7.7.M     ",
"    @ n ..-.:.*.+...| [ ^ ~ ..:.*.P >     ",
"        < i a t 7 3 > * & & < p w &       ",
"                                          ",
"                                          "
};
