/* XPM */
static char *fontbolt_23_[] = {
/* columns rows colors chars-per-pixel */
"21 30 60 1 ",
"  c black",
". c #060606",
"X c #090909",
"o c #0C0C0C",
"O c #101010",
"+ c gray8",
"@ c #191919",
"# c gray11",
"$ c #232323",
"% c #272727",
"& c #282828",
"* c #2D2D2D",
"= c #313131",
"- c #353535",
"; c #3F3F3F",
": c gray25",
"> c gray28",
", c #484848",
"< c gray32",
"1 c #565656",
"2 c #5B5B5B",
"3 c gray37",
"4 c #626262",
"5 c #656565",
"6 c DimGray",
"7 c #6F6F6F",
"8 c gray44",
"9 c #767676",
"0 c gray48",
"q c #7E7E7E",
"w c #868686",
"e c gray54",
"r c #8B8B8B",
"t c #909090",
"y c #989898",
"u c #9D9D9D",
"i c gray64",
"p c #A5A5A5",
"a c gray66",
"s c gray68",
"d c gray70",
"f c #B7B7B7",
"g c gray73",
"h c gray",
"j c gray76",
"k c #C5C5C5",
"l c gray80",
"z c #CDCDCD",
"x c LightGray",
"c c gray84",
"v c #D8D8D8",
"b c #DDDDDD",
"n c gray88",
"m c gray90",
"M c #EAEAEA",
"N c gray93",
"B c gray94",
"V c #F6F6F6",
"C c #F9F9F9",
"Z c white",
/* pixels */
"ZZZZZZZZ     ZZZZZZZZ",
"ZZZZZZ          ZZZZZ",
"ZZZZZ            ZZZZ",
"ZZZ     .@=*@.    ZZZ",
"ZZ    .>icMMcu:.   ZZ",
"ZZ   @tBZZZZZZM9X  ZZ",
"ZZ  %fZZCzafmZZV4  ZZ",
"ZZ +gZZb4+ .=sZZjo ZZ",
"ZZ $bZg-     %nZn% ZZ",
"ZZ .:2@      @vZb# ZZ",
"ZZ           ;BZkO ZZ",
"ZZ          opZZe  ZZ",
"ZZZ        OeCZm-  ZZ",
"ZZZZZ     &pCZV9   ZZ",
"ZZZZ    X1xZZN0X   ZZ",
"ZZZ    #tBZZx1.   ZZZ",
"ZZ    -jZZBy%    ZZZZ",
"ZZ   :vZZz1X    ZZZZZ",
"ZZ  @zZZd%     ZZZZZZ",
"ZZ  9ZZg@        ZZZZ",
"ZZ XhZB>           ZZ",
"ZZ $bZkX           ZZ",
"ZZ *MZg-:<36808,O   Z",
"ZZ *MZVNVZZZZZZVf#  Z",
"ZZ @vZZZZZZZZZZZC;  Z",
"ZZ .<uauw975216uqo  Z",
"ZZ    .             Z",
"ZZ                 ZZ",
"ZZZ               ZZZ",
"ZZZZZZZZZZZZZZZZZZZZZ"
};
