/* XPM */
static char *fontbolt_24__alpha[] = {
/* columns rows colors chars-per-pixel */
"21 30 122 2 ",
"   c black",
".  c #010101",
"X  c #020202",
"o  c gray1",
"O  c #040404",
"+  c gray2",
"@  c #060606",
"#  c #070707",
"$  c #090909",
"%  c gray4",
"&  c #0B0B0B",
"*  c gray5",
"=  c #0E0E0E",
"-  c gray6",
";  c #101010",
":  c gray7",
">  c gray8",
",  c gray9",
"<  c gray10",
"1  c #1B1B1B",
"2  c #1E1E1E",
"3  c gray13",
"4  c #222222",
"5  c #232323",
"6  c gray15",
"7  c #282828",
"8  c gray16",
"9  c gray19",
"0  c #313131",
"q  c #323232",
"w  c #343434",
"e  c #373737",
"r  c gray22",
"t  c gray23",
"y  c #3C3C3C",
"u  c gray24",
"i  c #3E3E3E",
"p  c #3F3F3F",
"a  c gray25",
"s  c gray26",
"d  c #444444",
"f  c gray27",
"g  c #464646",
"h  c #494949",
"j  c gray29",
"k  c #515151",
"l  c #535353",
"z  c #555555",
"x  c #5B5B5B",
"c  c gray36",
"v  c gray37",
"b  c #5F5F5F",
"n  c gray39",
"m  c #676767",
"M  c #686868",
"N  c DimGray",
"B  c #6C6C6C",
"V  c #6D6D6D",
"C  c #727272",
"Z  c #747474",
"A  c #767676",
"S  c #777777",
"D  c #7E7E7E",
"F  c gray50",
"G  c #808080",
"H  c #868686",
"J  c #8B8B8B",
"K  c #8D8D8D",
"L  c gray56",
"P  c #909090",
"I  c #929292",
"U  c #979797",
"Y  c #9A9A9A",
"T  c #9F9F9F",
"R  c #A0A0A0",
"E  c gray64",
"W  c #A5A5A5",
"Q  c gray65",
"!  c #A7A7A7",
"~  c #AAAAAA",
"^  c gray67",
"/  c #AEAEAE",
"(  c #AFAFAF",
")  c #B2B2B2",
"_  c gray71",
"`  c gray72",
"'  c gray75",
"]  c #C0C0C0",
"[  c #C3C3C3",
"{  c #C8C8C8",
"}  c #CACACA",
"|  c gray80",
" . c #CDCDCD",
".. c gray82",
"X. c gray84",
"o. c #DDDDDD",
"O. c gray87",
"+. c #DFDFDF",
"@. c gray88",
"#. c #E1E1E1",
"$. c #E4E4E4",
"%. c gray90",
"&. c #E6E6E6",
"*. c #E7E7E7",
"=. c #E9E9E9",
"-. c #EAEAEA",
";. c gray92",
":. c #ECECEC",
">. c gray93",
",. c #EFEFEF",
"<. c #F1F1F1",
"1. c gray95",
"2. c #F3F3F3",
"3. c gray96",
"4. c #F6F6F6",
"5. c gray97",
"6. c #F8F8F8",
"7. c #F9F9F9",
"8. c gray99",
"9. c #FDFDFD",
"0. c #FEFEFE",
"q. c white",
/* pixels */
"                                          ",
"                                          ",
"            + 0 B I U H n 0 $             ",
"        + s Q =.q.q.q.q.q.=.~ y           ",
"      * D :.q.q.q.q.q.q.q.q.q.%.v         ",
"      n 6.q.q.q.q.q.q.q.q.q.q.q.%.t       ",
"    + / q.q.q.q.q.q.q.q.q.q.q.q.q.Q +     ",
"    + E q.q.q.q.q.:.O.=.q.q.q.q.q.$.5     ",
"      d $.q.q.<.U w 1 0 E q.q.q.q.<.y     ",
"        y I I d +       n q.q.q.q.5.s     ",
"                > t n T %.q.q.q.q.:.0     ",
"            * Z | :.q.q.q.q.q.q.q.} >     ",
"          + D q.q.q.q.q.q.q.q.q.6.B       ",
"          * } q.q.q.q.q.q.q.q.q.` *       ",
"          $ _ q.q.q.q.q.q.q.q.q.O.s       ",
"            d X.q.q.q.q.q.q.q.q.q.] >     ",
"              5 v D ) :.q.q.q.q.q.6.z     ",
"                    $ d ..q.q.q.q.q.L     ",
"      + 6 w >           z 6.q.q.q.q.~     ",
"    $ G $.<.} s         8 %.q.q.q.q./ +   ",
"    k 6.q.q.q.} 6       v 5.q.q.q.q.T     ",
"    G q.q.q.q.q.] C v J %.q.q.q.q.q.n     ",
"    v 6.q.q.q.q.q.q.q.q.q.q.q.q.q.O.6     ",
"    1 } q.q.q.q.q.q.q.q.q.q.q.q.q.Z       ",
"      h %.q.q.q.q.q.q.q.q.q.q.q.T ;       ",
"        h | q.q.q.q.q.q.q.q.<.L >         ",
"          2 Z ] $.5.5.<.O.Q h +           ",
"              * 6 s d y 5 $               ",
"                                          ",
"                                          "
};
