/* XPM */
static char *fontbolt_25__alpha[] = {
/* columns rows colors chars-per-pixel */
"23 30 86 1 ",
"  c black",
". c #010101",
"X c gray1",
"o c #040404",
"O c gray2",
"+ c gray3",
"@ c #090909",
"# c gray4",
"$ c #0C0C0C",
"% c gray6",
"& c #111111",
"* c #131313",
"= c #191919",
"- c #232323",
"; c #252525",
": c gray15",
"> c #272727",
", c #282828",
"< c gray16",
"1 c #2A2A2A",
"2 c gray18",
"3 c #313131",
"4 c gray20",
"5 c #3C3C3C",
"6 c gray26",
"7 c #444444",
"8 c gray28",
"9 c #494949",
"0 c gray35",
"q c gray36",
"w c #5F5F5F",
"e c #606060",
"r c #656565",
"t c #686868",
"y c gray42",
"u c gray43",
"i c gray44",
"p c gray46",
"a c #797979",
"s c #7B7B7B",
"d c #7C7C7C",
"f c #7E7E7E",
"g c #838383",
"h c gray52",
"j c #868686",
"k c #888888",
"l c #8B8B8B",
"z c gray55",
"x c gray56",
"c c #959595",
"v c #989898",
"b c #9A9A9A",
"n c #9B9B9B",
"m c gray62",
"M c #A0A0A0",
"N c gray66",
"B c gray67",
"V c gray72",
"C c gray74",
"Z c #C3C3C3",
"A c #C5C5C5",
"S c #C6C6C6",
"D c gray79",
"F c #CECECE",
"G c gray82",
"H c #D2D2D2",
"J c gray83",
"K c #D5D5D5",
"L c gray84",
"P c #D7D7D7",
"I c gray85",
"U c gray86",
"Y c #DFDFDF",
"T c #E6E6E6",
"R c #E7E7E7",
"E c #E9E9E9",
"W c #EEEEEE",
"Q c gray94",
"! c #F1F1F1",
"~ c #F4F4F4",
"^ c gray96",
"/ c #F6F6F6",
"( c gray97",
") c #FBFBFB",
"_ c #FDFDFD",
"` c white",
/* pixels */
"                       ",
"                       ",
"            :pnk3      ",
"           6J```I3     ",
"          -F`````s     ",
"         +v``````z     ",
"         0~``````z     ",
"        :H```````c     ",
"       +v````````z     ",
"       q~````````z     ",
"      1J`````````z     ",
"     +n``````````c     ",
"     e~````QQ````z     ",
"    1J`````zS````z     ",
"   *N`````H5D````cO    ",
"  Ok``````QU~````TN9O  ",
"  6W```````````````E7  ",
"  h`````````````````k  ",
"  f`````````````````h  ",
"  :V~``````````````J3  ",
"   *9erttiisU````Hf1   ",
"           +S````c     ",
"           %S````z     ",
"           %D````z     ",
"           +C````k     ",
"            f```)e     ",
"            =MTTc*     ",
"             +11+      ",
"                       ",
"                       "
};
