/* XPM */
static char *fontbolt_25_[] = {
/* columns rows colors chars-per-pixel */
"23 30 50 1 ",
"  c #000000",
". c #050505",
"X c #0a0a0a",
"o c #0d0d0d",
"O c #101010",
"+ c #141414",
"@ c #181818",
"# c #1c1c1c",
"$ c #232323",
"% c #262626",
"& c #292929",
"* c #2e2e2e",
"= c #313131",
"- c #383838",
"; c #3E3E3E",
": c #404040",
"> c #454545",
", c #575757",
"< c #5A5A5A",
"1 c #5D5D5D",
"2 c #616161",
"3 c #6A6A6A",
"4 c #6e6e6e",
"5 c #717171",
"6 c #777777",
"7 c #828282",
"8 c #858585",
"9 c #898989",
"0 c #8f8f8f",
"q c #939393",
"w c #969696",
"e c #999999",
"r c #9F9F9F",
"t c #ababab",
"y c #adadad",
"u c #B6B6B6",
"i c #B9B9B9",
"p c #C0C0C0",
"a c #CECECE",
"s c #d1d1d1",
"d c #d3d3d3",
"f c #D8D8D8",
"g c #DFDFDF",
"h c #E2E2E2",
"j c #e5e5e5",
"k c #ebebeb",
"l c #F3F3F3",
"z c #f7f7f7",
"x c #FBFBFB",
"c c #ffffff",
/* pixels */
"ccccccccccccccccccccccc",
"cccccccccccc     cccccc",
"cccccccccc         cccc",
"ccccccccc    #:%   cccc",
"ccccccccc   >azs$   ccc",
"cccccccc   $accl;   ccc",
"ccccccc   .wcccl;   ccc",
"cccccc    ,lclcl;   ccc",
"cccccc   %scfrcl;   ccc",
"ccccc   .ecx35cl;   ccc",
"ccccc   <zcuo5cl;   ccc",
"cccc   %scj; 5cl;   ccc",
"ccc   Xrcc7  5cz;   ccc",
"ccc   1zcp@  5cl;   ccc",
"cc   &sck>   5cl;    cc",
"c   +ycc7    4cl;     c",
"c  .9ccztq097icxr5;    ",
"   *kcccccccccccccj=   ",
"   #yffgghhhjlccxza&   ",
"c   X@@#$#$%$8cz4;#   c",
"c            5cl;     c",
"cccccccccc   4cl;   ccc",
"cccccccccc   5cl;   ccc",
"cccccccccc   6cl;   ccc",
"cccccccccc   2cl-   ccc",
"cccccccccc   @08O   ccc",
"ccccccccccc        cccc",
"ccccccccccc       ccccc",
"ccccccccccccccccccccccc",
"ccccccccccccccccccccccc"
};
