/* XPM */
static char *fontbolt_26__alpha[] = {
/* columns rows colors chars-per-pixel */
"22 30 128 2 ",
"   c #000000",
".  c #010101",
"X  c #020202",
"o  c #040404",
"O  c #050505",
"+  c #060606",
"@  c #080808",
"#  c #090909",
"$  c #0a0a0a",
"%  c #0C0C0C",
"&  c #0d0d0d",
"*  c #0E0E0E",
"=  c #0f0f0f",
"-  c #101010",
";  c #1a1a1a",
":  c #1B1B1B",
">  c #1c1c1c",
",  c #1f1f1f",
"<  c #202020",
"1  c #212121",
"2  c #222222",
"3  c #232323",
"4  c #282828",
"5  c #292929",
"6  c #2b2b2b",
"7  c #2e2e2e",
"8  c #313131",
"9  c #323232",
"0  c #353535",
"q  c #383838",
"w  c #393939",
"e  c #3C3C3C",
"r  c #3d3d3d",
"t  c #3E3E3E",
"y  c #3F3F3F",
"u  c #434343",
"i  c #444444",
"p  c #464646",
"a  c #474747",
"s  c #484848",
"d  c #494949",
"f  c #4B4B4B",
"g  c #4C4C4C",
"h  c #4d4d4d",
"j  c #4f4f4f",
"k  c #505050",
"l  c #515151",
"z  c #545454",
"x  c #565656",
"c  c #595959",
"v  c #5A5A5A",
"b  c #5e5e5e",
"n  c #5F5F5F",
"m  c #606060",
"M  c #616161",
"N  c #636363",
"B  c #656565",
"V  c #686868",
"C  c #6A6A6A",
"Z  c #6b6b6b",
"A  c #6e6e6e",
"S  c #747474",
"D  c #757575",
"F  c #787878",
"G  c #797979",
"H  c #7a7a7a",
"J  c #7B7B7B",
"K  c #7C7C7C",
"L  c #7d7d7d",
"P  c #808080",
"I  c #818181",
"U  c #828282",
"Y  c #858585",
"T  c #8a8a8a",
"R  c #8E8E8E",
"E  c #909090",
"W  c #919191",
"Q  c #959595",
"!  c #979797",
"~  c #9F9F9F",
"^  c #A5A5A5",
"/  c #A7A7A7",
"(  c #a8a8a8",
")  c #AAAAAA",
"_  c #ababab",
"`  c #ACACAC",
"'  c #AFAFAF",
"]  c #b3b3b3",
"[  c #b5b5b5",
"{  c #b8b8b8",
"}  c #B9B9B9",
"|  c #bababa",
" . c #BCBCBC",
".. c #c2c2c2",
"X. c #C5C5C5",
"o. c #c7c7c7",
"O. c #C8C8C8",
"+. c #CACACA",
"@. c #d6d6d6",
"#. c #D8D8D8",
"$. c #dcdcdc",
"%. c #DDDDDD",
"&. c #dedede",
"*. c #E1E1E1",
"=. c #E2E2E2",
"-. c #e3e3e3",
";. c #e5e5e5",
":. c #E6E6E6",
">. c #E9E9E9",
",. c #EAEAEA",
"<. c #ebebeb",
"1. c #ECECEC",
"2. c #ededed",
"3. c #EEEEEE",
"4. c #EFEFEF",
"5. c #F1F1F1",
"6. c #f2f2f2",
"7. c #F3F3F3",
"8. c #F4F4F4",
"9. c #F6F6F6",
"0. c #f7f7f7",
"q. c #F9F9F9",
"w. c #fafafa",
"e. c #FBFBFB",
"r. c #fcfcfc",
"t. c #FDFDFD",
"y. c #FEFEFE",
"u. c #ffffff",
/* pixels */
"                                            ",
"                                            ",
"      $ t n v l z z n M B n M F F 0 O       ",
"    $ R 5.e.u.e.e.u.u.u.u.u.u.u.u.=.f       ",
"    7 1.u.u.u.u.u.u.u.u.u.u.u.u.u.u.[ O     ",
"    5 :.u.u.u.u.u.u.u.u.u.u.u.u.u.u.X.*     ",
"    $ } u.u.u.u.u.u.u.u.u.u.u.u.u.u.L       ",
"    O ` u.u.u.u.e.1.<.<.<.<.1.:.O.S *       ",
"    $ } u.u.u.u.$.L Q ( ( Q B 9 *           ",
"    * O.u.u.u.u.e.8.u.u.u.u.1.( w           ",
"    ; $.u.u.u.u.u.u.u.u.u.u.u.u.&.f         ",
"    5 :.u.u.u.u.u.u.u.u.u.u.u.u.u.@.5       ",
"    w 5.u.u.u.u.u.u.u.u.u.u.u.u.u.u.Q       ",
"    f e.u.u.u.u.u.u.5.=.:.u.u.u.u.u.$.2     ",
"    n u.u.u.u.u.u.] i 2 5 ( u.u.u.u.u.z     ",
"    z e.u.u.u.u.` ;       i 5.u.u.u.u.F     ",
"    , X.u.u.u.[ 2         2 =.u.u.u.u.Q     ",
"      5 R ] L ;           , &.u.u.u.u.Q     ",
"                          9 1.u.u.u.u.T     ",
"      , A P u O           F u.u.u.u.u.Z     ",
"    2 ..u.u.1.Z         f =.u.u.u.u.5.t     ",
"    S u.u.u.u.1.L i f P =.u.u.u.u.u...-     ",
"    Y u.u.u.u.u.u.8.8.u.u.u.u.u.u.e.M       ",
"    i 1.u.u.u.u.u.u.u.u.u.u.u.u.u.^ *       ",
"    O P u.u.u.u.u.u.u.u.u.u.u.u. .2         ",
"      * P 1.u.u.u.u.u.u.u.u.8.~ 2           ",
"        O i ^ &.5.u.e.5.&.^ l $             ",
"            O 2 t g g t 2 O                 ",
"                                            ",
"                                            "
};
