/* XPM */
static char *fontbolt_26_[] = {
/* columns rows colors chars-per-pixel */
"22 30 57 1 ",
"  c black",
". c gray2",
"X c gray3",
"o c #0E0E0E",
"O c #131313",
"+ c gray8",
"@ c #181818",
"# c #1D1D1D",
"$ c #202020",
"% c #272727",
"& c #282828",
"* c gray17",
"= c #353535",
"- c gray23",
"; c #3F3F3F",
": c gray25",
"> c gray28",
", c gray31",
"< c #505050",
"1 c #565656",
"2 c #5D5D5D",
"3 c #626262",
"4 c DimGray",
"5 c gray42",
"6 c #717171",
"7 c gray48",
"8 c #7E7E7E",
"9 c #838383",
"0 c gray53",
"q c #8B8B8B",
"w c gray57",
"e c gray59",
"r c #989898",
"t c #9D9D9D",
"y c #A0A0A0",
"u c #A4A4A4",
"i c #AAAAAA",
"p c #AFAFAF",
"a c #B1B1B1",
"s c gray70",
"d c #B9B9B9",
"f c #BBBBBB",
"g c #C3C3C3",
"h c #CBCBCB",
"j c #CDCDCD",
"k c LightGray",
"l c #D7D7D7",
"z c #D8D8D8",
"x c gainsboro",
"c c gray88",
"v c #E7E7E7",
"b c gray91",
"n c #EFEFEF",
"m c gray94",
"M c gray96",
"N c gray98",
"B c white",
/* pixels */
"BBBBBBBBBBBBBBB  BBBBB",
"BBB                BBB",
"BB                  BB",
"BB  X@@O++####@&$   BB",
"BB  8lkjjklzxzlvz:  BB",
"BB  wBBBBBBBBBBBB2  BB",
"BB  1NBcdapiipat3o  BB",
"BB  <NB9X... ..     BB",
"BB  2BB4           BBB",
"BB  4BN, X$&&@.    BBB",
"BB  9Bm<6dxbblt=   BBB",
"BB  rBNxBBBBBBBx>   BB",
"BB .aBBBBbaerjBBk$  BB",
"BB ogBBBa=X  @uBB7  BB",
"BB +zBBp@     &vBgo BB",
"BB osBa$      .pBc% BB",
"BB  %<@   BBB  wBm= BB",
"BB        BBB  qBm; BB",
"BB       BBB   yBn& BB",
"BB       BB   @kBz# BB",
"BB  @&.       4NBu. BB",
"BB @db4      >cBM<  BB",
"BB %vBm6#oo%6cBByo  BB",
"BB .8NBNzdgxBBBd$   BB",
"BB  o8bBBBBBBmr$   BBB",
"BB   .-9dhja9;X   BBBB",
"BBB     X++.      BBBB",
"BBBB            BBBBBB",
"BBBBBB        BBBBBBBB",
"BBBBBBBBBBBBBBBBBBBBBB"
};
