/* XPM */
static char *fontbolt_27__alpha[] = {
/* columns rows colors chars-per-pixel */
"21 30 112 2 ",
"   c #000000",
".  c #010101",
"X  c #020202",
"o  c #030303",
"O  c #040404",
"+  c #050505",
"@  c #060606",
"#  c #070707",
"$  c #080808",
"%  c #090909",
"&  c #0C0C0C",
"*  c #0d0d0d",
"=  c #0f0f0f",
"-  c #101010",
";  c #111111",
":  c #121212",
">  c #141414",
",  c #151515",
"<  c #171717",
"1  c #1a1a1a",
"2  c #1D1D1D",
"3  c #1f1f1f",
"4  c #232323",
"5  c #262626",
"6  c #2A2A2A",
"7  c #2b2b2b",
"8  c #2e2e2e",
"9  c #2F2F2F",
"0  c #303030",
"q  c #353535",
"w  c #363636",
"e  c #393939",
"r  c #3A3A3A",
"t  c #3b3b3b",
"y  c #3C3C3C",
"u  c #3d3d3d",
"i  c #3E3E3E",
"p  c #3F3F3F",
"a  c #424242",
"s  c #484848",
"d  c #4B4B4B",
"f  c #4C4C4C",
"g  c #4d4d4d",
"h  c #515151",
"j  c #525252",
"k  c #535353",
"l  c #545454",
"z  c #565656",
"x  c #5D5D5D",
"c  c #5e5e5e",
"v  c #616161",
"b  c #686868",
"n  c #696969",
"m  c #6C6C6C",
"M  c #717171",
"N  c #727272",
"B  c #747474",
"V  c #757575",
"C  c #767676",
"Z  c #787878",
"A  c #7a7a7a",
"S  c #7B7B7B",
"D  c #7d7d7d",
"F  c #848484",
"G  c #888888",
"H  c #8a8a8a",
"J  c #8D8D8D",
"K  c #8E8E8E",
"L  c #909090",
"P  c #929292",
"I  c #939393",
"U  c #969696",
"Y  c #979797",
"T  c #999999",
"R  c #9D9D9D",
"E  c #adadad",
"W  c #B6B6B6",
"Q  c #b8b8b8",
"!  c #bdbdbd",
"~  c #bfbfbf",
"^  c #C0C0C0",
"/  c #c4c4c4",
"(  c #C6C6C6",
")  c #C8C8C8",
"_  c #CACACA",
"`  c #cccccc",
"'  c #cfcfcf",
"]  c #d4d4d4",
"[  c #d9d9d9",
"{  c #dcdcdc",
"}  c #DDDDDD",
"|  c #dedede",
" . c #e0e0e0",
".. c #E1E1E1",
"X. c #E4E4E4",
"o. c #e5e5e5",
"O. c #E6E6E6",
"+. c #EAEAEA",
"@. c #ebebeb",
"#. c #EEEEEE",
"$. c #EFEFEF",
"%. c #f0f0f0",
"&. c #f2f2f2",
"*. c #F3F3F3",
"=. c #F4F4F4",
"-. c #F6F6F6",
";. c #F9F9F9",
":. c #fafafa",
">. c #fcfcfc",
",. c #FDFDFD",
"<. c #FEFEFE",
"1. c #ffffff",
/* pixels */
"                                          ",
"                                          ",
"                    a Y P e               ",
"                O b @.1.1.| e             ",
"              O b @.1.1.1.1.G             ",
"            O m %.1.1.1.1.1.F             ",
"            v %.1.1.1.1.1.[ 8             ",
"          a O.1.1.1.1.1.O.g               ",
"        1 / 1.1.1.1.1.O.h                 ",
"        D 1.1.1.1.1. .d                   ",
"      5 | 1.1.1.1.1.! V c w &             ",
"      N 1.1.1.1.1.1.1.1.1.@.W d O         ",
"    & ^ 1.1.1.1.1.1.1.1.1.1.1.@.N O       ",
"    8 @.1.1.1.1.1.1.1.1.1.1.1.1.@.z       ",
"    z 1.1.1.1.1.1.1.1.1.1.1.1.1.1./ ,     ",
"    V 1.1.1.1.1.1.%.@.%.1.1.1.1.1.=.d     ",
"    G 1.1.1.1.%.K e 6 u P :.1.1.1.1.A     ",
"    P 1.1.1.1./ :       , _ 1.1.1.1.Y     ",
"    G 1.1.1.1._ :       O Q 1.1.1.1.R     ",
"    A 1.1.1.1. .4       : _ 1.1.1.1.P     ",
"    z 1.1.1.1.:.c       a @.1.1.1.1.V     ",
"    6 O.1.1.1.1.' a 3 u ! 1.1.1.1.=.u     ",
"    % E 1.1.1.1.1.%.| %.1.1.1.1.1.! &     ",
"      g %.1.1.1.1.1.1.1.1.1.1.1.%.h       ",
"      O K 1.1.1.1.1.1.1.1.1.1.:.F %       ",
"        : P %.1.1.1.1.1.1.1.@.A &         ",
"          % h E | %.%.@.] T u O           ",
"              % 3 w e 0 1                 ",
"                                          ",
"                                          "
};
