/* XPM */
static char *fontbolt_27_[] = {
/* columns rows colors chars-per-pixel */
"21 30 56 1 ",
"  c black",
". c #070707",
"X c gray3",
"o c #0E0E0E",
"O c #131313",
"+ c #151515",
"@ c #191919",
"# c #1E1E1E",
"$ c #252525",
"% c gray16",
"& c #2C2C2C",
"* c gray19",
"= c gray21",
"- c #393939",
"; c #3F3F3F",
": c #434343",
"> c #464646",
", c #4B4B4B",
"< c #4E4E4E",
"1 c #535353",
"2 c gray33",
"3 c #585858",
"4 c gray37",
"5 c #626262",
"6 c #676767",
"7 c gray43",
"8 c gray44",
"9 c #767676",
"0 c #7C7C7C",
"q c gray50",
"w c #868686",
"e c #888888",
"r c #8D8D8D",
"t c gray57",
"y c gray59",
"u c #989898",
"i c gray64",
"p c #A5A5A5",
"a c gray67",
"s c gray68",
"d c #B2B2B2",
"f c #B6B6B6",
"g c gray72",
"h c #C3C3C3",
"j c gray77",
"k c #CDCDCD",
"l c #D0D0D0",
"z c gray84",
"x c gainsboro",
"c c #E2E2E2",
"v c #E6E6E6",
"b c #E9E9E9",
"n c #F3F3F3",
"m c gray96",
"M c #F8F8F8",
"N c white",
/* pixels */
"NNNNNNNNNNNNNNNNNNNNN",
"NNNNNNNNN     NNNNNNN",
"NNNNNNNN        NNNNN",
"NNNNNNN   .=*    NNNN",
"NNNNNN   .7bx&   NNNN",
"NNNNN   .8mNx%   NNNN",
"NNNN   .8nNb1    NNNN",
"NNN    6nNb3    NNNNN",
"NNN   >bNv2    NNNNNN",
"NN   @jNb2    NNNNNNN",
"NN   9NM8        NNNN",
"N   #zNh+O%%@.    NNN",
"N   4MNiekbbzi>.   NN",
"N  .iNNMNNNNNNn9.   N",
"N  +lNNNxgagxNNn1   N",
"   %bNbw$X X$tMNfo  N",
"   -nNw      OfNv%   ",
"   ;mN8   N   9Nm>   ",
"   -nN0   N   5Nm,   ",
"   %bNy   N   9Nm:   ",
"N  +kNjO     .pNc$   ",
"N   uNm2     -vNsX  N",
"N   :nNl;. .=jNm<   N",
"N   .tNNvatsvNMe.   N",
"NN   +ynNNNNNb0o   NN",
"NNN   X>rdga0=X   NNN",
"NNNN     .X.     NNNN",
"NNNNN          NNNNNN",
"NNNNNNNNNNNNNNNNNNNNN",
"NNNNNNNNNNNNNNNNNNNNN"
};
