/* XPM */
static char *fontbolt_28__alpha[] = {
/* columns rows colors chars-per-pixel */
"24 30 100 2 ",
"   c #000000",
".  c #010101",
"X  c #030303",
"o  c #040404",
"O  c #050505",
"+  c #070707",
"@  c #0a0a0a",
"#  c #0B0B0B",
"$  c #0d0d0d",
"%  c #0f0f0f",
"&  c #101010",
"*  c #111111",
"=  c #151515",
"-  c #171717",
";  c #191919",
":  c #1a1a1a",
">  c #1B1B1B",
",  c #1f1f1f",
"<  c #202020",
"1  c #212121",
"2  c #262626",
"3  c #272727",
"4  c #2A2A2A",
"5  c #2D2D2D",
"6  c #2F2F2F",
"7  c #323232",
"8  c #333333",
"9  c #363636",
"0  c #383838",
"q  c #3b3b3b",
"w  c #3C3C3C",
"e  c #3d3d3d",
"r  c #3E3E3E",
"t  c #414141",
"y  c #464646",
"u  c #494949",
"i  c #4d4d4d",
"p  c #4f4f4f",
"a  c #505050",
"s  c #555555",
"d  c #575757",
"f  c #5B5B5B",
"g  c #5c5c5c",
"h  c #5D5D5D",
"j  c #5e5e5e",
"k  c #5F5F5F",
"l  c #606060",
"z  c #646464",
"x  c #676767",
"c  c #696969",
"v  c #6F6F6F",
"b  c #707070",
"n  c #757575",
"m  c #767676",
"M  c #797979",
"N  c #7B7B7B",
"B  c #7E7E7E",
"V  c #818181",
"C  c #828282",
"Z  c #838383",
"A  c #868686",
"S  c #898989",
"D  c #919191",
"F  c #9A9A9A",
"G  c #A5A5A5",
"H  c #a8a8a8",
"J  c #AAAAAA",
"K  c #B1B1B1",
"L  c #B2B2B2",
"P  c #b3b3b3",
"I  c #B4B4B4",
"U  c #B7B7B7",
"Y  c #BBBBBB",
"T  c #bfbfbf",
"R  c #c2c2c2",
"E  c #C5C5C5",
"W  c #CBCBCB",
"Q  c #D2D2D2",
"!  c #d3d3d3",
"~  c #D5D5D5",
"^  c #DADADA",
"/  c #dbdbdb",
"(  c #E2E2E2",
")  c #E6E6E6",
"_  c #e8e8e8",
"`  c #E9E9E9",
"'  c #ebebeb",
"]  c #ededed",
"[  c #EFEFEF",
"{  c #f0f0f0",
"}  c #F3F3F3",
"|  c #f5f5f5",
" . c #F6F6F6",
".. c #f7f7f7",
"X. c #fafafa",
"o. c #FBFBFB",
"O. c #fcfcfc",
"+. c #FDFDFD",
"@. c #FEFEFE",
"#. c #ffffff",
/* pixels */
"                                                ",
"                                                ",
"      > c S S A V N n v c l l h f f f u =       ",
"    > U #.#.#.#.#.#.#.#.#.#.#.#.#.o.#. .R 2     ",
"    h #.#.#.#.#.#.#.#.#.#.#.#.#.#.#.#.#.#.B     ",
"    b #.#.#.#.#.#.#.#.#.#.#.#.#.#.#.#.#.#.B     ",
"    q ' #.#.#.#.#.#.#.#.#.#.#.#.#.#.#.#.' 9     ",
"    o h E ( ) ) ' [ [ {  .#.#.#.#.#.#.o.B       ",
"        & < 2 4 5 8 9 w U #.#.#.#.#.#.F $       ",
"                      w ) #.#.#.#.#.K =         ",
"                    $ K #.#.#.#.#.~ 4           ",
"                    s  .#.#.#.#. .f             ",
"                  $ Y #.#.#.#.#.J @             ",
"                  a  .#.#.#.#.[ t               ",
"                @ G #.#.#.#.#.G o               ",
"                8 ' #.#.#.#.{ y                 ",
"                V #.#.#.#.#.U @                 ",
"              > ! #.#.#.#. .s                   ",
"              h o.#.#.#.#.R &                   ",
"            @ U #.#.#.#.#.x                     ",
"            w { #.#.#.#./ <                     ",
"            D #.#.#.#.#.F o                     ",
"          < / #.#.#.#. .p                       ",
"          s o.#.#.#.#.W =                       ",
"          N #.#.#.#.#.n                         ",
"          p  .#.#.#.! <                         ",
"          $ V )  .~ p                           ",
"            o 5 t <                             ",
"                                                ",
"                                                "
};
