/* XPM */
static char *fontbolt_28_[] = {
/* columns rows colors chars-per-pixel */
"24 30 53 1 ",
"  c #000000",
". c #040404",
"X c #080808",
"o c #0f0f0f",
"O c #131313",
"+ c #161616",
"@ c #1a1a1a",
"# c #1E1E1E",
"$ c #222222",
"% c #262626",
"& c #2b2b2b",
"* c #2F2F2F",
"= c #323232",
"- c #363636",
"; c #3d3d3d",
": c #414141",
"> c #444444",
", c #4B4B4B",
"< c #4d4d4d",
"1 c #4f4f4f",
"2 c #595959",
"3 c #636363",
"4 c #707070",
"5 c #757575",
"6 c #787878",
"7 c #888888",
"8 c #8f8f8f",
"9 c #969696",
"0 c #989898",
"q c #9F9F9F",
"w c #a3a3a3",
"e c #A4A4A4",
"r c #A9A9A9",
"t c #adadad",
"y c #b0b0b0",
"u c #B4B4B4",
"i c #B9B9B9",
"p c #BCBCBC",
"a c #C1C1C1",
"s c #C5C5C5",
"d c #CECECE",
"f c #D2D2D2",
"g c #D7D7D7",
"h c #d9d9d9",
"j c #DDDDDD",
"k c #E1E1E1",
"l c #E4E4E4",
"z c #ebebeb",
"x c #ECECEC",
"c c #f2f2f2",
"v c #F4F4F4",
"b c #F9F9F9",
"n c #ffffff",
/* pixels */
"nnnn        nnnnnnnnnnnn",
"nn                    nn",
"nn                    nn",
"nn  O==*&%$#@@+++++X  nn",
"nn orxxxzllkjhffdfdr@ nn",
"nn @hnnnnnnnnnnnnnnj$ nn",
"nn .<80qwrtyuiplnnv4  nn",
"nn       .X.XX-gnn9o  nn",
"nn           Oynnt+   nn",
"nnn          6nnd%   nnn",
"nnnnnnnnn   =lnx<   nnnn",
"nnnnnnnnn  Xqnn0.   nnnn",
"nnnnnnnn   :xnk*   nnnnn",
"nnnnnnnn  .enn8   nnnnnn",
"nnnnnnnn  -znz*  nnnnnnn",
"nnnnnnn  .7nn0.  nnnnnnn",
"nnnnnnn  #gnx;  nnnnnnnn",
"nnnnnn   3bntX  nnnnnnnn",
"nnnnnn  oinv,   nnnnnnnn",
"nnnnnn  :cnaO  nnnnnnnnn",
"nnnnn  .9nn4   nnnnnnnnn",
"nnnnn  %jnz*  nnnnnnnnnn",
"nnnnn  4nntX  nnnnnnnnnn",
"nnnnn opnb2  nnnnnnnnnnn",
"nnnnn #kns+  nnnnnnnnnnn",
"nnnnn X5y>   nnnnnnnnnnn",
"nnnnn   X   nnnnnnnnnnnn",
"nnnnn       nnnnnnnnnnnn",
"nnnnnn     nnnnnnnnnnnnn",
"nnnnnnnnnnnnnnnnnnnnnnnn"
};
