/* XPM */
static char *fontbolt_29__alpha[] = {
/* columns rows colors chars-per-pixel */
"22 30 119 2 ",
"   c black",
".  c #010101",
"X  c #020202",
"o  c gray1",
"O  c gray2",
"+  c #060606",
"@  c #070707",
"#  c gray3",
"$  c #090909",
"%  c #0C0C0C",
"&  c gray6",
"*  c #101010",
"=  c gray7",
"-  c #131313",
";  c gray8",
":  c #151515",
">  c gray9",
",  c gray10",
"<  c gray11",
"1  c #1D1D1D",
"2  c #202020",
"3  c #232323",
"4  c gray14",
"5  c #272727",
"6  c gray17",
"7  c #2D2D2D",
"8  c gray18",
"9  c gray19",
"0  c #313131",
"q  c #373737",
"w  c gray22",
"e  c #3C3C3C",
"r  c #3F3F3F",
"t  c #444444",
"y  c #464646",
"u  c gray29",
"i  c #4C4C4C",
"p  c #4E4E4E",
"a  c gray31",
"s  c #535353",
"d  c #555555",
"f  c #5A5A5A",
"g  c #5B5B5B",
"h  c gray36",
"j  c #5D5D5D",
"k  c #5F5F5F",
"l  c #606060",
"z  c #626262",
"x  c #656565",
"c  c gray40",
"v  c #6C6C6C",
"b  c #6F6F6F",
"n  c #717171",
"m  c #727272",
"M  c gray45",
"N  c #747474",
"B  c #777777",
"V  c gray47",
"C  c #7C7C7C",
"Z  c gray49",
"A  c #7E7E7E",
"S  c gray50",
"D  c #8B8B8B",
"F  c #8D8D8D",
"G  c gray57",
"H  c #939393",
"J  c gray58",
"K  c #959595",
"L  c #979797",
"P  c gray60",
"I  c #9A9A9A",
"U  c #9B9B9B",
"Y  c gray61",
"T  c #9D9D9D",
"R  c #A2A2A2",
"E  c gray64",
"W  c gray66",
"Q  c gray69",
"!  c gray70",
"~  c #B9B9B9",
"^  c #BCBCBC",
"/  c gray",
"(  c gray75",
")  c gray76",
"_  c #C3C3C3",
"`  c #C6C6C6",
"'  c gray79",
"]  c gray80",
"[  c #CECECE",
"{  c #D0D0D0",
"}  c #D2D2D2",
"|  c gray84",
" . c #DADADA",
".. c #E1E1E1",
"X. c #E2E2E2",
"o. c gray89",
"O. c #E4E4E4",
"+. c gray90",
"@. c #E6E6E6",
"#. c #E7E7E7",
"$. c #EAEAEA",
"%. c #ECECEC",
"&. c gray93",
"*. c #EFEFEF",
"=. c gray94",
"-. c #F1F1F1",
";. c gray95",
":. c #F3F3F3",
">. c #F4F4F4",
",. c gray96",
"<. c #F6F6F6",
"1. c #F8F8F8",
"2. c #F9F9F9",
"3. c gray98",
"4. c #FBFBFB",
"5. c gray99",
"6. c #FDFDFD",
"7. c #FEFEFE",
"8. c white",
/* pixels */
"                                            ",
"                                            ",
"              $ 8 k B S v a 1               ",
"            w E $.5.5.5.5.1.| S :           ",
"          k O.5.5.5.5.5.5.5.5.5.E :         ",
"        a $.5.5.5.5.5.5.5.5.5.5.1.D @       ",
"      , ] 5.5.5.5.5.5.5.5.5.5.5.5. .3       ",
"      k 5.5.5.5.5.=./ ~ $.5.5.5.5.1.a       ",
"      I 5.5.5.5.>.g % $ z 1.5.5.5.5.B       ",
"    @ ! 5.5.5.5.| :     w >.5.5.5.5.S       ",
"    @ Q 5.5.5.5.&.z , 9 E 5.5.5.5.5.B       ",
"      G 5.5.5.5.5.1.} O.5.5.5.5.5.1.u       ",
"      y >.5.5.5.5.5.5.5.5.5.5.5.5.` :       ",
"      $ Y 5.5.5.5.5.5.5.5.5.5.5.>.d         ",
"      $ L 5.5.5.5.5.5.5.5.5.5.5.5.! 1       ",
"      g 1.5.5.5.5.5.5.5.5.5.5.5.5.5.G @     ",
"    * / 5.5.5.5.5.5.' ` 1.5.5.5.5.5.$.8     ",
"    w =.5.5.5.5.O.v * : z O.5.5.5.5.5.c     ",
"    k 5.5.5.5.5.B         B 5.5.5.5.5.F     ",
"    n 5.5.5.5.>.r         u 1.5.5.5.5.Y     ",
"    n 5.5.5.5.1.d         c 5.5.5.5.5.L     ",
"    k 5.5.5.5.5.| c w q k } 5.5.5.5.5.n     ",
"    8 O.5.5.5.5.5.5.>.=.5.5.5.5.5.5.$.q     ",
"    @ I 5.5.5.5.5.5.5.5.5.5.5.5.5.5.I $     ",
"      3 _ 5.5.5.5.5.5.5.5.5.5.5.5./ 3       ",
"        5 W >.5.5.5.5.5.5.5.5.=.Y 3         ",
"          % s Y ] o.=.&.o.` G y $           ",
"                : 6 9 9 5 *                 ",
"                                            ",
"                                            "
};
