/* XPM */
static char *fontbolt_29_[] = {
/* columns rows colors chars-per-pixel */
"22 30 58 1 ",
"  c #000000",
". c #040404",
"X c #090909",
"o c #0E0E0E",
"O c #121212",
"+ c #151515",
"@ c #191919",
"# c #1f1f1f",
"$ c #222222",
"% c #252525",
"& c #292929",
"* c #2e2e2e",
"= c #373737",
"- c #3b3b3b",
"; c #444444",
": c #464646",
"> c #484848",
", c #4f4f4f",
"< c #525252",
"1 c #575757",
"2 c #5A5A5A",
"3 c #5e5e5e",
"4 c #626262",
"5 c #6A6A6A",
"6 c #6C6C6C",
"7 c #717171",
"8 c #7a7a7a",
"9 c #7E7E7E",
"0 c #828282",
"q c #868686",
"w c #8a8a8a",
"e c #8D8D8D",
"r c #919191",
"t c #949494",
"y c #989898",
"u c #9B9B9B",
"i c #A2A2A2",
"p c #a8a8a8",
"a c #AFAFAF",
"s c #b0b0b0",
"d c #b3b3b3",
"f c #BBBBBB",
"g c #BCBCBC",
"h c #C1C1C1",
"j c #c9c9c9",
"k c #CDCDCD",
"l c #D0D0D0",
"z c #D7D7D7",
"x c #DADADA",
"c c #DDDDDD",
"v c #e0e0e0",
"b c #E6E6E6",
"n c #E9E9E9",
"m c #ECECEC",
"M c #f0f0f0",
"N c #F4F4F4",
"B c #fafafa",
"V c #ffffff",
/* pixels */
"VVVVVVVVVV   VVVVVVVVV",
"VVVVVVV         VVVVVV",
"VVVVV             VVVV",
"VVVV     +%&#o    VVVV",
"VVV    *ekbnvg6O   VVV",
"VVV   1cVVVVVVViO  VVV",
"VVV  :nVbt430xVB5  VVV",
"VV  ofVn,    :mVgX VVV",
"VV  -nVi.    ohVc# VVV",
"VV  <BV8     .aVb% VVV",
"VV  ,BVe     @kVc# VVV",
"VV  $bVb1X  $yBVaX VVV",
"VV  .eVVMa6ezVVl-  VVV",
"VVV  +yVVVVVVVg&   VVV",
"VV   X8NVVBBVVnw@   VV",
"VV  XqBVNs<2aNVVs@  VV",
"VV  >MVb4o  X2vVV9  VV",
"VV  yVB4      3NVk+ VV",
"VV OkVl+      +lVm* VV",
"VV #cVs.  VV  ogVM- VV",
"VV #cVfX      +kVm= VV",
"VV OjVn-      :MVz# VV",
"VV  0VVj<O.XO:jVVw  VV",
"VV  #gVVNlssjnVVf@  VV",
"VV   %ynVVVVVVbr#   VV",
"VVV   X-7yppt5*.   VVV",
"VVV       ..       VVV",
"VVVV             VVVVV",
"VVVVVVV        VVVVVVV",
"VVVVVVVVVVVVVVVVVVVVVV"
};
