/* XPM */
static char *fontbolt_30__alpha[] = {
/* columns rows colors chars-per-pixel */
"22 30 115 2 ",
"   c black",
".  c #010101",
"X  c #020202",
"o  c gray1",
"O  c #040404",
"+  c #060606",
"@  c #070707",
"#  c gray3",
"$  c #090909",
"%  c #0B0B0B",
"&  c #0C0C0C",
"*  c gray6",
"=  c #101010",
"-  c #111111",
";  c gray8",
":  c #151515",
">  c gray9",
",  c #181818",
"<  c #191919",
"1  c gray10",
"2  c #1B1B1B",
"3  c gray11",
"4  c #1D1D1D",
"5  c #1E1E1E",
"6  c gray12",
"7  c #202020",
"8  c gray13",
"9  c #232323",
"0  c #252525",
"q  c #282828",
"w  c #2C2C2C",
"e  c #2D2D2D",
"r  c gray19",
"t  c #323232",
"y  c gray20",
"u  c gray21",
"i  c #373737",
"p  c #393939",
"a  c #3C3C3C",
"s  c gray24",
"d  c gray29",
"f  c gray33",
"g  c gray34",
"h  c #585858",
"j  c gray35",
"k  c #5A5A5A",
"l  c gray36",
"z  c #5D5D5D",
"x  c #626262",
"c  c #656565",
"v  c #6D6D6D",
"b  c gray43",
"n  c gray44",
"m  c #747474",
"M  c #777777",
"N  c gray49",
"B  c gray50",
"V  c #808080",
"C  c #818181",
"Z  c #838383",
"A  c #868686",
"S  c #898989",
"D  c gray54",
"F  c gray55",
"G  c #929292",
"H  c #939393",
"J  c gray59",
"K  c #989898",
"L  c #9B9B9B",
"P  c gray61",
"I  c #9D9D9D",
"U  c gray62",
"Y  c #A0A0A0",
"T  c #A2A2A2",
"R  c gray65",
"E  c #A7A7A7",
"W  c #A9A9A9",
"Q  c #AAAAAA",
"!  c #AFAFAF",
"~  c gray69",
"^  c #B4B4B4",
"/  c gray74",
"(  c gray75",
")  c #C5C5C5",
"_  c gray79",
"`  c #CBCBCB",
"'  c gray81",
"]  c LightGray",
"[  c #D5D5D5",
"{  c gray84",
"}  c #D8D8D8",
"|  c #DADADA",
" . c gray86",
".. c gainsboro",
"X. c #DFDFDF",
"o. c #E1E1E1",
"O. c #E2E2E2",
"+. c gray89",
"@. c gray90",
"#. c #E7E7E7",
"$. c #EAEAEA",
"%. c gray93",
"&. c #EEEEEE",
"*. c gray94",
"=. c #F4F4F4",
"-. c gray96",
";. c #F6F6F6",
":. c #F8F8F8",
">. c #F9F9F9",
",. c gray98",
"<. c #FBFBFB",
"1. c gray99",
"2. c #FDFDFD",
"3. c #FEFEFE",
"4. c white",
/* pixels */
"                                            ",
"                    O                       ",
"              4 f V U R K v w O             ",
"          1 V } ,.4.4.4.4.4.@.A 1           ",
"        w / 4.4.4.4.4.4.4.4.4.4.^ 7         ",
"      1 / 4.4.4.4.4.4.4.4.4.4.4.4.! :       ",
"      V 4.4.4.4.4.4.4.4.4.4.4.4.4.4.M       ",
"    4 { 4.4.4.4.;.^ V S ..4.4.4.4.4.} 7     ",
"    d ,.4.4.4.4.S &     p { 4.4.4.4.,.h     ",
"    v 4.4.4.4.$.r         h ;.4.4.4.4.S     ",
"    N 4.4.4.4.} 1         : ] 4.4.4.4.T O   ",
"    N 4.4.4.4.o.q         - ' 4.4.4.4.T     ",
"    c 4.4.4.4.4.H :     7 S ;.4.4.4.4.J     ",
"    u %.4.4.4.4.4.` U U { 4.4.4.4.4.4.N     ",
"    % ! 4.4.4.4.4.4.4.4.4.4.4.4.4.4.4.h     ",
"      a o.4.4.4.4.4.4.4.4.4.4.4.4.4.%.u     ",
"        f o.4.4.4.4.4.4.4.4.4.4.4.4.) -     ",
"          u Q %.4.4.4.4.4.4.4.4.4.4.A       ",
"            % p M K Q } 4.4.4.4.4.$.r       ",
"                  O f o.4.4.4.4.4.U O       ",
"              O r J %.4.4.4.4.4.o.u         ",
"          0 x Q @.4.4.4.4.4.4.,.n           ",
"        h } 4.4.4.4.4.4.4.4.4.H &           ",
"      0 } 4.4.4.4.4.4.4.4.*.S &             ",
"      a ;.4.4.4.4.4.4.4.` f %               ",
"      7 { 4.4.4.4.,.` v 1                   ",
"        f ] *.@.! z :                       ",
"          4 p 0 %                           ",
"                                            ",
"                                            "
};
