/* XPM */
static char *fontbolt_30_[] = {
/* columns rows colors chars-per-pixel */
"22 30 54 1 ",
"  c #000000",
". c #050505",
"X c #090909",
"o c #0C0C0C",
"O c #111111",
"+ c #141414",
"@ c #181818",
"# c #1D1D1D",
"$ c #232323",
"% c #242424",
"& c #282828",
"* c #2D2D2D",
"= c #313131",
"- c #343434",
"; c #3b3b3b",
": c #434343",
"> c #454545",
", c #494949",
"< c #525252",
"1 c #565656",
"2 c #585858",
"3 c #606060",
"4 c #6b6b6b",
"5 c #6F6F6F",
"6 c #747474",
"7 c #7a7a7a",
"8 c #858585",
"9 c #898989",
"0 c #8D8D8D",
"q c #919191",
"w c #999999",
"e c #9D9D9D",
"r c #a1a1a1",
"t c #A5A5A5",
"y c #b0b0b0",
"u c #B1B1B1",
"i c #B7B7B7",
"p c #bebebe",
"a c #c2c2c2",
"s c #c4c4c4",
"d c #cccccc",
"f c #CECECE",
"g c #D0D0D0",
"h c #D7D7D7",
"j c #dbdbdb",
"k c #dcdcdc",
"l c #e3e3e3",
"z c #E4E4E4",
"x c #EAEAEA",
"c c #EEEEEE",
"v c #f2f2f2",
"b c #f7f7f7",
"n c #FBFBFB",
"m c #ffffff",
/* pixels */
"mmmmmmmmm     mmmmmmmm",
"mmmmmm          mmmmmm",
"mmmm              mmmm",
"mmm     O*,<:#     mmm",
"mmm   @6sxnmbh7@   mmm",
"mm   *pmmnccmmmi%   mm",
"mm  @pmbt<*=5kmmuO  mm",
"mm  5mn8X    ;hmn5  mm",
"mm opmh@      <vmsO  m",
"mm #kmr.      Xumc=  m",
"mm *cm9  mmm   7mb>  m",
"mm &xmw        6mn,  m",
"mm @hmd+      .wmb;  m",
"mm .emmq+    #9vmx&  m",
"mm  ;zmmp4:>6dmmmg+ mm",
"mm   1kmmmbbmmmmmr. mm",
"mm    -eknmbktsmm2  mm",
"mmm    .$:<>$*jml%  mm",
"mmmm        .qmm0.  mm",
"mmmmm       2vmk&  mmm",
"mmmm      .1lmn5   mmm",
"mmm      &0cmmqo   mmm",
"mmm   +,qkmmv0O   mmmm",
"mmm  1dbmmna<X   mmmmm",
"mmm Xummbp3+    mmmmmm",
"mmm  <uq,O     mmmmmmm",
"mmm   X       mmmmmmmm",
"mmm         mmmmmmmmmm",
"mmmm      mmmmmmmmmmmm",
"mmmmmmmmmmmmmmmmmmmmmm"
};
