/* XPM */
static char *in_x_moves_2[] = {
/* columns rows colors chars-per-pixel */
"85 30 64 1 ",
"  c black",
". c #060606",
"X c #0B0B0B",
"o c gray5",
"O c #131313",
"+ c gray8",
"@ c gray10",
"# c #1E1E1E",
"$ c #232323",
"% c gray14",
"& c gray16",
"* c #2C2C2C",
"= c gray20",
"- c gray21",
"; c #393939",
": c #3C3C3C",
"> c #434343",
", c gray27",
"< c #4B4B4B",
"1 c #4E4E4E",
"2 c #535353",
"3 c #565656",
"4 c #585858",
"5 c #5D5D5D",
"6 c #626262",
"7 c #656565",
"8 c #6A6A6A",
"9 c #6F6F6F",
"0 c #717171",
"q c #777777",
"w c gray47",
"e c gray50",
"r c #818181",
"t c gray53",
"y c #888888",
"u c gray55",
"i c #939393",
"p c #979797",
"a c #989898",
"s c #9F9F9F",
"d c #A2A2A2",
"f c gray65",
"g c #A9A9A9",
"h c #AEAEAE",
"j c gray70",
"k c #B7B7B7",
"l c #BBBBBB",
"z c gray75",
"x c #C3C3C3",
"c c gray78",
"v c #C8C8C8",
"b c gray81",
"n c #D2D2D2",
"m c gray83",
"M c gray85",
"N c gainsboro",
"B c gray88",
"V c #E6E6E6",
"C c #EAEAEA",
"Z c #EEEEEE",
"A c gray94",
"S c #F6F6F6",
"D c #F9F9F9",
"F c white",
/* pixels */
"FFFFFFFFFFFFFFFFFFFFFFFFFFFFFFFFFFFFFFFFFFFFFFFFFFFFFFFFFFFFFFFFFFFFFFFFFFFFFFF   FFF",
"FFFFFFFFFFFFFFFFFFFFFFFFFFFFFFFFFFFFFFFFFFFFFFFFFFFFFFFFFFFFFFFFFFFFFFFFFFFFF      FF",
"FFFFFFFFFFFFFFFFFFFFFFFFFFFFFFFFFFFFFFFFFFFFFFFFFFFFFFFFFFFFFFFFFFFFFFFFFFFFF       F",
"FFFFFFFFFFFFFFFFFFFFFFFFFFFFFFFFFFFFFFFFFFFFFFFFFFFFFFFFFFFFFFFFFFFFFFFFFFFFF  =8$  F",
"FFFFFFFFFFFFFFFFFFFFFFFFFFFFFFFFFFFFFFFFFFFFFFFFFFFFFFFFFFFFFFFFFFFFFFFFFFFFF .jFw  F",
"FFFFFFFFFFFFFFFFFFFFFFFFFFFFFFFFFFFFFFFFFFFFFFFFFFFFFFFFFFFFFFFFFFFFFFFFFFFFF XlFt  F",
"FFFFFFFFFFFFFFFFFFFFFFFFFFFFFFFFFFFFFFFFFFFFFFFFFFFFFFFFFFFFFFFFFFFFFFFF    F XzFt  F",
"FF      F    FFF   FFFFFFFFFFFFFFFFFF    FFFFF    FFFFFF   FFFFFFFFFF         XzFt  F",
"FF                   FFFFF        FF      FFF      FF         FFFF            XzFt  F",
"FF  Xo                FFF                 FFF      F           FF       @20=  XxFt  F",
"F  Odk$  %<=.  O*=@   FF    X#$+     o3:   F   =-.     @=-&+    F    #2ibSFkX XxFt  F",
"F  ;SF5.6MDCeO6cZAv<      o6kMNbr+   4DM%  F  =NC:   @rnZACvr#     *pMDFFFFm@ oxFt  F",
"F  1DD39AFFFAhSFFFFn#    +fDFFFFFfO  4FF7     eFS>  #lFFFDFFFjO   ;mFFFVjlFZ= oxFt  F",
"F  1FSaCFmhFFFFbexFD3   XiFFVhdMFD7  #mFkX   +bFcO XsFSf3<7hSD1  ohFFv7&.:Zm& ocFt  F",
"F  >SFSFx*-AFZy# ,AFw   <AFv;X.*bFxO  iFC=   1SFq  1SFto   1VF5  %BFz@   X:=  ocFt  F",
"F  -ZFFb* &CFt.  +nFp. .fFZ<    9FC*  :AFw  .aFV& .dFc+  &yCFN&  *CFz4=O      ocFt  F",
"FF &CFN;  %VF9   .hFj. #MFkX    ;SD1  ozFcO %NFs. #mF9 *yBFFn1   OzFFFCcw%    ocFt  F",
"FF &CFt   #NFw    pFbO =ZFe     *CF4   8DA> 0FA,  =AA8iBFFNt%     -jCFFFFm1   oxFt  F",
"FF =ZF9   +bFu    eFV% :AF7  F  *CF3   %BFyOxFlo  >SDAFFme%        o=7pnDFN=  XzFy  F",
"F  >SF5   ozFf.   7FA; -ZF0     :SS>   .sFn7SD6   :AFDb0$              @tSFt  .dS9  F",
"F  1FD1   .hFlX   1FF2 @MFg.    yFM# F  1SDBFn@   &VFa@      +6&  .     OvFj.  #>O  F",
"F  4FS,    pFnO   :AF8 .sFA6. .3CFp. F  +bFFFe    XjFn,.    %sFdots&.   &mFj.       F",
"F  3FD2    tFN$ F &CFt  :CFZfefZFB*  F   rFFB*  F  <CFZg060dMFFw*ZFNfteaMFFe  +urO  F",
"F  :AF9    wFC* F @mFs   8ZFFFFFC5   FF  -ZFs.  F   5BFFFFFFFVtOOhFFFFFFFFz#  -AF6  F",
"F  Ofn:    0FA* F XjFa.  .1zCAVk,.  FFF  .ec>  FF    *rcNVNzr-   @0zBAACve#   osC5  F",
"FF  O@     -vf+ F  *7$     o*;&o    FFFF  .o   FFF     o#%#o       o%-;*+      O*X  F",
"FF          Oo  F                  FFFFF       FFFF                                 F",
"FF      FF      F       F         FFFFFFF     FFFFFFF         FFF          FFF     FF",
"FFFFFFFFFF     FFFF   FFFFFFFFFFFFFFFFFFFFFFFFFFFFFFFFFFFFFFFFFFFFFFFFFFFFFFFFFFFFFFF",
"FFFFFFFFFFFFFFFFFFFFFFFFFFFFFFFFFFFFFFFFFFFFFFFFFFFFFFFFFFFFFFFFFFFFFFFFFFFFFFFFFFFFF"
};
