/* XPM */
static char *in_x_moves_1_alpha[] = {
/* columns rows colors chars-per-pixel */
"27 30 142 2 ",
"   c #000000",
".  c #010101",
"X  c #020202",
"o  c #030303",
"O  c #040404",
"+  c #060606",
"@  c #080808",
"#  c #0B0B0B",
"$  c #0d0d0d",
"%  c #0E0E0E",
"&  c #101010",
"*  c #111111",
"=  c #131313",
"-  c #151515",
";  c #161616",
":  c #181818",
">  c #191919",
",  c #1a1a1a",
"<  c #1B1B1B",
"1  c #1c1c1c",
"2  c #1D1D1D",
"3  c #1f1f1f",
"4  c #202020",
"5  c #212121",
"6  c #222222",
"7  c #242424",
"8  c #252525",
"9  c #262626",
"0  c #272727",
"q  c #292929",
"w  c #2A2A2A",
"e  c #2b2b2b",
"r  c #2D2D2D",
"t  c #303030",
"y  c #313131",
"u  c #333333",
"i  c #343434",
"p  c #353535",
"a  c #363636",
"s  c #383838",
"d  c #393939",
"f  c #3b3b3b",
"g  c #3E3E3E",
"h  c #404040",
"j  c #414141",
"k  c #424242",
"l  c #444444",
"z  c #454545",
"x  c #464646",
"c  c #474747",
"v  c #494949",
"b  c #4B4B4B",
"n  c #4C4C4C",
"m  c #4d4d4d",
"M  c #505050",
"N  c #535353",
"B  c #555555",
"V  c #575757",
"C  c #585858",
"Z  c #595959",
"A  c #5c5c5c",
"S  c #5D5D5D",
"D  c #5F5F5F",
"F  c #606060",
"G  c #646464",
"H  c #656565",
"J  c #6A6A6A",
"K  c #6C6C6C",
"L  c #6D6D6D",
"P  c #6e6e6e",
"I  c #717171",
"U  c #727272",
"Y  c #737373",
"T  c #747474",
"R  c #777777",
"E  c #787878",
"W  c #7B7B7B",
"Q  c #808080",
"!  c #818181",
"~  c #828282",
"^  c #878787",
"/  c #888888",
"(  c #898989",
")  c #8c8c8c",
"_  c #8D8D8D",
"`  c #8f8f8f",
"'  c #909090",
"]  c #919191",
"[  c #999999",
"{  c #9A9A9A",
"}  c #a6a6a6",
"|  c #A7A7A7",
" . c #A9A9A9",
".. c #AAAAAA",
"X. c #B1B1B1",
"o. c #b3b3b3",
"O. c #B4B4B4",
"+. c #b8b8b8",
"@. c #bdbdbd",
"#. c #C0C0C0",
"$. c #C1C1C1",
"%. c #C3C3C3",
"&. c #C5C5C5",
"*. c #CACACA",
"=. c #CBCBCB",
"-. c #CECECE",
";. c #cfcfcf",
":. c #d1d1d1",
">. c #D5D5D5",
",. c #D7D7D7",
"<. c #D8D8D8",
"1. c #dcdcdc",
"2. c #DDDDDD",
"3. c #dedede",
"4. c #e0e0e0",
"5. c #E2E2E2",
"6. c #E4E4E4",
"7. c #e5e5e5",
"8. c #E6E6E6",
"9. c #E7E7E7",
"0. c #e8e8e8",
"q. c #E9E9E9",
"w. c #EAEAEA",
"e. c #ebebeb",
"r. c #ECECEC",
"t. c #ededed",
"y. c #EEEEEE",
"u. c #EFEFEF",
"i. c #f0f0f0",
"p. c #F1F1F1",
"a. c #F4F4F4",
"s. c #f5f5f5",
"d. c #F6F6F6",
"f. c #f7f7f7",
"g. c #F8F8F8",
"h. c #F9F9F9",
"j. c #fafafa",
"k. c #FBFBFB",
"l. c #fcfcfc",
"z. c #FDFDFD",
"x. c #FEFEFE",
"c. c #ffffff",
/* pixels */
"                                                      ",
"                                                      ",
"      + b ' ` k +                                     ",
"      J p.c.c.q.C                                     ",
"    1 >.c.c.c.c.%.&                                   ",
"    t r.c.c.c.c.2.4                                   ",
"    > ;.c.c.c.c.@.%                                   ",
"      A q.c.c.5.n       +                             ",
"      + k ` ! t     & T X.{ a   - b I I b &           ",
"      d  .;. .a   + ) c.c.c.:.P %.k.c.c.f.+.t         ",
"    > *.c.c.c.*.> 1 2.c.c.c.c.k.c.c.c.c.c.c.%.>       ",
"    b k.c.c.c.f.z 4 q.c.c.c.c.c.c.c.c.c.c.c.c.J       ",
"    V k.c.c.c.k.n 1 5.c.c.c.c.c.c.c.c.c.c.c.c.O.@     ",
"    A c.c.c.c.k.z > 2.c.c.c.c.c.c.c.c.c.c.c.c.<.>     ",
"    I c.c.c.c.k.k > 2.c.c.c.c.c.c.>.X.c.c.c.c.7.q     ",
"    T c.c.c.c.r.a 4 7.c.c.c.c.c.q.k F c.c.c.c.r.t     ",
"    ^ c.c.c.c.q.q r q.c.c.c.c.c.!   H c.c.c.c.r.a     ",
"    ` c.c.c.c.7.0 a p.c.c.c.c.<.0   P c.c.c.c.p.t     ",
"    ' c.c.c.c.7.4 z f.c.c.c.c.{     I c.c.c.c.r.a     ",
"    ' c.c.c.c.7.0 n c.c.c.c.c.H     P c.c.c.c.f.d     ",
"    ` c.c.c.c.q.q C c.c.c.c.k.M     A c.c.c.c.k.V     ",
"    ^ c.c.c.c.q.q A c.c.c.c.f.z     n c.c.c.c.c.I     ",
"    ! c.c.c.c.q.q V c.c.c.c.k.n     a r.c.c.c.c.'     ",
"    E c.c.c.c.q.q k f.c.c.c.c.A     4 2.c.c.c.c. .    ",
"    n f.c.c.c.*.- a r.c.c.c.c.C     & ;.c.c.c.c. .+   ",
"    @ ) r.f.<.M   & @.c.c.c.>.0       { c.c.c.c.W     ",
"      @ a b 4       t  .>.+.z         r @.f.p.} >     ",
"                      @ - %             - g d %       ",
"                                                      ",
"                                                      "
};
