/* XPM */
static char *in_x_moves_1[] = {
/* columns rows colors chars-per-pixel */
"27 30 57 1 ",
"  c #000000",
". c #050505",
"X c #080808",
"o c #0C0C0C",
"O c #111111",
"+ c #171717",
"@ c #191919",
"# c #1c1c1c",
"$ c #212121",
"% c #262626",
"& c #2b2b2b",
"* c #2C2C2C",
"= c #333333",
"- c #363636",
"; c #3C3C3C",
": c #414141",
"> c #434343",
", c #494949",
"< c #4f4f4f",
"1 c #535353",
"2 c #575757",
"3 c #5A5A5A",
"4 c #6C6C6C",
"5 c #6F6F6F",
"6 c #737373",
"7 c #787878",
"8 c #7f7f7f",
"9 c #848484",
"0 c #8D8D8D",
"q c #939393",
"w c #979797",
"e c #999999",
"r c #9c9c9c",
"t c #A2A2A2",
"y c #A5A5A5",
"u c #AAAAAA",
"i c #adadad",
"p c #B2B2B2",
"a c #B7B7B7",
"s c #bababa",
"d c #bfbfbf",
"f c #c2c2c2",
"g c #C6C6C6",
"h c #CBCBCB",
"j c #CECECE",
"k c #d3d3d3",
"l c #D7D7D7",
"z c #dbdbdb",
"x c #DDDDDD",
"c c #e0e0e0",
"v c #E4E4E4",
"b c #e8e8e8",
"n c #EEEEEE",
"m c #f2f2f2",
"M c #f7f7f7",
"N c #fafafa",
"B c #ffffff",
/* pixels */
"BBBBBBBBBBBBBBBBBBBBBBBBBBB",
"BBBB    BBBBBBBBBBBBBBBBBBB",
"BB        BBBBBBBBBBBBBBBBB",
"B   .*&    BBBBBBBBBBBBBBBB",
"B   3bc,   BBBBBBBBBBBBBBBB",
"B   rBB9   BBBBBBBBBBBBBBBB",
"B   <zk:   BBBBBBBBBBBBBBBB",
"B    $#        BBBBBBBBBBBB",
"BB                      BBB",
"B          O,*   X$#X    BB",
"B   *6*    7Bg+.,pccu*   BB",
"B  XpBpX   rBn-4nBBBBs+   B",
"B  OhBgo   qBmenBmjvBM<   B",
"B  +kBfo   0BBNBl1O2MB8   B",
"B  #zBaX   0BBBc:  $xBr   B",
"   $vBu.   wBBB6   @lBi   B",
"   &bBr    yBBh@   @zBi.  B",
"   =nBw   XaBB7    $xBi   B",
"   -nBq   odBn-    $cBi.  B",
"   =nBw   OhBl+    $xBa.  B",
"   *nBe   +kBhO    @lBgO  B",
"   &bBr   +zBdo    ogBx$   ",
"   &bBy   OkBgo    .uBm-   ",
"   $cBr.  XdBk+     0BN,   ",
"B  .7a:   .tBgO     4BN,   ",
"B    X     *7;      %ue+   ",
"BB                   ..   B",
"BBBBBBBBBB      BB       BB",
"BBBBBBBBBBBBBBBBBBBBBBBBBBB",
"BBBBBBBBBBBBBBBBBBBBBBBBBBB"
};
