/* XPM */
static char *in_x_moves_2_alpha[] = {
/* columns rows colors chars-per-pixel */
"85 30 233 2 ",
"   c black",
".  c #010101",
"X  c #020202",
"o  c gray1",
"O  c #040404",
"+  c gray2",
"@  c #060606",
"#  c #070707",
"$  c gray3",
"%  c #090909",
"&  c gray4",
"*  c #0B0B0B",
"=  c #0C0C0C",
"-  c gray5",
";  c #0E0E0E",
":  c gray6",
">  c #101010",
",  c #111111",
"<  c gray7",
"1  c #131313",
"2  c gray8",
"3  c #151515",
"4  c #161616",
"5  c gray9",
"6  c #181818",
"7  c #191919",
"8  c gray10",
"9  c #1B1B1B",
"0  c gray11",
"q  c #1E1E1E",
"w  c gray12",
"e  c #202020",
"r  c gray13",
"t  c #222222",
"y  c #232323",
"u  c gray14",
"i  c #252525",
"p  c gray15",
"a  c #282828",
"s  c gray16",
"d  c #2A2A2A",
"f  c gray17",
"g  c #2D2D2D",
"h  c gray18",
"j  c #2F2F2F",
"k  c gray19",
"l  c #313131",
"z  c #323232",
"x  c gray20",
"c  c #343434",
"v  c #353535",
"b  c gray21",
"n  c #373737",
"m  c #393939",
"M  c #3A3A3A",
"N  c gray23",
"B  c #3C3C3C",
"V  c gray24",
"C  c #3E3E3E",
"Z  c #3F3F3F",
"A  c gray25",
"S  c #414141",
"D  c gray26",
"F  c #434343",
"G  c #444444",
"H  c gray27",
"J  c #464646",
"K  c gray28",
"L  c #484848",
"P  c #494949",
"I  c gray29",
"U  c #4B4B4B",
"Y  c gray30",
"T  c #4E4E4E",
"R  c gray31",
"E  c #505050",
"W  c #515151",
"Q  c gray32",
"!  c #535353",
"~  c gray33",
"^  c #555555",
"/  c #565656",
"(  c #585858",
")  c gray35",
"_  c #5A5A5A",
"`  c gray36",
"'  c #5D5D5D",
"]  c gray37",
"[  c #5F5F5F",
"{  c #606060",
"}  c gray38",
"|  c #626262",
" . c #646464",
".. c #656565",
"X. c #676767",
"o. c #686868",
"O. c DimGray",
"+. c #6A6A6A",
"@. c #6C6C6C",
"#. c #6F6F6F",
"$. c gray44",
"%. c #717171",
"&. c #727272",
"*. c gray45",
"=. c #747474",
"-. c gray46",
";. c #767676",
":. c #777777",
">. c gray47",
",. c gray48",
"<. c #7B7B7B",
"1. c #7C7C7C",
"2. c gray49",
"3. c #808080",
"4. c #818181",
"5. c gray51",
"6. c #838383",
"7. c #848484",
"8. c gray52",
"9. c #868686",
"0. c gray53",
"q. c #888888",
"w. c #898989",
"e. c #8B8B8B",
"r. c gray55",
"t. c #8D8D8D",
"y. c #8E8E8E",
"u. c gray56",
"i. c #909090",
"p. c gray57",
"a. c #929292",
"s. c #939393",
"d. c gray58",
"f. c #959595",
"g. c gray59",
"h. c #979797",
"j. c #989898",
"k. c gray60",
"l. c #9A9A9A",
"z. c #9B9B9B",
"x. c gray61",
"c. c #9D9D9D",
"v. c gray62",
"b. c #9F9F9F",
"n. c #A0A0A0",
"m. c #A2A2A2",
"M. c gray64",
"N. c #A4A4A4",
"B. c #A5A5A5",
"V. c gray65",
"C. c #A7A7A7",
"Z. c gray66",
"A. c #A9A9A9",
"S. c #AAAAAA",
"D. c gray67",
"F. c #ACACAC",
"G. c gray68",
"H. c #AEAEAE",
"J. c #AFAFAF",
"K. c gray69",
"L. c #B1B1B1",
"P. c #B2B2B2",
"I. c gray70",
"U. c #B4B4B4",
"Y. c gray71",
"T. c #B6B6B6",
"R. c #B7B7B7",
"E. c gray72",
"W. c #B9B9B9",
"Q. c gray73",
"!. c #BBBBBB",
"~. c #BCBCBC",
"^. c gray74",
"/. c gray",
"(. c gray75",
"). c #C0C0C0",
"_. c #C1C1C1",
"`. c gray76",
"'. c #C3C3C3",
"]. c gray77",
"[. c #C5C5C5",
"{. c #C6C6C6",
"}. c gray78",
"|. c #C8C8C8",
" X c gray79",
".X c #CACACA",
"XX c gray80",
"oX c #CDCDCD",
"OX c #CECECE",
"+X c gray81",
"@X c #D0D0D0",
"#X c gray82",
"$X c #D2D2D2",
"%X c gray83",
"&X c gray84",
"*X c #D8D8D8",
"=X c gray85",
"-X c #DADADA",
";X c gray86",
":X c gainsboro",
">X c #DDDDDD",
",X c gray87",
"<X c #DFDFDF",
"1X c gray88",
"2X c #E1E1E1",
"3X c #E4E4E4",
"4X c gray90",
"5X c #E6E6E6",
"6X c #E7E7E7",
"7X c gray91",
"8X c #E9E9E9",
"9X c #EAEAEA",
"0X c gray92",
"qX c #ECECEC",
"wX c gray93",
"eX c #EEEEEE",
"rX c #EFEFEF",
"tX c gray94",
"yX c #F1F1F1",
"uX c gray95",
"iX c #F3F3F3",
"pX c #F4F4F4",
"aX c gray96",
"sX c #F6F6F6",
"dX c gray97",
"fX c #F8F8F8",
"gX c #F9F9F9",
"hX c gray98",
"jX c #FBFBFB",
"kX c gray99",
"lX c #FDFDFD",
"zX c #FEFEFE",
"xX c white",
/* pixels */
"                                                                                                                                                                          ",
"                                                                                                                                                                *         ",
"                                                                                                                                                            j l.R.7.9     ",
"                                                                                                                                                          > /.xXxXxXw.#   ",
"                                                                                                                                                          j 9XxXxXxX.X=   ",
"                                                                                                                                                          z eXxXxXxX+X>   ",
"                                                                                                                                                          z eXxXxXxX+X=   ",
"                                                                                                                                                  # *     n eXxXxXxX+X=   ",
"      > L L 3                                                               #                                                               # r [ C.`.l.a n yXxXxXxX+X=   ",
"    > C.dXjXW.u a <.m.w.F # 9 ^ 2.3.{ r               3 B [ O.T u       * ..I.C.F           N u.p.F         u ( 2.3.&.! r             # a O.Z.,XxXxXxXxX/.L eXxXxXxX+X=   ",
"    ( jXxXxXxX`.=XxXxXxXeXC.#XjXxXxXxX#XK         = ...XyXxXxXjX,X2.>   O.dXxXxX,Xa       n ,XxXxX6XK   3 3.,XxXxXxXxXjX,X7.3       u g.6XxXxXxXxXxXxXxXeX@.eXxXxXxX+X=   ",
"    u.xXxXxXxXxXxXxXxXxXxXxXxXxXxXxXxXxX#Xr     > b.jXxXxXxXxXxXxXxXb.3 W.xXxXxXxX2.      p.xXxXxXxXb.q F.xXxXxXxXxXxXxXxXxXZ.>   j +XxXxXxXxXxXxXxXxXxXjXp.eXxXxXxX+X>   ",
"    C.xXxXxXxXxXxXxXxXxXxXxXxXxXxXxXxXxXxX:.  # p.xXxXxXxXxXxXxXxXxXjX&.I.xXxXxXxX}.>   r =XxXxXxXxXm.g.xXxXxXxXxXxXxXxXxXxXjX{ * I.xXxXxXxXxXxXxXxXxXxXxXI.eXxXxXxX+X=   ",
"  # m.xXxXxXxXxXxXxXxXxXxXxXxXxXxXxXxXxXxXI.  T yXxXxXxXxXxXxXxXxXxXxX.X7.jXxXxXxXyXF   [ xXxXxXxXjXZ.yXxXxXxXxXxXxXxXxXxXxXxXm.F yXxXxXxXxXxXxXjXxXxXxXxXI.eXxXxXxX+X>   ",
"    g.xXxXxXxXxXxXxXxXxXxXxXxXxXyXxXxXxXxX+X9 I.xXxXxXxXxXeX9XxXxXxXxXdX:.,XxXxXxXxXu.* F.xXxXxXxX,X#XxXxXxXxXdX,XjXxXxXxXxXxXF.@.xXxXxXxXxXxX/.7.9XxXxX#X..yXxXxXxX+X>   ",
"    7.xXxXxXxXxXxXyXxXxXxXxXyX7.:.jXxXxXxX=X^ 9XxXxXxXxX}.B n #XxXxXxXxX7.b.xXxXxXxX#XL 9XxXxXxXxXW.9XxXxXxXxXeX9XxXxXxXxXxXxX7.&.xXxXxXxXxXxXyX&X+XR.7.z N dXxXxXxX.X=   ",
"    <.xXxXxXxXxX`.p.xXxXxXxX`.# j eXxXxXxX9Xg.xXxXxXxXyXT     p.xXxXxXxXl.T dXxXxXxXdX.XxXxXxXxX6Xg.jXxXxXxXxXxXxXxXxXxXxXxX=Xa T jXxXxXxXxXxXxXxXxX.XB   N yXxXxXxX+X>   ",
"    :.xXxXxXxX3Xn [ xXxXxXxX}.= q ,XxXxXxXjX#XxXxXxXxX#X3     :.xXxXxXxXI.9 .XxXxXxXxXxXxXxXxXxXZ.7.xXxXxXxXxXxXxXxXxXxXxX+XK   3 /.xXxXxXxXxXxXxXxXxX=Xu n yXxXxXxX+X>   ",
"    3.xXxXxXxX`.* T jXxXxXxX&X9 > +XxXxXxXxXdXxXxXxXxXR.*     &.xXxXxXxXZ.  <.xXxXxXxXxXxXxXxXdX! w.xXxXxXxXxXxXxXxXxX3X7.r #     j F.dXxXxXxXxXxXxXxXxXp.n eXxXxXxX+X=   ",
"    g.xXxXxXxXI.  B dXxXxXxX6Xa # W.xXxXxXxXxXxXxXxXxX}.=     l.xXxXxXxXg.  z 9XxXxXxXxXxXxXxX.X> w.xXxXxXxXxXxXxX=X3.a > <./.g.a r N L 3.R.,XjXxXxXxXxX#XF 6XxXxXxX`.=   ",
"  # C.xXxXxXxXm.  j eXxXxXxXdXN   m.xXxXxXxXxXxXxXxXxXyX[ 3 ! 6XxXxXxXxXO.  * I.xXxXxXxXxXxXjX@.  :.xXxXxXxXxXeX7.u = a l.xXxXxX=X3X6Xl.j 9 z g.xXxXxXxX9XN m.xXxXyX:.    ",
"  # F.xXxXxXxXg.  r ,XxXxXxXjX!   u.xXxXxXxXeXdXxXxXxXxXeX#XeXxXxXxXxX9Xz     { jXxXxXxXxXxX=Xr   F yXxXxXxXxXdX`.I.}.6XxXxXxXxXxXxXxXxX6X+X}.3XxXxXxXxX9XN g.xXxX/.3     ",
"  # F.xXxXxXxXZ.  3 #XxXxXxXxX..  :.xXxXxXxX=X/.xXxXxXxXxXxXxXxXxXxXxXb.#     r =XxXxXxXxXxXu.    = /.xXxXxXxXxXxXxXxXxXxXxXxXxXxXxXxXxXxXxXxXxXxXxXxXxX#X:.dXxXxXdX{     ",
"    p.xXxXxXxX`.* = +XxXxXxXxX:.  [ xXxXxXxX,X{ 6XxXxXxXxXxXxXxXxXxX,Xj         g.xXxXxXxX9Xn       F 6XxXxXxXxXxXxXxXxXxXxXxXxXxXxXxXxXxXxXxXxXxXxXxXxX3.3.xXxXxXxX/.=   ",
"    ( xXxXxXxXZ.# * `.xXxXxXxX:.  B dXxXxXxX3Xu { eXxXxXxXxXxXxXxX6X!           F eXxXxXxXR.*         ^ =XxXxXxXxXxXxXxXxXxX9Xw.Z.xXxXxXxXxXxXxXxXxXxXI.9 L dXxXxXxX`.*   ",
"    > C.jXxX=XF   # b.xXxXxXxX(   3 /.xXxXxXZ.=   ! `.dXxXxXxXdXW.F             # <.9XjX&XK             j p.=XdXxXxXxXyX&Xp.N   > :.+XyXxXxXxXxXjX=X2.9   * w.dXxX9X[     ",
"      3 ^ ..a       n +XxXdXC.3     j b./.u.r       3 L <.w.:.K >                 # z L u                   q K { @.[ F 9           3 F O.3.7.&.L q         = ^ :.F       ",
"                      r ^ L >           *                                                                                                                                 ",
"                                                                                                                                                                          ",
"                                                                                                                                                                          "
};
